G04 #@! TF.GenerationSoftware,KiCad,Pcbnew,5.0.0*
G04 #@! TF.CreationDate,2018-08-13T16:41:50-03:00*
G04 #@! TF.ProjectId,drv18,64727631382E6B696361645F70636200,rev?*
G04 #@! TF.SameCoordinates,Original*
G04 #@! TF.FileFunction,Soldermask,Bot*
G04 #@! TF.FilePolarity,Negative*
%FSLAX46Y46*%
G04 Gerber Fmt 4.6, Leading zero omitted, Abs format (unit mm)*
G04 Created by KiCad (PCBNEW 5.0.0) date Mon Aug 13 16:41:50 2018*
%MOMM*%
%LPD*%
G01*
G04 APERTURE LIST*
%ADD10R,2.100000X1.700000*%
%ADD11C,0.100000*%
%ADD12C,1.550000*%
%ADD13C,1.825000*%
%ADD14R,2.900000X2.100000*%
%ADD15O,2.900000X2.100000*%
%ADD16R,1.950000X1.000000*%
G04 APERTURE END LIST*
D10*
G04 #@! TO.C,D102*
X163000000Y-89000000D03*
X163000000Y-85500000D03*
G04 #@! TD*
D11*
G04 #@! TO.C,C103*
G36*
X163596071Y-90176623D02*
X163628781Y-90181475D01*
X163660857Y-90189509D01*
X163691991Y-90200649D01*
X163721884Y-90214787D01*
X163750247Y-90231787D01*
X163776807Y-90251485D01*
X163801308Y-90273692D01*
X163823515Y-90298193D01*
X163843213Y-90324753D01*
X163860213Y-90353116D01*
X163874351Y-90383009D01*
X163885491Y-90414143D01*
X163893525Y-90446219D01*
X163898377Y-90478929D01*
X163900000Y-90511956D01*
X163900000Y-91388044D01*
X163898377Y-91421071D01*
X163893525Y-91453781D01*
X163885491Y-91485857D01*
X163874351Y-91516991D01*
X163860213Y-91546884D01*
X163843213Y-91575247D01*
X163823515Y-91601807D01*
X163801308Y-91626308D01*
X163776807Y-91648515D01*
X163750247Y-91668213D01*
X163721884Y-91685213D01*
X163691991Y-91699351D01*
X163660857Y-91710491D01*
X163628781Y-91718525D01*
X163596071Y-91723377D01*
X163563044Y-91725000D01*
X162436956Y-91725000D01*
X162403929Y-91723377D01*
X162371219Y-91718525D01*
X162339143Y-91710491D01*
X162308009Y-91699351D01*
X162278116Y-91685213D01*
X162249753Y-91668213D01*
X162223193Y-91648515D01*
X162198692Y-91626308D01*
X162176485Y-91601807D01*
X162156787Y-91575247D01*
X162139787Y-91546884D01*
X162125649Y-91516991D01*
X162114509Y-91485857D01*
X162106475Y-91453781D01*
X162101623Y-91421071D01*
X162100000Y-91388044D01*
X162100000Y-90511956D01*
X162101623Y-90478929D01*
X162106475Y-90446219D01*
X162114509Y-90414143D01*
X162125649Y-90383009D01*
X162139787Y-90353116D01*
X162156787Y-90324753D01*
X162176485Y-90298193D01*
X162198692Y-90273692D01*
X162223193Y-90251485D01*
X162249753Y-90231787D01*
X162278116Y-90214787D01*
X162308009Y-90200649D01*
X162339143Y-90189509D01*
X162371219Y-90181475D01*
X162403929Y-90176623D01*
X162436956Y-90175000D01*
X163563044Y-90175000D01*
X163596071Y-90176623D01*
X163596071Y-90176623D01*
G37*
D12*
X163000000Y-90950000D03*
D11*
G36*
X163596071Y-92226623D02*
X163628781Y-92231475D01*
X163660857Y-92239509D01*
X163691991Y-92250649D01*
X163721884Y-92264787D01*
X163750247Y-92281787D01*
X163776807Y-92301485D01*
X163801308Y-92323692D01*
X163823515Y-92348193D01*
X163843213Y-92374753D01*
X163860213Y-92403116D01*
X163874351Y-92433009D01*
X163885491Y-92464143D01*
X163893525Y-92496219D01*
X163898377Y-92528929D01*
X163900000Y-92561956D01*
X163900000Y-93438044D01*
X163898377Y-93471071D01*
X163893525Y-93503781D01*
X163885491Y-93535857D01*
X163874351Y-93566991D01*
X163860213Y-93596884D01*
X163843213Y-93625247D01*
X163823515Y-93651807D01*
X163801308Y-93676308D01*
X163776807Y-93698515D01*
X163750247Y-93718213D01*
X163721884Y-93735213D01*
X163691991Y-93749351D01*
X163660857Y-93760491D01*
X163628781Y-93768525D01*
X163596071Y-93773377D01*
X163563044Y-93775000D01*
X162436956Y-93775000D01*
X162403929Y-93773377D01*
X162371219Y-93768525D01*
X162339143Y-93760491D01*
X162308009Y-93749351D01*
X162278116Y-93735213D01*
X162249753Y-93718213D01*
X162223193Y-93698515D01*
X162198692Y-93676308D01*
X162176485Y-93651807D01*
X162156787Y-93625247D01*
X162139787Y-93596884D01*
X162125649Y-93566991D01*
X162114509Y-93535857D01*
X162106475Y-93503781D01*
X162101623Y-93471071D01*
X162100000Y-93438044D01*
X162100000Y-92561956D01*
X162101623Y-92528929D01*
X162106475Y-92496219D01*
X162114509Y-92464143D01*
X162125649Y-92433009D01*
X162139787Y-92403116D01*
X162156787Y-92374753D01*
X162176485Y-92348193D01*
X162198692Y-92323692D01*
X162223193Y-92301485D01*
X162249753Y-92281787D01*
X162278116Y-92264787D01*
X162308009Y-92250649D01*
X162339143Y-92239509D01*
X162371219Y-92231475D01*
X162403929Y-92226623D01*
X162436956Y-92225000D01*
X163563044Y-92225000D01*
X163596071Y-92226623D01*
X163596071Y-92226623D01*
G37*
D12*
X163000000Y-93000000D03*
G04 #@! TD*
D11*
G04 #@! TO.C,C104*
G36*
X157946071Y-86351623D02*
X157978781Y-86356475D01*
X158010857Y-86364509D01*
X158041991Y-86375649D01*
X158071884Y-86389787D01*
X158100247Y-86406787D01*
X158126807Y-86426485D01*
X158151308Y-86448692D01*
X158173515Y-86473193D01*
X158193213Y-86499753D01*
X158210213Y-86528116D01*
X158224351Y-86558009D01*
X158235491Y-86589143D01*
X158243525Y-86621219D01*
X158248377Y-86653929D01*
X158250000Y-86686956D01*
X158250000Y-87813044D01*
X158248377Y-87846071D01*
X158243525Y-87878781D01*
X158235491Y-87910857D01*
X158224351Y-87941991D01*
X158210213Y-87971884D01*
X158193213Y-88000247D01*
X158173515Y-88026807D01*
X158151308Y-88051308D01*
X158126807Y-88073515D01*
X158100247Y-88093213D01*
X158071884Y-88110213D01*
X158041991Y-88124351D01*
X158010857Y-88135491D01*
X157978781Y-88143525D01*
X157946071Y-88148377D01*
X157913044Y-88150000D01*
X157036956Y-88150000D01*
X157003929Y-88148377D01*
X156971219Y-88143525D01*
X156939143Y-88135491D01*
X156908009Y-88124351D01*
X156878116Y-88110213D01*
X156849753Y-88093213D01*
X156823193Y-88073515D01*
X156798692Y-88051308D01*
X156776485Y-88026807D01*
X156756787Y-88000247D01*
X156739787Y-87971884D01*
X156725649Y-87941991D01*
X156714509Y-87910857D01*
X156706475Y-87878781D01*
X156701623Y-87846071D01*
X156700000Y-87813044D01*
X156700000Y-86686956D01*
X156701623Y-86653929D01*
X156706475Y-86621219D01*
X156714509Y-86589143D01*
X156725649Y-86558009D01*
X156739787Y-86528116D01*
X156756787Y-86499753D01*
X156776485Y-86473193D01*
X156798692Y-86448692D01*
X156823193Y-86426485D01*
X156849753Y-86406787D01*
X156878116Y-86389787D01*
X156908009Y-86375649D01*
X156939143Y-86364509D01*
X156971219Y-86356475D01*
X157003929Y-86351623D01*
X157036956Y-86350000D01*
X157913044Y-86350000D01*
X157946071Y-86351623D01*
X157946071Y-86351623D01*
G37*
D12*
X157475000Y-87250000D03*
D11*
G36*
X159996071Y-86351623D02*
X160028781Y-86356475D01*
X160060857Y-86364509D01*
X160091991Y-86375649D01*
X160121884Y-86389787D01*
X160150247Y-86406787D01*
X160176807Y-86426485D01*
X160201308Y-86448692D01*
X160223515Y-86473193D01*
X160243213Y-86499753D01*
X160260213Y-86528116D01*
X160274351Y-86558009D01*
X160285491Y-86589143D01*
X160293525Y-86621219D01*
X160298377Y-86653929D01*
X160300000Y-86686956D01*
X160300000Y-87813044D01*
X160298377Y-87846071D01*
X160293525Y-87878781D01*
X160285491Y-87910857D01*
X160274351Y-87941991D01*
X160260213Y-87971884D01*
X160243213Y-88000247D01*
X160223515Y-88026807D01*
X160201308Y-88051308D01*
X160176807Y-88073515D01*
X160150247Y-88093213D01*
X160121884Y-88110213D01*
X160091991Y-88124351D01*
X160060857Y-88135491D01*
X160028781Y-88143525D01*
X159996071Y-88148377D01*
X159963044Y-88150000D01*
X159086956Y-88150000D01*
X159053929Y-88148377D01*
X159021219Y-88143525D01*
X158989143Y-88135491D01*
X158958009Y-88124351D01*
X158928116Y-88110213D01*
X158899753Y-88093213D01*
X158873193Y-88073515D01*
X158848692Y-88051308D01*
X158826485Y-88026807D01*
X158806787Y-88000247D01*
X158789787Y-87971884D01*
X158775649Y-87941991D01*
X158764509Y-87910857D01*
X158756475Y-87878781D01*
X158751623Y-87846071D01*
X158750000Y-87813044D01*
X158750000Y-86686956D01*
X158751623Y-86653929D01*
X158756475Y-86621219D01*
X158764509Y-86589143D01*
X158775649Y-86558009D01*
X158789787Y-86528116D01*
X158806787Y-86499753D01*
X158826485Y-86473193D01*
X158848692Y-86448692D01*
X158873193Y-86426485D01*
X158899753Y-86406787D01*
X158928116Y-86389787D01*
X158958009Y-86375649D01*
X158989143Y-86364509D01*
X159021219Y-86356475D01*
X159053929Y-86351623D01*
X159086956Y-86350000D01*
X159963044Y-86350000D01*
X159996071Y-86351623D01*
X159996071Y-86351623D01*
G37*
D12*
X159525000Y-87250000D03*
G04 #@! TD*
D11*
G04 #@! TO.C,C102*
G36*
X160611207Y-82976542D02*
X160642287Y-82981152D01*
X160672766Y-82988787D01*
X160702350Y-82999372D01*
X160730754Y-83012806D01*
X160757704Y-83028959D01*
X160782942Y-83047677D01*
X160806223Y-83068777D01*
X160827323Y-83092058D01*
X160846041Y-83117296D01*
X160862194Y-83144246D01*
X160875628Y-83172650D01*
X160886213Y-83202234D01*
X160893848Y-83232713D01*
X160898458Y-83263793D01*
X160900000Y-83295176D01*
X160900000Y-85704824D01*
X160898458Y-85736207D01*
X160893848Y-85767287D01*
X160886213Y-85797766D01*
X160875628Y-85827350D01*
X160862194Y-85855754D01*
X160846041Y-85882704D01*
X160827323Y-85907942D01*
X160806223Y-85931223D01*
X160782942Y-85952323D01*
X160757704Y-85971041D01*
X160730754Y-85987194D01*
X160702350Y-86000628D01*
X160672766Y-86011213D01*
X160642287Y-86018848D01*
X160611207Y-86023458D01*
X160579824Y-86025000D01*
X159395176Y-86025000D01*
X159363793Y-86023458D01*
X159332713Y-86018848D01*
X159302234Y-86011213D01*
X159272650Y-86000628D01*
X159244246Y-85987194D01*
X159217296Y-85971041D01*
X159192058Y-85952323D01*
X159168777Y-85931223D01*
X159147677Y-85907942D01*
X159128959Y-85882704D01*
X159112806Y-85855754D01*
X159099372Y-85827350D01*
X159088787Y-85797766D01*
X159081152Y-85767287D01*
X159076542Y-85736207D01*
X159075000Y-85704824D01*
X159075000Y-83295176D01*
X159076542Y-83263793D01*
X159081152Y-83232713D01*
X159088787Y-83202234D01*
X159099372Y-83172650D01*
X159112806Y-83144246D01*
X159128959Y-83117296D01*
X159147677Y-83092058D01*
X159168777Y-83068777D01*
X159192058Y-83047677D01*
X159217296Y-83028959D01*
X159244246Y-83012806D01*
X159272650Y-82999372D01*
X159302234Y-82988787D01*
X159332713Y-82981152D01*
X159363793Y-82976542D01*
X159395176Y-82975000D01*
X160579824Y-82975000D01*
X160611207Y-82976542D01*
X160611207Y-82976542D01*
G37*
D13*
X159987500Y-84500000D03*
D11*
G36*
X157636207Y-82976542D02*
X157667287Y-82981152D01*
X157697766Y-82988787D01*
X157727350Y-82999372D01*
X157755754Y-83012806D01*
X157782704Y-83028959D01*
X157807942Y-83047677D01*
X157831223Y-83068777D01*
X157852323Y-83092058D01*
X157871041Y-83117296D01*
X157887194Y-83144246D01*
X157900628Y-83172650D01*
X157911213Y-83202234D01*
X157918848Y-83232713D01*
X157923458Y-83263793D01*
X157925000Y-83295176D01*
X157925000Y-85704824D01*
X157923458Y-85736207D01*
X157918848Y-85767287D01*
X157911213Y-85797766D01*
X157900628Y-85827350D01*
X157887194Y-85855754D01*
X157871041Y-85882704D01*
X157852323Y-85907942D01*
X157831223Y-85931223D01*
X157807942Y-85952323D01*
X157782704Y-85971041D01*
X157755754Y-85987194D01*
X157727350Y-86000628D01*
X157697766Y-86011213D01*
X157667287Y-86018848D01*
X157636207Y-86023458D01*
X157604824Y-86025000D01*
X156420176Y-86025000D01*
X156388793Y-86023458D01*
X156357713Y-86018848D01*
X156327234Y-86011213D01*
X156297650Y-86000628D01*
X156269246Y-85987194D01*
X156242296Y-85971041D01*
X156217058Y-85952323D01*
X156193777Y-85931223D01*
X156172677Y-85907942D01*
X156153959Y-85882704D01*
X156137806Y-85855754D01*
X156124372Y-85827350D01*
X156113787Y-85797766D01*
X156106152Y-85767287D01*
X156101542Y-85736207D01*
X156100000Y-85704824D01*
X156100000Y-83295176D01*
X156101542Y-83263793D01*
X156106152Y-83232713D01*
X156113787Y-83202234D01*
X156124372Y-83172650D01*
X156137806Y-83144246D01*
X156153959Y-83117296D01*
X156172677Y-83092058D01*
X156193777Y-83068777D01*
X156217058Y-83047677D01*
X156242296Y-83028959D01*
X156269246Y-83012806D01*
X156297650Y-82999372D01*
X156327234Y-82988787D01*
X156357713Y-82981152D01*
X156388793Y-82976542D01*
X156420176Y-82975000D01*
X157604824Y-82975000D01*
X157636207Y-82976542D01*
X157636207Y-82976542D01*
G37*
D13*
X157012500Y-84500000D03*
G04 #@! TD*
D14*
G04 #@! TO.C,J101*
X168750000Y-97000000D03*
D15*
X168750000Y-94460000D03*
X168750000Y-91920000D03*
X168750000Y-89380000D03*
X168750000Y-86840000D03*
X168750000Y-84300000D03*
X168750000Y-81760000D03*
G04 #@! TD*
D16*
G04 #@! TO.C,U101*
X159450000Y-89595000D03*
X159450000Y-90865000D03*
X159450000Y-92135000D03*
X159450000Y-93405000D03*
X154050000Y-93405000D03*
X154050000Y-92135000D03*
X154050000Y-90865000D03*
X154050000Y-89595000D03*
G04 #@! TD*
D11*
G04 #@! TO.C,R103*
G36*
X151922071Y-92196623D02*
X151954781Y-92201475D01*
X151986857Y-92209509D01*
X152017991Y-92220649D01*
X152047884Y-92234787D01*
X152076247Y-92251787D01*
X152102807Y-92271485D01*
X152127308Y-92293692D01*
X152149515Y-92318193D01*
X152169213Y-92344753D01*
X152186213Y-92373116D01*
X152200351Y-92403009D01*
X152211491Y-92434143D01*
X152219525Y-92466219D01*
X152224377Y-92498929D01*
X152226000Y-92531956D01*
X152226000Y-93408044D01*
X152224377Y-93441071D01*
X152219525Y-93473781D01*
X152211491Y-93505857D01*
X152200351Y-93536991D01*
X152186213Y-93566884D01*
X152169213Y-93595247D01*
X152149515Y-93621807D01*
X152127308Y-93646308D01*
X152102807Y-93668515D01*
X152076247Y-93688213D01*
X152047884Y-93705213D01*
X152017991Y-93719351D01*
X151986857Y-93730491D01*
X151954781Y-93738525D01*
X151922071Y-93743377D01*
X151889044Y-93745000D01*
X150762956Y-93745000D01*
X150729929Y-93743377D01*
X150697219Y-93738525D01*
X150665143Y-93730491D01*
X150634009Y-93719351D01*
X150604116Y-93705213D01*
X150575753Y-93688213D01*
X150549193Y-93668515D01*
X150524692Y-93646308D01*
X150502485Y-93621807D01*
X150482787Y-93595247D01*
X150465787Y-93566884D01*
X150451649Y-93536991D01*
X150440509Y-93505857D01*
X150432475Y-93473781D01*
X150427623Y-93441071D01*
X150426000Y-93408044D01*
X150426000Y-92531956D01*
X150427623Y-92498929D01*
X150432475Y-92466219D01*
X150440509Y-92434143D01*
X150451649Y-92403009D01*
X150465787Y-92373116D01*
X150482787Y-92344753D01*
X150502485Y-92318193D01*
X150524692Y-92293692D01*
X150549193Y-92271485D01*
X150575753Y-92251787D01*
X150604116Y-92234787D01*
X150634009Y-92220649D01*
X150665143Y-92209509D01*
X150697219Y-92201475D01*
X150729929Y-92196623D01*
X150762956Y-92195000D01*
X151889044Y-92195000D01*
X151922071Y-92196623D01*
X151922071Y-92196623D01*
G37*
D12*
X151326000Y-92970000D03*
D11*
G36*
X151922071Y-90146623D02*
X151954781Y-90151475D01*
X151986857Y-90159509D01*
X152017991Y-90170649D01*
X152047884Y-90184787D01*
X152076247Y-90201787D01*
X152102807Y-90221485D01*
X152127308Y-90243692D01*
X152149515Y-90268193D01*
X152169213Y-90294753D01*
X152186213Y-90323116D01*
X152200351Y-90353009D01*
X152211491Y-90384143D01*
X152219525Y-90416219D01*
X152224377Y-90448929D01*
X152226000Y-90481956D01*
X152226000Y-91358044D01*
X152224377Y-91391071D01*
X152219525Y-91423781D01*
X152211491Y-91455857D01*
X152200351Y-91486991D01*
X152186213Y-91516884D01*
X152169213Y-91545247D01*
X152149515Y-91571807D01*
X152127308Y-91596308D01*
X152102807Y-91618515D01*
X152076247Y-91638213D01*
X152047884Y-91655213D01*
X152017991Y-91669351D01*
X151986857Y-91680491D01*
X151954781Y-91688525D01*
X151922071Y-91693377D01*
X151889044Y-91695000D01*
X150762956Y-91695000D01*
X150729929Y-91693377D01*
X150697219Y-91688525D01*
X150665143Y-91680491D01*
X150634009Y-91669351D01*
X150604116Y-91655213D01*
X150575753Y-91638213D01*
X150549193Y-91618515D01*
X150524692Y-91596308D01*
X150502485Y-91571807D01*
X150482787Y-91545247D01*
X150465787Y-91516884D01*
X150451649Y-91486991D01*
X150440509Y-91455857D01*
X150432475Y-91423781D01*
X150427623Y-91391071D01*
X150426000Y-91358044D01*
X150426000Y-90481956D01*
X150427623Y-90448929D01*
X150432475Y-90416219D01*
X150440509Y-90384143D01*
X150451649Y-90353009D01*
X150465787Y-90323116D01*
X150482787Y-90294753D01*
X150502485Y-90268193D01*
X150524692Y-90243692D01*
X150549193Y-90221485D01*
X150575753Y-90201787D01*
X150604116Y-90184787D01*
X150634009Y-90170649D01*
X150665143Y-90159509D01*
X150697219Y-90151475D01*
X150729929Y-90146623D01*
X150762956Y-90145000D01*
X151889044Y-90145000D01*
X151922071Y-90146623D01*
X151922071Y-90146623D01*
G37*
D12*
X151326000Y-90920000D03*
G04 #@! TD*
M02*
