G04 #@! TF.GenerationSoftware,KiCad,Pcbnew,5.0.0*
G04 #@! TF.CreationDate,2018-08-13T16:41:50-03:00*
G04 #@! TF.ProjectId,drv18,64727631382E6B696361645F70636200,rev?*
G04 #@! TF.SameCoordinates,Original*
G04 #@! TF.FileFunction,Paste,Bot*
G04 #@! TF.FilePolarity,Positive*
%FSLAX46Y46*%
G04 Gerber Fmt 4.6, Leading zero omitted, Abs format (unit mm)*
G04 Created by KiCad (PCBNEW 5.0.0) date Mon Aug 13 16:41:50 2018*
%MOMM*%
%LPD*%
G01*
G04 APERTURE LIST*
%ADD10R,1.700000X1.300000*%
%ADD11C,0.100000*%
%ADD12C,1.150000*%
%ADD13C,1.425000*%
%ADD14R,1.550000X0.600000*%
G04 APERTURE END LIST*
D10*
G04 #@! TO.C,D102*
X163000000Y-89000000D03*
X163000000Y-85500000D03*
G04 #@! TD*
D11*
G04 #@! TO.C,C103*
G36*
X163474505Y-90376204D02*
X163498773Y-90379804D01*
X163522572Y-90385765D01*
X163545671Y-90394030D01*
X163567850Y-90404520D01*
X163588893Y-90417132D01*
X163608599Y-90431747D01*
X163626777Y-90448223D01*
X163643253Y-90466401D01*
X163657868Y-90486107D01*
X163670480Y-90507150D01*
X163680970Y-90529329D01*
X163689235Y-90552428D01*
X163695196Y-90576227D01*
X163698796Y-90600495D01*
X163700000Y-90624999D01*
X163700000Y-91275001D01*
X163698796Y-91299505D01*
X163695196Y-91323773D01*
X163689235Y-91347572D01*
X163680970Y-91370671D01*
X163670480Y-91392850D01*
X163657868Y-91413893D01*
X163643253Y-91433599D01*
X163626777Y-91451777D01*
X163608599Y-91468253D01*
X163588893Y-91482868D01*
X163567850Y-91495480D01*
X163545671Y-91505970D01*
X163522572Y-91514235D01*
X163498773Y-91520196D01*
X163474505Y-91523796D01*
X163450001Y-91525000D01*
X162549999Y-91525000D01*
X162525495Y-91523796D01*
X162501227Y-91520196D01*
X162477428Y-91514235D01*
X162454329Y-91505970D01*
X162432150Y-91495480D01*
X162411107Y-91482868D01*
X162391401Y-91468253D01*
X162373223Y-91451777D01*
X162356747Y-91433599D01*
X162342132Y-91413893D01*
X162329520Y-91392850D01*
X162319030Y-91370671D01*
X162310765Y-91347572D01*
X162304804Y-91323773D01*
X162301204Y-91299505D01*
X162300000Y-91275001D01*
X162300000Y-90624999D01*
X162301204Y-90600495D01*
X162304804Y-90576227D01*
X162310765Y-90552428D01*
X162319030Y-90529329D01*
X162329520Y-90507150D01*
X162342132Y-90486107D01*
X162356747Y-90466401D01*
X162373223Y-90448223D01*
X162391401Y-90431747D01*
X162411107Y-90417132D01*
X162432150Y-90404520D01*
X162454329Y-90394030D01*
X162477428Y-90385765D01*
X162501227Y-90379804D01*
X162525495Y-90376204D01*
X162549999Y-90375000D01*
X163450001Y-90375000D01*
X163474505Y-90376204D01*
X163474505Y-90376204D01*
G37*
D12*
X163000000Y-90950000D03*
D11*
G36*
X163474505Y-92426204D02*
X163498773Y-92429804D01*
X163522572Y-92435765D01*
X163545671Y-92444030D01*
X163567850Y-92454520D01*
X163588893Y-92467132D01*
X163608599Y-92481747D01*
X163626777Y-92498223D01*
X163643253Y-92516401D01*
X163657868Y-92536107D01*
X163670480Y-92557150D01*
X163680970Y-92579329D01*
X163689235Y-92602428D01*
X163695196Y-92626227D01*
X163698796Y-92650495D01*
X163700000Y-92674999D01*
X163700000Y-93325001D01*
X163698796Y-93349505D01*
X163695196Y-93373773D01*
X163689235Y-93397572D01*
X163680970Y-93420671D01*
X163670480Y-93442850D01*
X163657868Y-93463893D01*
X163643253Y-93483599D01*
X163626777Y-93501777D01*
X163608599Y-93518253D01*
X163588893Y-93532868D01*
X163567850Y-93545480D01*
X163545671Y-93555970D01*
X163522572Y-93564235D01*
X163498773Y-93570196D01*
X163474505Y-93573796D01*
X163450001Y-93575000D01*
X162549999Y-93575000D01*
X162525495Y-93573796D01*
X162501227Y-93570196D01*
X162477428Y-93564235D01*
X162454329Y-93555970D01*
X162432150Y-93545480D01*
X162411107Y-93532868D01*
X162391401Y-93518253D01*
X162373223Y-93501777D01*
X162356747Y-93483599D01*
X162342132Y-93463893D01*
X162329520Y-93442850D01*
X162319030Y-93420671D01*
X162310765Y-93397572D01*
X162304804Y-93373773D01*
X162301204Y-93349505D01*
X162300000Y-93325001D01*
X162300000Y-92674999D01*
X162301204Y-92650495D01*
X162304804Y-92626227D01*
X162310765Y-92602428D01*
X162319030Y-92579329D01*
X162329520Y-92557150D01*
X162342132Y-92536107D01*
X162356747Y-92516401D01*
X162373223Y-92498223D01*
X162391401Y-92481747D01*
X162411107Y-92467132D01*
X162432150Y-92454520D01*
X162454329Y-92444030D01*
X162477428Y-92435765D01*
X162501227Y-92429804D01*
X162525495Y-92426204D01*
X162549999Y-92425000D01*
X163450001Y-92425000D01*
X163474505Y-92426204D01*
X163474505Y-92426204D01*
G37*
D12*
X163000000Y-93000000D03*
G04 #@! TD*
D11*
G04 #@! TO.C,C104*
G36*
X157824505Y-86551204D02*
X157848773Y-86554804D01*
X157872572Y-86560765D01*
X157895671Y-86569030D01*
X157917850Y-86579520D01*
X157938893Y-86592132D01*
X157958599Y-86606747D01*
X157976777Y-86623223D01*
X157993253Y-86641401D01*
X158007868Y-86661107D01*
X158020480Y-86682150D01*
X158030970Y-86704329D01*
X158039235Y-86727428D01*
X158045196Y-86751227D01*
X158048796Y-86775495D01*
X158050000Y-86799999D01*
X158050000Y-87700001D01*
X158048796Y-87724505D01*
X158045196Y-87748773D01*
X158039235Y-87772572D01*
X158030970Y-87795671D01*
X158020480Y-87817850D01*
X158007868Y-87838893D01*
X157993253Y-87858599D01*
X157976777Y-87876777D01*
X157958599Y-87893253D01*
X157938893Y-87907868D01*
X157917850Y-87920480D01*
X157895671Y-87930970D01*
X157872572Y-87939235D01*
X157848773Y-87945196D01*
X157824505Y-87948796D01*
X157800001Y-87950000D01*
X157149999Y-87950000D01*
X157125495Y-87948796D01*
X157101227Y-87945196D01*
X157077428Y-87939235D01*
X157054329Y-87930970D01*
X157032150Y-87920480D01*
X157011107Y-87907868D01*
X156991401Y-87893253D01*
X156973223Y-87876777D01*
X156956747Y-87858599D01*
X156942132Y-87838893D01*
X156929520Y-87817850D01*
X156919030Y-87795671D01*
X156910765Y-87772572D01*
X156904804Y-87748773D01*
X156901204Y-87724505D01*
X156900000Y-87700001D01*
X156900000Y-86799999D01*
X156901204Y-86775495D01*
X156904804Y-86751227D01*
X156910765Y-86727428D01*
X156919030Y-86704329D01*
X156929520Y-86682150D01*
X156942132Y-86661107D01*
X156956747Y-86641401D01*
X156973223Y-86623223D01*
X156991401Y-86606747D01*
X157011107Y-86592132D01*
X157032150Y-86579520D01*
X157054329Y-86569030D01*
X157077428Y-86560765D01*
X157101227Y-86554804D01*
X157125495Y-86551204D01*
X157149999Y-86550000D01*
X157800001Y-86550000D01*
X157824505Y-86551204D01*
X157824505Y-86551204D01*
G37*
D12*
X157475000Y-87250000D03*
D11*
G36*
X159874505Y-86551204D02*
X159898773Y-86554804D01*
X159922572Y-86560765D01*
X159945671Y-86569030D01*
X159967850Y-86579520D01*
X159988893Y-86592132D01*
X160008599Y-86606747D01*
X160026777Y-86623223D01*
X160043253Y-86641401D01*
X160057868Y-86661107D01*
X160070480Y-86682150D01*
X160080970Y-86704329D01*
X160089235Y-86727428D01*
X160095196Y-86751227D01*
X160098796Y-86775495D01*
X160100000Y-86799999D01*
X160100000Y-87700001D01*
X160098796Y-87724505D01*
X160095196Y-87748773D01*
X160089235Y-87772572D01*
X160080970Y-87795671D01*
X160070480Y-87817850D01*
X160057868Y-87838893D01*
X160043253Y-87858599D01*
X160026777Y-87876777D01*
X160008599Y-87893253D01*
X159988893Y-87907868D01*
X159967850Y-87920480D01*
X159945671Y-87930970D01*
X159922572Y-87939235D01*
X159898773Y-87945196D01*
X159874505Y-87948796D01*
X159850001Y-87950000D01*
X159199999Y-87950000D01*
X159175495Y-87948796D01*
X159151227Y-87945196D01*
X159127428Y-87939235D01*
X159104329Y-87930970D01*
X159082150Y-87920480D01*
X159061107Y-87907868D01*
X159041401Y-87893253D01*
X159023223Y-87876777D01*
X159006747Y-87858599D01*
X158992132Y-87838893D01*
X158979520Y-87817850D01*
X158969030Y-87795671D01*
X158960765Y-87772572D01*
X158954804Y-87748773D01*
X158951204Y-87724505D01*
X158950000Y-87700001D01*
X158950000Y-86799999D01*
X158951204Y-86775495D01*
X158954804Y-86751227D01*
X158960765Y-86727428D01*
X158969030Y-86704329D01*
X158979520Y-86682150D01*
X158992132Y-86661107D01*
X159006747Y-86641401D01*
X159023223Y-86623223D01*
X159041401Y-86606747D01*
X159061107Y-86592132D01*
X159082150Y-86579520D01*
X159104329Y-86569030D01*
X159127428Y-86560765D01*
X159151227Y-86554804D01*
X159175495Y-86551204D01*
X159199999Y-86550000D01*
X159850001Y-86550000D01*
X159874505Y-86551204D01*
X159874505Y-86551204D01*
G37*
D12*
X159525000Y-87250000D03*
G04 #@! TD*
D11*
G04 #@! TO.C,C102*
G36*
X160474504Y-83176204D02*
X160498773Y-83179804D01*
X160522571Y-83185765D01*
X160545671Y-83194030D01*
X160567849Y-83204520D01*
X160588893Y-83217133D01*
X160608598Y-83231747D01*
X160626777Y-83248223D01*
X160643253Y-83266402D01*
X160657867Y-83286107D01*
X160670480Y-83307151D01*
X160680970Y-83329329D01*
X160689235Y-83352429D01*
X160695196Y-83376227D01*
X160698796Y-83400496D01*
X160700000Y-83425000D01*
X160700000Y-85575000D01*
X160698796Y-85599504D01*
X160695196Y-85623773D01*
X160689235Y-85647571D01*
X160680970Y-85670671D01*
X160670480Y-85692849D01*
X160657867Y-85713893D01*
X160643253Y-85733598D01*
X160626777Y-85751777D01*
X160608598Y-85768253D01*
X160588893Y-85782867D01*
X160567849Y-85795480D01*
X160545671Y-85805970D01*
X160522571Y-85814235D01*
X160498773Y-85820196D01*
X160474504Y-85823796D01*
X160450000Y-85825000D01*
X159525000Y-85825000D01*
X159500496Y-85823796D01*
X159476227Y-85820196D01*
X159452429Y-85814235D01*
X159429329Y-85805970D01*
X159407151Y-85795480D01*
X159386107Y-85782867D01*
X159366402Y-85768253D01*
X159348223Y-85751777D01*
X159331747Y-85733598D01*
X159317133Y-85713893D01*
X159304520Y-85692849D01*
X159294030Y-85670671D01*
X159285765Y-85647571D01*
X159279804Y-85623773D01*
X159276204Y-85599504D01*
X159275000Y-85575000D01*
X159275000Y-83425000D01*
X159276204Y-83400496D01*
X159279804Y-83376227D01*
X159285765Y-83352429D01*
X159294030Y-83329329D01*
X159304520Y-83307151D01*
X159317133Y-83286107D01*
X159331747Y-83266402D01*
X159348223Y-83248223D01*
X159366402Y-83231747D01*
X159386107Y-83217133D01*
X159407151Y-83204520D01*
X159429329Y-83194030D01*
X159452429Y-83185765D01*
X159476227Y-83179804D01*
X159500496Y-83176204D01*
X159525000Y-83175000D01*
X160450000Y-83175000D01*
X160474504Y-83176204D01*
X160474504Y-83176204D01*
G37*
D13*
X159987500Y-84500000D03*
D11*
G36*
X157499504Y-83176204D02*
X157523773Y-83179804D01*
X157547571Y-83185765D01*
X157570671Y-83194030D01*
X157592849Y-83204520D01*
X157613893Y-83217133D01*
X157633598Y-83231747D01*
X157651777Y-83248223D01*
X157668253Y-83266402D01*
X157682867Y-83286107D01*
X157695480Y-83307151D01*
X157705970Y-83329329D01*
X157714235Y-83352429D01*
X157720196Y-83376227D01*
X157723796Y-83400496D01*
X157725000Y-83425000D01*
X157725000Y-85575000D01*
X157723796Y-85599504D01*
X157720196Y-85623773D01*
X157714235Y-85647571D01*
X157705970Y-85670671D01*
X157695480Y-85692849D01*
X157682867Y-85713893D01*
X157668253Y-85733598D01*
X157651777Y-85751777D01*
X157633598Y-85768253D01*
X157613893Y-85782867D01*
X157592849Y-85795480D01*
X157570671Y-85805970D01*
X157547571Y-85814235D01*
X157523773Y-85820196D01*
X157499504Y-85823796D01*
X157475000Y-85825000D01*
X156550000Y-85825000D01*
X156525496Y-85823796D01*
X156501227Y-85820196D01*
X156477429Y-85814235D01*
X156454329Y-85805970D01*
X156432151Y-85795480D01*
X156411107Y-85782867D01*
X156391402Y-85768253D01*
X156373223Y-85751777D01*
X156356747Y-85733598D01*
X156342133Y-85713893D01*
X156329520Y-85692849D01*
X156319030Y-85670671D01*
X156310765Y-85647571D01*
X156304804Y-85623773D01*
X156301204Y-85599504D01*
X156300000Y-85575000D01*
X156300000Y-83425000D01*
X156301204Y-83400496D01*
X156304804Y-83376227D01*
X156310765Y-83352429D01*
X156319030Y-83329329D01*
X156329520Y-83307151D01*
X156342133Y-83286107D01*
X156356747Y-83266402D01*
X156373223Y-83248223D01*
X156391402Y-83231747D01*
X156411107Y-83217133D01*
X156432151Y-83204520D01*
X156454329Y-83194030D01*
X156477429Y-83185765D01*
X156501227Y-83179804D01*
X156525496Y-83176204D01*
X156550000Y-83175000D01*
X157475000Y-83175000D01*
X157499504Y-83176204D01*
X157499504Y-83176204D01*
G37*
D13*
X157012500Y-84500000D03*
G04 #@! TD*
D14*
G04 #@! TO.C,U101*
X159450000Y-89595000D03*
X159450000Y-90865000D03*
X159450000Y-92135000D03*
X159450000Y-93405000D03*
X154050000Y-93405000D03*
X154050000Y-92135000D03*
X154050000Y-90865000D03*
X154050000Y-89595000D03*
G04 #@! TD*
D11*
G04 #@! TO.C,R103*
G36*
X151800505Y-92396204D02*
X151824773Y-92399804D01*
X151848572Y-92405765D01*
X151871671Y-92414030D01*
X151893850Y-92424520D01*
X151914893Y-92437132D01*
X151934599Y-92451747D01*
X151952777Y-92468223D01*
X151969253Y-92486401D01*
X151983868Y-92506107D01*
X151996480Y-92527150D01*
X152006970Y-92549329D01*
X152015235Y-92572428D01*
X152021196Y-92596227D01*
X152024796Y-92620495D01*
X152026000Y-92644999D01*
X152026000Y-93295001D01*
X152024796Y-93319505D01*
X152021196Y-93343773D01*
X152015235Y-93367572D01*
X152006970Y-93390671D01*
X151996480Y-93412850D01*
X151983868Y-93433893D01*
X151969253Y-93453599D01*
X151952777Y-93471777D01*
X151934599Y-93488253D01*
X151914893Y-93502868D01*
X151893850Y-93515480D01*
X151871671Y-93525970D01*
X151848572Y-93534235D01*
X151824773Y-93540196D01*
X151800505Y-93543796D01*
X151776001Y-93545000D01*
X150875999Y-93545000D01*
X150851495Y-93543796D01*
X150827227Y-93540196D01*
X150803428Y-93534235D01*
X150780329Y-93525970D01*
X150758150Y-93515480D01*
X150737107Y-93502868D01*
X150717401Y-93488253D01*
X150699223Y-93471777D01*
X150682747Y-93453599D01*
X150668132Y-93433893D01*
X150655520Y-93412850D01*
X150645030Y-93390671D01*
X150636765Y-93367572D01*
X150630804Y-93343773D01*
X150627204Y-93319505D01*
X150626000Y-93295001D01*
X150626000Y-92644999D01*
X150627204Y-92620495D01*
X150630804Y-92596227D01*
X150636765Y-92572428D01*
X150645030Y-92549329D01*
X150655520Y-92527150D01*
X150668132Y-92506107D01*
X150682747Y-92486401D01*
X150699223Y-92468223D01*
X150717401Y-92451747D01*
X150737107Y-92437132D01*
X150758150Y-92424520D01*
X150780329Y-92414030D01*
X150803428Y-92405765D01*
X150827227Y-92399804D01*
X150851495Y-92396204D01*
X150875999Y-92395000D01*
X151776001Y-92395000D01*
X151800505Y-92396204D01*
X151800505Y-92396204D01*
G37*
D12*
X151326000Y-92970000D03*
D11*
G36*
X151800505Y-90346204D02*
X151824773Y-90349804D01*
X151848572Y-90355765D01*
X151871671Y-90364030D01*
X151893850Y-90374520D01*
X151914893Y-90387132D01*
X151934599Y-90401747D01*
X151952777Y-90418223D01*
X151969253Y-90436401D01*
X151983868Y-90456107D01*
X151996480Y-90477150D01*
X152006970Y-90499329D01*
X152015235Y-90522428D01*
X152021196Y-90546227D01*
X152024796Y-90570495D01*
X152026000Y-90594999D01*
X152026000Y-91245001D01*
X152024796Y-91269505D01*
X152021196Y-91293773D01*
X152015235Y-91317572D01*
X152006970Y-91340671D01*
X151996480Y-91362850D01*
X151983868Y-91383893D01*
X151969253Y-91403599D01*
X151952777Y-91421777D01*
X151934599Y-91438253D01*
X151914893Y-91452868D01*
X151893850Y-91465480D01*
X151871671Y-91475970D01*
X151848572Y-91484235D01*
X151824773Y-91490196D01*
X151800505Y-91493796D01*
X151776001Y-91495000D01*
X150875999Y-91495000D01*
X150851495Y-91493796D01*
X150827227Y-91490196D01*
X150803428Y-91484235D01*
X150780329Y-91475970D01*
X150758150Y-91465480D01*
X150737107Y-91452868D01*
X150717401Y-91438253D01*
X150699223Y-91421777D01*
X150682747Y-91403599D01*
X150668132Y-91383893D01*
X150655520Y-91362850D01*
X150645030Y-91340671D01*
X150636765Y-91317572D01*
X150630804Y-91293773D01*
X150627204Y-91269505D01*
X150626000Y-91245001D01*
X150626000Y-90594999D01*
X150627204Y-90570495D01*
X150630804Y-90546227D01*
X150636765Y-90522428D01*
X150645030Y-90499329D01*
X150655520Y-90477150D01*
X150668132Y-90456107D01*
X150682747Y-90436401D01*
X150699223Y-90418223D01*
X150717401Y-90401747D01*
X150737107Y-90387132D01*
X150758150Y-90374520D01*
X150780329Y-90364030D01*
X150803428Y-90355765D01*
X150827227Y-90349804D01*
X150851495Y-90346204D01*
X150875999Y-90345000D01*
X151776001Y-90345000D01*
X151800505Y-90346204D01*
X151800505Y-90346204D01*
G37*
D12*
X151326000Y-90920000D03*
G04 #@! TD*
M02*
