G04 #@! TF.GenerationSoftware,KiCad,Pcbnew,5.0.0*
G04 #@! TF.CreationDate,2018-08-13T16:41:50-03:00*
G04 #@! TF.ProjectId,drv18,64727631382E6B696361645F70636200,rev?*
G04 #@! TF.SameCoordinates,Original*
G04 #@! TF.FileFunction,Soldermask,Top*
G04 #@! TF.FilePolarity,Negative*
%FSLAX46Y46*%
G04 Gerber Fmt 4.6, Leading zero omitted, Abs format (unit mm)*
G04 Created by KiCad (PCBNEW 5.0.0) date Mon Aug 13 16:41:50 2018*
%MOMM*%
%LPD*%
G01*
G04 APERTURE LIST*
%ADD10R,2.100000X1.700000*%
%ADD11R,2.900000X2.100000*%
%ADD12O,2.900000X2.100000*%
%ADD13C,0.100000*%
%ADD14C,1.550000*%
G04 APERTURE END LIST*
D10*
G04 #@! TO.C,D106*
X160750000Y-81500000D03*
X160750000Y-85000000D03*
G04 #@! TD*
G04 #@! TO.C,D107*
X163250000Y-85000000D03*
X163250000Y-81500000D03*
G04 #@! TD*
G04 #@! TO.C,D105*
X153250000Y-82250000D03*
X153250000Y-85750000D03*
G04 #@! TD*
G04 #@! TO.C,D103*
X160750000Y-94000000D03*
X160750000Y-97500000D03*
G04 #@! TD*
G04 #@! TO.C,D101*
X153250000Y-93250000D03*
X153250000Y-96750000D03*
G04 #@! TD*
G04 #@! TO.C,D104*
X163250000Y-97500000D03*
X163250000Y-94000000D03*
G04 #@! TD*
D11*
G04 #@! TO.C,J101*
X168750000Y-97000000D03*
D12*
X168750000Y-94460000D03*
X168750000Y-91920000D03*
X168750000Y-89380000D03*
X168750000Y-86840000D03*
X168750000Y-84300000D03*
X168750000Y-81760000D03*
G04 #@! TD*
D13*
G04 #@! TO.C,R105*
G36*
X159096071Y-82176623D02*
X159128781Y-82181475D01*
X159160857Y-82189509D01*
X159191991Y-82200649D01*
X159221884Y-82214787D01*
X159250247Y-82231787D01*
X159276807Y-82251485D01*
X159301308Y-82273692D01*
X159323515Y-82298193D01*
X159343213Y-82324753D01*
X159360213Y-82353116D01*
X159374351Y-82383009D01*
X159385491Y-82414143D01*
X159393525Y-82446219D01*
X159398377Y-82478929D01*
X159400000Y-82511956D01*
X159400000Y-83388044D01*
X159398377Y-83421071D01*
X159393525Y-83453781D01*
X159385491Y-83485857D01*
X159374351Y-83516991D01*
X159360213Y-83546884D01*
X159343213Y-83575247D01*
X159323515Y-83601807D01*
X159301308Y-83626308D01*
X159276807Y-83648515D01*
X159250247Y-83668213D01*
X159221884Y-83685213D01*
X159191991Y-83699351D01*
X159160857Y-83710491D01*
X159128781Y-83718525D01*
X159096071Y-83723377D01*
X159063044Y-83725000D01*
X157936956Y-83725000D01*
X157903929Y-83723377D01*
X157871219Y-83718525D01*
X157839143Y-83710491D01*
X157808009Y-83699351D01*
X157778116Y-83685213D01*
X157749753Y-83668213D01*
X157723193Y-83648515D01*
X157698692Y-83626308D01*
X157676485Y-83601807D01*
X157656787Y-83575247D01*
X157639787Y-83546884D01*
X157625649Y-83516991D01*
X157614509Y-83485857D01*
X157606475Y-83453781D01*
X157601623Y-83421071D01*
X157600000Y-83388044D01*
X157600000Y-82511956D01*
X157601623Y-82478929D01*
X157606475Y-82446219D01*
X157614509Y-82414143D01*
X157625649Y-82383009D01*
X157639787Y-82353116D01*
X157656787Y-82324753D01*
X157676485Y-82298193D01*
X157698692Y-82273692D01*
X157723193Y-82251485D01*
X157749753Y-82231787D01*
X157778116Y-82214787D01*
X157808009Y-82200649D01*
X157839143Y-82189509D01*
X157871219Y-82181475D01*
X157903929Y-82176623D01*
X157936956Y-82175000D01*
X159063044Y-82175000D01*
X159096071Y-82176623D01*
X159096071Y-82176623D01*
G37*
D14*
X158500000Y-82950000D03*
D13*
G36*
X159096071Y-84226623D02*
X159128781Y-84231475D01*
X159160857Y-84239509D01*
X159191991Y-84250649D01*
X159221884Y-84264787D01*
X159250247Y-84281787D01*
X159276807Y-84301485D01*
X159301308Y-84323692D01*
X159323515Y-84348193D01*
X159343213Y-84374753D01*
X159360213Y-84403116D01*
X159374351Y-84433009D01*
X159385491Y-84464143D01*
X159393525Y-84496219D01*
X159398377Y-84528929D01*
X159400000Y-84561956D01*
X159400000Y-85438044D01*
X159398377Y-85471071D01*
X159393525Y-85503781D01*
X159385491Y-85535857D01*
X159374351Y-85566991D01*
X159360213Y-85596884D01*
X159343213Y-85625247D01*
X159323515Y-85651807D01*
X159301308Y-85676308D01*
X159276807Y-85698515D01*
X159250247Y-85718213D01*
X159221884Y-85735213D01*
X159191991Y-85749351D01*
X159160857Y-85760491D01*
X159128781Y-85768525D01*
X159096071Y-85773377D01*
X159063044Y-85775000D01*
X157936956Y-85775000D01*
X157903929Y-85773377D01*
X157871219Y-85768525D01*
X157839143Y-85760491D01*
X157808009Y-85749351D01*
X157778116Y-85735213D01*
X157749753Y-85718213D01*
X157723193Y-85698515D01*
X157698692Y-85676308D01*
X157676485Y-85651807D01*
X157656787Y-85625247D01*
X157639787Y-85596884D01*
X157625649Y-85566991D01*
X157614509Y-85535857D01*
X157606475Y-85503781D01*
X157601623Y-85471071D01*
X157600000Y-85438044D01*
X157600000Y-84561956D01*
X157601623Y-84528929D01*
X157606475Y-84496219D01*
X157614509Y-84464143D01*
X157625649Y-84433009D01*
X157639787Y-84403116D01*
X157656787Y-84374753D01*
X157676485Y-84348193D01*
X157698692Y-84323692D01*
X157723193Y-84301485D01*
X157749753Y-84281787D01*
X157778116Y-84264787D01*
X157808009Y-84250649D01*
X157839143Y-84239509D01*
X157871219Y-84231475D01*
X157903929Y-84226623D01*
X157936956Y-84225000D01*
X159063044Y-84225000D01*
X159096071Y-84226623D01*
X159096071Y-84226623D01*
G37*
D14*
X158500000Y-85000000D03*
G04 #@! TD*
D13*
G04 #@! TO.C,R101*
G36*
X158846071Y-93226623D02*
X158878781Y-93231475D01*
X158910857Y-93239509D01*
X158941991Y-93250649D01*
X158971884Y-93264787D01*
X159000247Y-93281787D01*
X159026807Y-93301485D01*
X159051308Y-93323692D01*
X159073515Y-93348193D01*
X159093213Y-93374753D01*
X159110213Y-93403116D01*
X159124351Y-93433009D01*
X159135491Y-93464143D01*
X159143525Y-93496219D01*
X159148377Y-93528929D01*
X159150000Y-93561956D01*
X159150000Y-94438044D01*
X159148377Y-94471071D01*
X159143525Y-94503781D01*
X159135491Y-94535857D01*
X159124351Y-94566991D01*
X159110213Y-94596884D01*
X159093213Y-94625247D01*
X159073515Y-94651807D01*
X159051308Y-94676308D01*
X159026807Y-94698515D01*
X159000247Y-94718213D01*
X158971884Y-94735213D01*
X158941991Y-94749351D01*
X158910857Y-94760491D01*
X158878781Y-94768525D01*
X158846071Y-94773377D01*
X158813044Y-94775000D01*
X157686956Y-94775000D01*
X157653929Y-94773377D01*
X157621219Y-94768525D01*
X157589143Y-94760491D01*
X157558009Y-94749351D01*
X157528116Y-94735213D01*
X157499753Y-94718213D01*
X157473193Y-94698515D01*
X157448692Y-94676308D01*
X157426485Y-94651807D01*
X157406787Y-94625247D01*
X157389787Y-94596884D01*
X157375649Y-94566991D01*
X157364509Y-94535857D01*
X157356475Y-94503781D01*
X157351623Y-94471071D01*
X157350000Y-94438044D01*
X157350000Y-93561956D01*
X157351623Y-93528929D01*
X157356475Y-93496219D01*
X157364509Y-93464143D01*
X157375649Y-93433009D01*
X157389787Y-93403116D01*
X157406787Y-93374753D01*
X157426485Y-93348193D01*
X157448692Y-93323692D01*
X157473193Y-93301485D01*
X157499753Y-93281787D01*
X157528116Y-93264787D01*
X157558009Y-93250649D01*
X157589143Y-93239509D01*
X157621219Y-93231475D01*
X157653929Y-93226623D01*
X157686956Y-93225000D01*
X158813044Y-93225000D01*
X158846071Y-93226623D01*
X158846071Y-93226623D01*
G37*
D14*
X158250000Y-94000000D03*
D13*
G36*
X158846071Y-91176623D02*
X158878781Y-91181475D01*
X158910857Y-91189509D01*
X158941991Y-91200649D01*
X158971884Y-91214787D01*
X159000247Y-91231787D01*
X159026807Y-91251485D01*
X159051308Y-91273692D01*
X159073515Y-91298193D01*
X159093213Y-91324753D01*
X159110213Y-91353116D01*
X159124351Y-91383009D01*
X159135491Y-91414143D01*
X159143525Y-91446219D01*
X159148377Y-91478929D01*
X159150000Y-91511956D01*
X159150000Y-92388044D01*
X159148377Y-92421071D01*
X159143525Y-92453781D01*
X159135491Y-92485857D01*
X159124351Y-92516991D01*
X159110213Y-92546884D01*
X159093213Y-92575247D01*
X159073515Y-92601807D01*
X159051308Y-92626308D01*
X159026807Y-92648515D01*
X159000247Y-92668213D01*
X158971884Y-92685213D01*
X158941991Y-92699351D01*
X158910857Y-92710491D01*
X158878781Y-92718525D01*
X158846071Y-92723377D01*
X158813044Y-92725000D01*
X157686956Y-92725000D01*
X157653929Y-92723377D01*
X157621219Y-92718525D01*
X157589143Y-92710491D01*
X157558009Y-92699351D01*
X157528116Y-92685213D01*
X157499753Y-92668213D01*
X157473193Y-92648515D01*
X157448692Y-92626308D01*
X157426485Y-92601807D01*
X157406787Y-92575247D01*
X157389787Y-92546884D01*
X157375649Y-92516991D01*
X157364509Y-92485857D01*
X157356475Y-92453781D01*
X157351623Y-92421071D01*
X157350000Y-92388044D01*
X157350000Y-91511956D01*
X157351623Y-91478929D01*
X157356475Y-91446219D01*
X157364509Y-91414143D01*
X157375649Y-91383009D01*
X157389787Y-91353116D01*
X157406787Y-91324753D01*
X157426485Y-91298193D01*
X157448692Y-91273692D01*
X157473193Y-91251485D01*
X157499753Y-91231787D01*
X157528116Y-91214787D01*
X157558009Y-91200649D01*
X157589143Y-91189509D01*
X157621219Y-91181475D01*
X157653929Y-91176623D01*
X157686956Y-91175000D01*
X158813044Y-91175000D01*
X158846071Y-91176623D01*
X158846071Y-91176623D01*
G37*
D14*
X158250000Y-91950000D03*
G04 #@! TD*
D13*
G04 #@! TO.C,R102*
G36*
X156346071Y-93201623D02*
X156378781Y-93206475D01*
X156410857Y-93214509D01*
X156441991Y-93225649D01*
X156471884Y-93239787D01*
X156500247Y-93256787D01*
X156526807Y-93276485D01*
X156551308Y-93298692D01*
X156573515Y-93323193D01*
X156593213Y-93349753D01*
X156610213Y-93378116D01*
X156624351Y-93408009D01*
X156635491Y-93439143D01*
X156643525Y-93471219D01*
X156648377Y-93503929D01*
X156650000Y-93536956D01*
X156650000Y-94413044D01*
X156648377Y-94446071D01*
X156643525Y-94478781D01*
X156635491Y-94510857D01*
X156624351Y-94541991D01*
X156610213Y-94571884D01*
X156593213Y-94600247D01*
X156573515Y-94626807D01*
X156551308Y-94651308D01*
X156526807Y-94673515D01*
X156500247Y-94693213D01*
X156471884Y-94710213D01*
X156441991Y-94724351D01*
X156410857Y-94735491D01*
X156378781Y-94743525D01*
X156346071Y-94748377D01*
X156313044Y-94750000D01*
X155186956Y-94750000D01*
X155153929Y-94748377D01*
X155121219Y-94743525D01*
X155089143Y-94735491D01*
X155058009Y-94724351D01*
X155028116Y-94710213D01*
X154999753Y-94693213D01*
X154973193Y-94673515D01*
X154948692Y-94651308D01*
X154926485Y-94626807D01*
X154906787Y-94600247D01*
X154889787Y-94571884D01*
X154875649Y-94541991D01*
X154864509Y-94510857D01*
X154856475Y-94478781D01*
X154851623Y-94446071D01*
X154850000Y-94413044D01*
X154850000Y-93536956D01*
X154851623Y-93503929D01*
X154856475Y-93471219D01*
X154864509Y-93439143D01*
X154875649Y-93408009D01*
X154889787Y-93378116D01*
X154906787Y-93349753D01*
X154926485Y-93323193D01*
X154948692Y-93298692D01*
X154973193Y-93276485D01*
X154999753Y-93256787D01*
X155028116Y-93239787D01*
X155058009Y-93225649D01*
X155089143Y-93214509D01*
X155121219Y-93206475D01*
X155153929Y-93201623D01*
X155186956Y-93200000D01*
X156313044Y-93200000D01*
X156346071Y-93201623D01*
X156346071Y-93201623D01*
G37*
D14*
X155750000Y-93975000D03*
D13*
G36*
X156346071Y-95251623D02*
X156378781Y-95256475D01*
X156410857Y-95264509D01*
X156441991Y-95275649D01*
X156471884Y-95289787D01*
X156500247Y-95306787D01*
X156526807Y-95326485D01*
X156551308Y-95348692D01*
X156573515Y-95373193D01*
X156593213Y-95399753D01*
X156610213Y-95428116D01*
X156624351Y-95458009D01*
X156635491Y-95489143D01*
X156643525Y-95521219D01*
X156648377Y-95553929D01*
X156650000Y-95586956D01*
X156650000Y-96463044D01*
X156648377Y-96496071D01*
X156643525Y-96528781D01*
X156635491Y-96560857D01*
X156624351Y-96591991D01*
X156610213Y-96621884D01*
X156593213Y-96650247D01*
X156573515Y-96676807D01*
X156551308Y-96701308D01*
X156526807Y-96723515D01*
X156500247Y-96743213D01*
X156471884Y-96760213D01*
X156441991Y-96774351D01*
X156410857Y-96785491D01*
X156378781Y-96793525D01*
X156346071Y-96798377D01*
X156313044Y-96800000D01*
X155186956Y-96800000D01*
X155153929Y-96798377D01*
X155121219Y-96793525D01*
X155089143Y-96785491D01*
X155058009Y-96774351D01*
X155028116Y-96760213D01*
X154999753Y-96743213D01*
X154973193Y-96723515D01*
X154948692Y-96701308D01*
X154926485Y-96676807D01*
X154906787Y-96650247D01*
X154889787Y-96621884D01*
X154875649Y-96591991D01*
X154864509Y-96560857D01*
X154856475Y-96528781D01*
X154851623Y-96496071D01*
X154850000Y-96463044D01*
X154850000Y-95586956D01*
X154851623Y-95553929D01*
X154856475Y-95521219D01*
X154864509Y-95489143D01*
X154875649Y-95458009D01*
X154889787Y-95428116D01*
X154906787Y-95399753D01*
X154926485Y-95373193D01*
X154948692Y-95348692D01*
X154973193Y-95326485D01*
X154999753Y-95306787D01*
X155028116Y-95289787D01*
X155058009Y-95275649D01*
X155089143Y-95264509D01*
X155121219Y-95256475D01*
X155153929Y-95251623D01*
X155186956Y-95250000D01*
X156313044Y-95250000D01*
X156346071Y-95251623D01*
X156346071Y-95251623D01*
G37*
D14*
X155750000Y-96025000D03*
G04 #@! TD*
D13*
G04 #@! TO.C,R104*
G36*
X156346071Y-84251623D02*
X156378781Y-84256475D01*
X156410857Y-84264509D01*
X156441991Y-84275649D01*
X156471884Y-84289787D01*
X156500247Y-84306787D01*
X156526807Y-84326485D01*
X156551308Y-84348692D01*
X156573515Y-84373193D01*
X156593213Y-84399753D01*
X156610213Y-84428116D01*
X156624351Y-84458009D01*
X156635491Y-84489143D01*
X156643525Y-84521219D01*
X156648377Y-84553929D01*
X156650000Y-84586956D01*
X156650000Y-85463044D01*
X156648377Y-85496071D01*
X156643525Y-85528781D01*
X156635491Y-85560857D01*
X156624351Y-85591991D01*
X156610213Y-85621884D01*
X156593213Y-85650247D01*
X156573515Y-85676807D01*
X156551308Y-85701308D01*
X156526807Y-85723515D01*
X156500247Y-85743213D01*
X156471884Y-85760213D01*
X156441991Y-85774351D01*
X156410857Y-85785491D01*
X156378781Y-85793525D01*
X156346071Y-85798377D01*
X156313044Y-85800000D01*
X155186956Y-85800000D01*
X155153929Y-85798377D01*
X155121219Y-85793525D01*
X155089143Y-85785491D01*
X155058009Y-85774351D01*
X155028116Y-85760213D01*
X154999753Y-85743213D01*
X154973193Y-85723515D01*
X154948692Y-85701308D01*
X154926485Y-85676807D01*
X154906787Y-85650247D01*
X154889787Y-85621884D01*
X154875649Y-85591991D01*
X154864509Y-85560857D01*
X154856475Y-85528781D01*
X154851623Y-85496071D01*
X154850000Y-85463044D01*
X154850000Y-84586956D01*
X154851623Y-84553929D01*
X154856475Y-84521219D01*
X154864509Y-84489143D01*
X154875649Y-84458009D01*
X154889787Y-84428116D01*
X154906787Y-84399753D01*
X154926485Y-84373193D01*
X154948692Y-84348692D01*
X154973193Y-84326485D01*
X154999753Y-84306787D01*
X155028116Y-84289787D01*
X155058009Y-84275649D01*
X155089143Y-84264509D01*
X155121219Y-84256475D01*
X155153929Y-84251623D01*
X155186956Y-84250000D01*
X156313044Y-84250000D01*
X156346071Y-84251623D01*
X156346071Y-84251623D01*
G37*
D14*
X155750000Y-85025000D03*
D13*
G36*
X156346071Y-82201623D02*
X156378781Y-82206475D01*
X156410857Y-82214509D01*
X156441991Y-82225649D01*
X156471884Y-82239787D01*
X156500247Y-82256787D01*
X156526807Y-82276485D01*
X156551308Y-82298692D01*
X156573515Y-82323193D01*
X156593213Y-82349753D01*
X156610213Y-82378116D01*
X156624351Y-82408009D01*
X156635491Y-82439143D01*
X156643525Y-82471219D01*
X156648377Y-82503929D01*
X156650000Y-82536956D01*
X156650000Y-83413044D01*
X156648377Y-83446071D01*
X156643525Y-83478781D01*
X156635491Y-83510857D01*
X156624351Y-83541991D01*
X156610213Y-83571884D01*
X156593213Y-83600247D01*
X156573515Y-83626807D01*
X156551308Y-83651308D01*
X156526807Y-83673515D01*
X156500247Y-83693213D01*
X156471884Y-83710213D01*
X156441991Y-83724351D01*
X156410857Y-83735491D01*
X156378781Y-83743525D01*
X156346071Y-83748377D01*
X156313044Y-83750000D01*
X155186956Y-83750000D01*
X155153929Y-83748377D01*
X155121219Y-83743525D01*
X155089143Y-83735491D01*
X155058009Y-83724351D01*
X155028116Y-83710213D01*
X154999753Y-83693213D01*
X154973193Y-83673515D01*
X154948692Y-83651308D01*
X154926485Y-83626807D01*
X154906787Y-83600247D01*
X154889787Y-83571884D01*
X154875649Y-83541991D01*
X154864509Y-83510857D01*
X154856475Y-83478781D01*
X154851623Y-83446071D01*
X154850000Y-83413044D01*
X154850000Y-82536956D01*
X154851623Y-82503929D01*
X154856475Y-82471219D01*
X154864509Y-82439143D01*
X154875649Y-82408009D01*
X154889787Y-82378116D01*
X154906787Y-82349753D01*
X154926485Y-82323193D01*
X154948692Y-82298692D01*
X154973193Y-82276485D01*
X154999753Y-82256787D01*
X155028116Y-82239787D01*
X155058009Y-82225649D01*
X155089143Y-82214509D01*
X155121219Y-82206475D01*
X155153929Y-82201623D01*
X155186956Y-82200000D01*
X156313044Y-82200000D01*
X156346071Y-82201623D01*
X156346071Y-82201623D01*
G37*
D14*
X155750000Y-82975000D03*
G04 #@! TD*
M02*
