G04 #@! TF.GenerationSoftware,KiCad,Pcbnew,5.0.0*
G04 #@! TF.CreationDate,2018-08-13T16:41:50-03:00*
G04 #@! TF.ProjectId,drv18,64727631382E6B696361645F70636200,rev?*
G04 #@! TF.SameCoordinates,Original*
G04 #@! TF.FileFunction,Copper,L1,Top,Signal*
G04 #@! TF.FilePolarity,Positive*
%FSLAX46Y46*%
G04 Gerber Fmt 4.6, Leading zero omitted, Abs format (unit mm)*
G04 Created by KiCad (PCBNEW 5.0.0) date Mon Aug 13 16:41:50 2018*
%MOMM*%
%LPD*%
G01*
G04 APERTURE LIST*
G04 #@! TA.AperFunction,SMDPad,CuDef*
%ADD10R,1.700000X1.300000*%
G04 #@! TD*
G04 #@! TA.AperFunction,ComponentPad*
%ADD11R,2.500000X1.700000*%
G04 #@! TD*
G04 #@! TA.AperFunction,ComponentPad*
%ADD12O,2.500000X1.700000*%
G04 #@! TD*
G04 #@! TA.AperFunction,Conductor*
%ADD13C,0.100000*%
G04 #@! TD*
G04 #@! TA.AperFunction,SMDPad,CuDef*
%ADD14C,1.150000*%
G04 #@! TD*
G04 #@! TA.AperFunction,ViaPad*
%ADD15C,1.500000*%
G04 #@! TD*
G04 #@! TA.AperFunction,Conductor*
%ADD16C,0.508000*%
G04 #@! TD*
G04 #@! TA.AperFunction,Conductor*
%ADD17C,0.254000*%
G04 #@! TD*
G04 APERTURE END LIST*
D10*
G04 #@! TO.P,D106,1*
G04 #@! TO.N,Net-(D106-Pad1)*
X160750000Y-81500000D03*
G04 #@! TO.P,D106,2*
G04 #@! TO.N,/LG*
X160750000Y-85000000D03*
G04 #@! TD*
G04 #@! TO.P,D107,2*
G04 #@! TO.N,GND*
X163250000Y-85000000D03*
G04 #@! TO.P,D107,1*
G04 #@! TO.N,Net-(D106-Pad1)*
X163250000Y-81500000D03*
G04 #@! TD*
G04 #@! TO.P,D105,1*
G04 #@! TO.N,Net-(D105-Pad1)*
X153250000Y-82250000D03*
G04 #@! TO.P,D105,2*
G04 #@! TO.N,/LG*
X153250000Y-85750000D03*
G04 #@! TD*
G04 #@! TO.P,D103,2*
G04 #@! TO.N,/HG*
X160750000Y-94000000D03*
G04 #@! TO.P,D103,1*
G04 #@! TO.N,Net-(D103-Pad1)*
X160750000Y-97500000D03*
G04 #@! TD*
G04 #@! TO.P,D101,2*
G04 #@! TO.N,/HG*
X153250000Y-93250000D03*
G04 #@! TO.P,D101,1*
G04 #@! TO.N,Net-(D101-Pad1)*
X153250000Y-96750000D03*
G04 #@! TD*
G04 #@! TO.P,D104,1*
G04 #@! TO.N,Net-(D103-Pad1)*
X163250000Y-97500000D03*
G04 #@! TO.P,D104,2*
G04 #@! TO.N,/HS*
X163250000Y-94000000D03*
G04 #@! TD*
D11*
G04 #@! TO.P,J101,1*
G04 #@! TO.N,/HG*
X168750000Y-97000000D03*
D12*
G04 #@! TO.P,J101,2*
G04 #@! TO.N,/HS*
X168750000Y-94460000D03*
G04 #@! TO.P,J101,3*
G04 #@! TO.N,/LG*
X168750000Y-91920000D03*
G04 #@! TO.P,J101,4*
G04 #@! TO.N,GND*
X168750000Y-89380000D03*
G04 #@! TO.P,J101,5*
G04 #@! TO.N,+12V*
X168750000Y-86840000D03*
G04 #@! TO.P,J101,6*
G04 #@! TO.N,/PWM_IN*
X168750000Y-84300000D03*
G04 #@! TO.P,J101,7*
G04 #@! TO.N,GND*
X168750000Y-81760000D03*
G04 #@! TD*
D13*
G04 #@! TO.N,GND*
G04 #@! TO.C,R105*
G36*
X158974505Y-82376204D02*
X158998773Y-82379804D01*
X159022572Y-82385765D01*
X159045671Y-82394030D01*
X159067850Y-82404520D01*
X159088893Y-82417132D01*
X159108599Y-82431747D01*
X159126777Y-82448223D01*
X159143253Y-82466401D01*
X159157868Y-82486107D01*
X159170480Y-82507150D01*
X159180970Y-82529329D01*
X159189235Y-82552428D01*
X159195196Y-82576227D01*
X159198796Y-82600495D01*
X159200000Y-82624999D01*
X159200000Y-83275001D01*
X159198796Y-83299505D01*
X159195196Y-83323773D01*
X159189235Y-83347572D01*
X159180970Y-83370671D01*
X159170480Y-83392850D01*
X159157868Y-83413893D01*
X159143253Y-83433599D01*
X159126777Y-83451777D01*
X159108599Y-83468253D01*
X159088893Y-83482868D01*
X159067850Y-83495480D01*
X159045671Y-83505970D01*
X159022572Y-83514235D01*
X158998773Y-83520196D01*
X158974505Y-83523796D01*
X158950001Y-83525000D01*
X158049999Y-83525000D01*
X158025495Y-83523796D01*
X158001227Y-83520196D01*
X157977428Y-83514235D01*
X157954329Y-83505970D01*
X157932150Y-83495480D01*
X157911107Y-83482868D01*
X157891401Y-83468253D01*
X157873223Y-83451777D01*
X157856747Y-83433599D01*
X157842132Y-83413893D01*
X157829520Y-83392850D01*
X157819030Y-83370671D01*
X157810765Y-83347572D01*
X157804804Y-83323773D01*
X157801204Y-83299505D01*
X157800000Y-83275001D01*
X157800000Y-82624999D01*
X157801204Y-82600495D01*
X157804804Y-82576227D01*
X157810765Y-82552428D01*
X157819030Y-82529329D01*
X157829520Y-82507150D01*
X157842132Y-82486107D01*
X157856747Y-82466401D01*
X157873223Y-82448223D01*
X157891401Y-82431747D01*
X157911107Y-82417132D01*
X157932150Y-82404520D01*
X157954329Y-82394030D01*
X157977428Y-82385765D01*
X158001227Y-82379804D01*
X158025495Y-82376204D01*
X158049999Y-82375000D01*
X158950001Y-82375000D01*
X158974505Y-82376204D01*
X158974505Y-82376204D01*
G37*
D14*
G04 #@! TD*
G04 #@! TO.P,R105,2*
G04 #@! TO.N,GND*
X158500000Y-82950000D03*
D13*
G04 #@! TO.N,/LG*
G04 #@! TO.C,R105*
G36*
X158974505Y-84426204D02*
X158998773Y-84429804D01*
X159022572Y-84435765D01*
X159045671Y-84444030D01*
X159067850Y-84454520D01*
X159088893Y-84467132D01*
X159108599Y-84481747D01*
X159126777Y-84498223D01*
X159143253Y-84516401D01*
X159157868Y-84536107D01*
X159170480Y-84557150D01*
X159180970Y-84579329D01*
X159189235Y-84602428D01*
X159195196Y-84626227D01*
X159198796Y-84650495D01*
X159200000Y-84674999D01*
X159200000Y-85325001D01*
X159198796Y-85349505D01*
X159195196Y-85373773D01*
X159189235Y-85397572D01*
X159180970Y-85420671D01*
X159170480Y-85442850D01*
X159157868Y-85463893D01*
X159143253Y-85483599D01*
X159126777Y-85501777D01*
X159108599Y-85518253D01*
X159088893Y-85532868D01*
X159067850Y-85545480D01*
X159045671Y-85555970D01*
X159022572Y-85564235D01*
X158998773Y-85570196D01*
X158974505Y-85573796D01*
X158950001Y-85575000D01*
X158049999Y-85575000D01*
X158025495Y-85573796D01*
X158001227Y-85570196D01*
X157977428Y-85564235D01*
X157954329Y-85555970D01*
X157932150Y-85545480D01*
X157911107Y-85532868D01*
X157891401Y-85518253D01*
X157873223Y-85501777D01*
X157856747Y-85483599D01*
X157842132Y-85463893D01*
X157829520Y-85442850D01*
X157819030Y-85420671D01*
X157810765Y-85397572D01*
X157804804Y-85373773D01*
X157801204Y-85349505D01*
X157800000Y-85325001D01*
X157800000Y-84674999D01*
X157801204Y-84650495D01*
X157804804Y-84626227D01*
X157810765Y-84602428D01*
X157819030Y-84579329D01*
X157829520Y-84557150D01*
X157842132Y-84536107D01*
X157856747Y-84516401D01*
X157873223Y-84498223D01*
X157891401Y-84481747D01*
X157911107Y-84467132D01*
X157932150Y-84454520D01*
X157954329Y-84444030D01*
X157977428Y-84435765D01*
X158001227Y-84429804D01*
X158025495Y-84426204D01*
X158049999Y-84425000D01*
X158950001Y-84425000D01*
X158974505Y-84426204D01*
X158974505Y-84426204D01*
G37*
D14*
G04 #@! TD*
G04 #@! TO.P,R105,1*
G04 #@! TO.N,/LG*
X158500000Y-85000000D03*
D13*
G04 #@! TO.N,/HG*
G04 #@! TO.C,R101*
G36*
X158724505Y-93426204D02*
X158748773Y-93429804D01*
X158772572Y-93435765D01*
X158795671Y-93444030D01*
X158817850Y-93454520D01*
X158838893Y-93467132D01*
X158858599Y-93481747D01*
X158876777Y-93498223D01*
X158893253Y-93516401D01*
X158907868Y-93536107D01*
X158920480Y-93557150D01*
X158930970Y-93579329D01*
X158939235Y-93602428D01*
X158945196Y-93626227D01*
X158948796Y-93650495D01*
X158950000Y-93674999D01*
X158950000Y-94325001D01*
X158948796Y-94349505D01*
X158945196Y-94373773D01*
X158939235Y-94397572D01*
X158930970Y-94420671D01*
X158920480Y-94442850D01*
X158907868Y-94463893D01*
X158893253Y-94483599D01*
X158876777Y-94501777D01*
X158858599Y-94518253D01*
X158838893Y-94532868D01*
X158817850Y-94545480D01*
X158795671Y-94555970D01*
X158772572Y-94564235D01*
X158748773Y-94570196D01*
X158724505Y-94573796D01*
X158700001Y-94575000D01*
X157799999Y-94575000D01*
X157775495Y-94573796D01*
X157751227Y-94570196D01*
X157727428Y-94564235D01*
X157704329Y-94555970D01*
X157682150Y-94545480D01*
X157661107Y-94532868D01*
X157641401Y-94518253D01*
X157623223Y-94501777D01*
X157606747Y-94483599D01*
X157592132Y-94463893D01*
X157579520Y-94442850D01*
X157569030Y-94420671D01*
X157560765Y-94397572D01*
X157554804Y-94373773D01*
X157551204Y-94349505D01*
X157550000Y-94325001D01*
X157550000Y-93674999D01*
X157551204Y-93650495D01*
X157554804Y-93626227D01*
X157560765Y-93602428D01*
X157569030Y-93579329D01*
X157579520Y-93557150D01*
X157592132Y-93536107D01*
X157606747Y-93516401D01*
X157623223Y-93498223D01*
X157641401Y-93481747D01*
X157661107Y-93467132D01*
X157682150Y-93454520D01*
X157704329Y-93444030D01*
X157727428Y-93435765D01*
X157751227Y-93429804D01*
X157775495Y-93426204D01*
X157799999Y-93425000D01*
X158700001Y-93425000D01*
X158724505Y-93426204D01*
X158724505Y-93426204D01*
G37*
D14*
G04 #@! TD*
G04 #@! TO.P,R101,2*
G04 #@! TO.N,/HG*
X158250000Y-94000000D03*
D13*
G04 #@! TO.N,/HS*
G04 #@! TO.C,R101*
G36*
X158724505Y-91376204D02*
X158748773Y-91379804D01*
X158772572Y-91385765D01*
X158795671Y-91394030D01*
X158817850Y-91404520D01*
X158838893Y-91417132D01*
X158858599Y-91431747D01*
X158876777Y-91448223D01*
X158893253Y-91466401D01*
X158907868Y-91486107D01*
X158920480Y-91507150D01*
X158930970Y-91529329D01*
X158939235Y-91552428D01*
X158945196Y-91576227D01*
X158948796Y-91600495D01*
X158950000Y-91624999D01*
X158950000Y-92275001D01*
X158948796Y-92299505D01*
X158945196Y-92323773D01*
X158939235Y-92347572D01*
X158930970Y-92370671D01*
X158920480Y-92392850D01*
X158907868Y-92413893D01*
X158893253Y-92433599D01*
X158876777Y-92451777D01*
X158858599Y-92468253D01*
X158838893Y-92482868D01*
X158817850Y-92495480D01*
X158795671Y-92505970D01*
X158772572Y-92514235D01*
X158748773Y-92520196D01*
X158724505Y-92523796D01*
X158700001Y-92525000D01*
X157799999Y-92525000D01*
X157775495Y-92523796D01*
X157751227Y-92520196D01*
X157727428Y-92514235D01*
X157704329Y-92505970D01*
X157682150Y-92495480D01*
X157661107Y-92482868D01*
X157641401Y-92468253D01*
X157623223Y-92451777D01*
X157606747Y-92433599D01*
X157592132Y-92413893D01*
X157579520Y-92392850D01*
X157569030Y-92370671D01*
X157560765Y-92347572D01*
X157554804Y-92323773D01*
X157551204Y-92299505D01*
X157550000Y-92275001D01*
X157550000Y-91624999D01*
X157551204Y-91600495D01*
X157554804Y-91576227D01*
X157560765Y-91552428D01*
X157569030Y-91529329D01*
X157579520Y-91507150D01*
X157592132Y-91486107D01*
X157606747Y-91466401D01*
X157623223Y-91448223D01*
X157641401Y-91431747D01*
X157661107Y-91417132D01*
X157682150Y-91404520D01*
X157704329Y-91394030D01*
X157727428Y-91385765D01*
X157751227Y-91379804D01*
X157775495Y-91376204D01*
X157799999Y-91375000D01*
X158700001Y-91375000D01*
X158724505Y-91376204D01*
X158724505Y-91376204D01*
G37*
D14*
G04 #@! TD*
G04 #@! TO.P,R101,1*
G04 #@! TO.N,/HS*
X158250000Y-91950000D03*
D13*
G04 #@! TO.N,/HG*
G04 #@! TO.C,R102*
G36*
X156224505Y-93401204D02*
X156248773Y-93404804D01*
X156272572Y-93410765D01*
X156295671Y-93419030D01*
X156317850Y-93429520D01*
X156338893Y-93442132D01*
X156358599Y-93456747D01*
X156376777Y-93473223D01*
X156393253Y-93491401D01*
X156407868Y-93511107D01*
X156420480Y-93532150D01*
X156430970Y-93554329D01*
X156439235Y-93577428D01*
X156445196Y-93601227D01*
X156448796Y-93625495D01*
X156450000Y-93649999D01*
X156450000Y-94300001D01*
X156448796Y-94324505D01*
X156445196Y-94348773D01*
X156439235Y-94372572D01*
X156430970Y-94395671D01*
X156420480Y-94417850D01*
X156407868Y-94438893D01*
X156393253Y-94458599D01*
X156376777Y-94476777D01*
X156358599Y-94493253D01*
X156338893Y-94507868D01*
X156317850Y-94520480D01*
X156295671Y-94530970D01*
X156272572Y-94539235D01*
X156248773Y-94545196D01*
X156224505Y-94548796D01*
X156200001Y-94550000D01*
X155299999Y-94550000D01*
X155275495Y-94548796D01*
X155251227Y-94545196D01*
X155227428Y-94539235D01*
X155204329Y-94530970D01*
X155182150Y-94520480D01*
X155161107Y-94507868D01*
X155141401Y-94493253D01*
X155123223Y-94476777D01*
X155106747Y-94458599D01*
X155092132Y-94438893D01*
X155079520Y-94417850D01*
X155069030Y-94395671D01*
X155060765Y-94372572D01*
X155054804Y-94348773D01*
X155051204Y-94324505D01*
X155050000Y-94300001D01*
X155050000Y-93649999D01*
X155051204Y-93625495D01*
X155054804Y-93601227D01*
X155060765Y-93577428D01*
X155069030Y-93554329D01*
X155079520Y-93532150D01*
X155092132Y-93511107D01*
X155106747Y-93491401D01*
X155123223Y-93473223D01*
X155141401Y-93456747D01*
X155161107Y-93442132D01*
X155182150Y-93429520D01*
X155204329Y-93419030D01*
X155227428Y-93410765D01*
X155251227Y-93404804D01*
X155275495Y-93401204D01*
X155299999Y-93400000D01*
X156200001Y-93400000D01*
X156224505Y-93401204D01*
X156224505Y-93401204D01*
G37*
D14*
G04 #@! TD*
G04 #@! TO.P,R102,1*
G04 #@! TO.N,/HG*
X155750000Y-93975000D03*
D13*
G04 #@! TO.N,Net-(D101-Pad1)*
G04 #@! TO.C,R102*
G36*
X156224505Y-95451204D02*
X156248773Y-95454804D01*
X156272572Y-95460765D01*
X156295671Y-95469030D01*
X156317850Y-95479520D01*
X156338893Y-95492132D01*
X156358599Y-95506747D01*
X156376777Y-95523223D01*
X156393253Y-95541401D01*
X156407868Y-95561107D01*
X156420480Y-95582150D01*
X156430970Y-95604329D01*
X156439235Y-95627428D01*
X156445196Y-95651227D01*
X156448796Y-95675495D01*
X156450000Y-95699999D01*
X156450000Y-96350001D01*
X156448796Y-96374505D01*
X156445196Y-96398773D01*
X156439235Y-96422572D01*
X156430970Y-96445671D01*
X156420480Y-96467850D01*
X156407868Y-96488893D01*
X156393253Y-96508599D01*
X156376777Y-96526777D01*
X156358599Y-96543253D01*
X156338893Y-96557868D01*
X156317850Y-96570480D01*
X156295671Y-96580970D01*
X156272572Y-96589235D01*
X156248773Y-96595196D01*
X156224505Y-96598796D01*
X156200001Y-96600000D01*
X155299999Y-96600000D01*
X155275495Y-96598796D01*
X155251227Y-96595196D01*
X155227428Y-96589235D01*
X155204329Y-96580970D01*
X155182150Y-96570480D01*
X155161107Y-96557868D01*
X155141401Y-96543253D01*
X155123223Y-96526777D01*
X155106747Y-96508599D01*
X155092132Y-96488893D01*
X155079520Y-96467850D01*
X155069030Y-96445671D01*
X155060765Y-96422572D01*
X155054804Y-96398773D01*
X155051204Y-96374505D01*
X155050000Y-96350001D01*
X155050000Y-95699999D01*
X155051204Y-95675495D01*
X155054804Y-95651227D01*
X155060765Y-95627428D01*
X155069030Y-95604329D01*
X155079520Y-95582150D01*
X155092132Y-95561107D01*
X155106747Y-95541401D01*
X155123223Y-95523223D01*
X155141401Y-95506747D01*
X155161107Y-95492132D01*
X155182150Y-95479520D01*
X155204329Y-95469030D01*
X155227428Y-95460765D01*
X155251227Y-95454804D01*
X155275495Y-95451204D01*
X155299999Y-95450000D01*
X156200001Y-95450000D01*
X156224505Y-95451204D01*
X156224505Y-95451204D01*
G37*
D14*
G04 #@! TD*
G04 #@! TO.P,R102,2*
G04 #@! TO.N,Net-(D101-Pad1)*
X155750000Y-96025000D03*
D13*
G04 #@! TO.N,/LG*
G04 #@! TO.C,R104*
G36*
X156224505Y-84451204D02*
X156248773Y-84454804D01*
X156272572Y-84460765D01*
X156295671Y-84469030D01*
X156317850Y-84479520D01*
X156338893Y-84492132D01*
X156358599Y-84506747D01*
X156376777Y-84523223D01*
X156393253Y-84541401D01*
X156407868Y-84561107D01*
X156420480Y-84582150D01*
X156430970Y-84604329D01*
X156439235Y-84627428D01*
X156445196Y-84651227D01*
X156448796Y-84675495D01*
X156450000Y-84699999D01*
X156450000Y-85350001D01*
X156448796Y-85374505D01*
X156445196Y-85398773D01*
X156439235Y-85422572D01*
X156430970Y-85445671D01*
X156420480Y-85467850D01*
X156407868Y-85488893D01*
X156393253Y-85508599D01*
X156376777Y-85526777D01*
X156358599Y-85543253D01*
X156338893Y-85557868D01*
X156317850Y-85570480D01*
X156295671Y-85580970D01*
X156272572Y-85589235D01*
X156248773Y-85595196D01*
X156224505Y-85598796D01*
X156200001Y-85600000D01*
X155299999Y-85600000D01*
X155275495Y-85598796D01*
X155251227Y-85595196D01*
X155227428Y-85589235D01*
X155204329Y-85580970D01*
X155182150Y-85570480D01*
X155161107Y-85557868D01*
X155141401Y-85543253D01*
X155123223Y-85526777D01*
X155106747Y-85508599D01*
X155092132Y-85488893D01*
X155079520Y-85467850D01*
X155069030Y-85445671D01*
X155060765Y-85422572D01*
X155054804Y-85398773D01*
X155051204Y-85374505D01*
X155050000Y-85350001D01*
X155050000Y-84699999D01*
X155051204Y-84675495D01*
X155054804Y-84651227D01*
X155060765Y-84627428D01*
X155069030Y-84604329D01*
X155079520Y-84582150D01*
X155092132Y-84561107D01*
X155106747Y-84541401D01*
X155123223Y-84523223D01*
X155141401Y-84506747D01*
X155161107Y-84492132D01*
X155182150Y-84479520D01*
X155204329Y-84469030D01*
X155227428Y-84460765D01*
X155251227Y-84454804D01*
X155275495Y-84451204D01*
X155299999Y-84450000D01*
X156200001Y-84450000D01*
X156224505Y-84451204D01*
X156224505Y-84451204D01*
G37*
D14*
G04 #@! TD*
G04 #@! TO.P,R104,1*
G04 #@! TO.N,/LG*
X155750000Y-85025000D03*
D13*
G04 #@! TO.N,Net-(D105-Pad1)*
G04 #@! TO.C,R104*
G36*
X156224505Y-82401204D02*
X156248773Y-82404804D01*
X156272572Y-82410765D01*
X156295671Y-82419030D01*
X156317850Y-82429520D01*
X156338893Y-82442132D01*
X156358599Y-82456747D01*
X156376777Y-82473223D01*
X156393253Y-82491401D01*
X156407868Y-82511107D01*
X156420480Y-82532150D01*
X156430970Y-82554329D01*
X156439235Y-82577428D01*
X156445196Y-82601227D01*
X156448796Y-82625495D01*
X156450000Y-82649999D01*
X156450000Y-83300001D01*
X156448796Y-83324505D01*
X156445196Y-83348773D01*
X156439235Y-83372572D01*
X156430970Y-83395671D01*
X156420480Y-83417850D01*
X156407868Y-83438893D01*
X156393253Y-83458599D01*
X156376777Y-83476777D01*
X156358599Y-83493253D01*
X156338893Y-83507868D01*
X156317850Y-83520480D01*
X156295671Y-83530970D01*
X156272572Y-83539235D01*
X156248773Y-83545196D01*
X156224505Y-83548796D01*
X156200001Y-83550000D01*
X155299999Y-83550000D01*
X155275495Y-83548796D01*
X155251227Y-83545196D01*
X155227428Y-83539235D01*
X155204329Y-83530970D01*
X155182150Y-83520480D01*
X155161107Y-83507868D01*
X155141401Y-83493253D01*
X155123223Y-83476777D01*
X155106747Y-83458599D01*
X155092132Y-83438893D01*
X155079520Y-83417850D01*
X155069030Y-83395671D01*
X155060765Y-83372572D01*
X155054804Y-83348773D01*
X155051204Y-83324505D01*
X155050000Y-83300001D01*
X155050000Y-82649999D01*
X155051204Y-82625495D01*
X155054804Y-82601227D01*
X155060765Y-82577428D01*
X155069030Y-82554329D01*
X155079520Y-82532150D01*
X155092132Y-82511107D01*
X155106747Y-82491401D01*
X155123223Y-82473223D01*
X155141401Y-82456747D01*
X155161107Y-82442132D01*
X155182150Y-82429520D01*
X155204329Y-82419030D01*
X155227428Y-82410765D01*
X155251227Y-82404804D01*
X155275495Y-82401204D01*
X155299999Y-82400000D01*
X156200001Y-82400000D01*
X156224505Y-82401204D01*
X156224505Y-82401204D01*
G37*
D14*
G04 #@! TD*
G04 #@! TO.P,R104,2*
G04 #@! TO.N,Net-(D105-Pad1)*
X155750000Y-82975000D03*
D15*
G04 #@! TO.N,/LG*
X165750000Y-91920000D03*
G04 #@! TO.N,Net-(D105-Pad1)*
X152342000Y-88144000D03*
G04 #@! TO.N,GND*
X165750000Y-81750000D03*
X165750000Y-89500000D03*
G04 #@! TO.N,/HG*
X165750000Y-97000000D03*
G04 #@! TO.N,Net-(D101-Pad1)*
X157750000Y-96000000D03*
G04 #@! TO.N,/HS*
X165750000Y-94500000D03*
G04 #@! TO.N,+12V*
X165750000Y-86750000D03*
G04 #@! TO.N,/PWM_IN*
X165750000Y-84250000D03*
G04 #@! TD*
D16*
G04 #@! TO.N,/LG*
X160750000Y-85000000D02*
X160750000Y-87500000D01*
X160750000Y-87500000D02*
X165170000Y-91920000D01*
X155025000Y-85750000D02*
X155750000Y-85025000D01*
X153250000Y-85750000D02*
X155025000Y-85750000D01*
X158475000Y-85025000D02*
X158500000Y-85000000D01*
X155750000Y-85025000D02*
X158475000Y-85025000D01*
X158500000Y-85000000D02*
X160750000Y-85000000D01*
X168750000Y-91920000D02*
X165750000Y-91920000D01*
X165170000Y-91920000D02*
X165750000Y-91920000D01*
G04 #@! TO.N,Net-(D105-Pad1)*
X155025000Y-82250000D02*
X155750000Y-82975000D01*
X153250000Y-82250000D02*
X155025000Y-82250000D01*
X151072000Y-83826000D02*
X151072000Y-86874000D01*
X151072000Y-86874000D02*
X152342000Y-88144000D01*
X153250000Y-82250000D02*
X152648000Y-82250000D01*
X152648000Y-82250000D02*
X151072000Y-83826000D01*
G04 #@! TO.N,GND*
X168750000Y-81760000D02*
X165760000Y-81760000D01*
X165760000Y-81760000D02*
X165750000Y-81750000D01*
G04 #@! TO.N,/HG*
X155775000Y-94000000D02*
X155750000Y-93975000D01*
X158250000Y-94000000D02*
X155775000Y-94000000D01*
X155025000Y-93250000D02*
X155750000Y-93975000D01*
X153250000Y-93250000D02*
X155025000Y-93250000D01*
X158250000Y-94000000D02*
X160750000Y-94000000D01*
X160750000Y-94000000D02*
X160750000Y-94954800D01*
X168750000Y-97000000D02*
X165750000Y-97000000D01*
X164500000Y-95750000D02*
X165000001Y-96250001D01*
X165000001Y-96250001D02*
X165750000Y-97000000D01*
X161545200Y-95750000D02*
X164500000Y-95750000D01*
X160750000Y-94954800D02*
X161545200Y-95750000D01*
G04 #@! TO.N,Net-(D101-Pad1)*
X157725000Y-96025000D02*
X157750000Y-96000000D01*
X155750000Y-96025000D02*
X157725000Y-96025000D01*
X155025000Y-96750000D02*
X155750000Y-96025000D01*
X153250000Y-96750000D02*
X155025000Y-96750000D01*
G04 #@! TO.N,/HS*
X168710000Y-94500000D02*
X168750000Y-94460000D01*
X166000000Y-94500000D02*
X168710000Y-94500000D01*
X166000000Y-94500000D02*
X165500000Y-94000000D01*
X163250000Y-93000000D02*
X163250000Y-94000000D01*
X158250000Y-91950000D02*
X162200000Y-91950000D01*
X162200000Y-91950000D02*
X163250000Y-93000000D01*
X165500000Y-94000000D02*
X165750000Y-94250000D01*
X165790000Y-94460000D02*
X165750000Y-94500000D01*
X168750000Y-94460000D02*
X165790000Y-94460000D01*
X165750000Y-94250000D02*
X165750000Y-94500000D01*
X165250000Y-94000000D02*
X165750000Y-94500000D01*
X163250000Y-94000000D02*
X165250000Y-94000000D01*
G04 #@! TO.N,Net-(D106-Pad1)*
X163250000Y-81500000D02*
X160750000Y-81500000D01*
G04 #@! TO.N,+12V*
X165839996Y-86839996D02*
X165750000Y-86750000D01*
X165839996Y-86840000D02*
X165839996Y-86839996D01*
X165840000Y-86840000D02*
X165750000Y-86750000D01*
X168750000Y-86840000D02*
X165840000Y-86840000D01*
G04 #@! TO.N,/PWM_IN*
X168750000Y-84300000D02*
X165800000Y-84300000D01*
X165800000Y-84300000D02*
X165750000Y-84250000D01*
G04 #@! TO.N,Net-(D103-Pad1)*
X163250000Y-97500000D02*
X160750000Y-97500000D01*
G04 #@! TD*
D17*
G04 #@! TO.N,GND*
G36*
X170885201Y-99321200D02*
X146498800Y-99321200D01*
X146498800Y-83826000D01*
X150372765Y-83826000D01*
X150386200Y-83893542D01*
X150386201Y-86806453D01*
X150372765Y-86874000D01*
X150425991Y-87141585D01*
X150425992Y-87141586D01*
X150577567Y-87368434D01*
X150634830Y-87406696D01*
X151160200Y-87932066D01*
X151160200Y-88379075D01*
X151340118Y-88813436D01*
X151672564Y-89145882D01*
X152106925Y-89325800D01*
X152577075Y-89325800D01*
X153011436Y-89145882D01*
X153343882Y-88813436D01*
X153523800Y-88379075D01*
X153523800Y-87908925D01*
X153343882Y-87474564D01*
X153011436Y-87142118D01*
X152577075Y-86962200D01*
X152130066Y-86962200D01*
X151757800Y-86589934D01*
X151757800Y-85100000D01*
X151959741Y-85100000D01*
X151959741Y-86400000D01*
X151993254Y-86568480D01*
X152088690Y-86711310D01*
X152231520Y-86806746D01*
X152400000Y-86840259D01*
X154100000Y-86840259D01*
X154268480Y-86806746D01*
X154411310Y-86711310D01*
X154506746Y-86568480D01*
X154533138Y-86435800D01*
X154957458Y-86435800D01*
X155025000Y-86449235D01*
X155092542Y-86435800D01*
X155092543Y-86435800D01*
X155292586Y-86396009D01*
X155519434Y-86244434D01*
X155557697Y-86187169D01*
X155704608Y-86040259D01*
X156200001Y-86040259D01*
X156464151Y-85987716D01*
X156688087Y-85838087D01*
X156773137Y-85710800D01*
X157493567Y-85710800D01*
X157561913Y-85813087D01*
X157785849Y-85962716D01*
X158049999Y-86015259D01*
X158950001Y-86015259D01*
X159214151Y-85962716D01*
X159438087Y-85813087D01*
X159479772Y-85750701D01*
X159493254Y-85818480D01*
X159588690Y-85961310D01*
X159731520Y-86056746D01*
X159900000Y-86090259D01*
X160064200Y-86090259D01*
X160064201Y-87432453D01*
X160050765Y-87500000D01*
X160103991Y-87767585D01*
X160103992Y-87767586D01*
X160255567Y-87994434D01*
X160312830Y-88032696D01*
X164637304Y-92357171D01*
X164675566Y-92414434D01*
X164675654Y-92414493D01*
X164748118Y-92589436D01*
X165080564Y-92921882D01*
X165514925Y-93101800D01*
X165985075Y-93101800D01*
X166419436Y-92921882D01*
X166735518Y-92605800D01*
X167266630Y-92605800D01*
X167425874Y-92844126D01*
X167849867Y-93127428D01*
X168164437Y-93190000D01*
X167849867Y-93252572D01*
X167425874Y-93535874D01*
X167266630Y-93774200D01*
X166695518Y-93774200D01*
X166419436Y-93498118D01*
X165985075Y-93318200D01*
X165587652Y-93318200D01*
X165500000Y-93300765D01*
X165375000Y-93325629D01*
X165317543Y-93314200D01*
X165317542Y-93314200D01*
X165250000Y-93300765D01*
X165182458Y-93314200D01*
X164533138Y-93314200D01*
X164506746Y-93181520D01*
X164411310Y-93038690D01*
X164268480Y-92943254D01*
X164100000Y-92909741D01*
X163931282Y-92909741D01*
X163896009Y-92732414D01*
X163804865Y-92596009D01*
X163744433Y-92505566D01*
X163687173Y-92467306D01*
X162732698Y-91512832D01*
X162694434Y-91455566D01*
X162467586Y-91303991D01*
X162267543Y-91264200D01*
X162267542Y-91264200D01*
X162200000Y-91250765D01*
X162132458Y-91264200D01*
X159273137Y-91264200D01*
X159188087Y-91136913D01*
X158964151Y-90987284D01*
X158700001Y-90934741D01*
X157799999Y-90934741D01*
X157535849Y-90987284D01*
X157311913Y-91136913D01*
X157162284Y-91360849D01*
X157109741Y-91624999D01*
X157109741Y-92275001D01*
X157162284Y-92539151D01*
X157311913Y-92763087D01*
X157535849Y-92912716D01*
X157799999Y-92965259D01*
X158700001Y-92965259D01*
X158964151Y-92912716D01*
X159188087Y-92763087D01*
X159273137Y-92635800D01*
X161915934Y-92635800D01*
X162226645Y-92946511D01*
X162088690Y-93038690D01*
X162000000Y-93171424D01*
X161911310Y-93038690D01*
X161768480Y-92943254D01*
X161600000Y-92909741D01*
X159900000Y-92909741D01*
X159731520Y-92943254D01*
X159588690Y-93038690D01*
X159493254Y-93181520D01*
X159466862Y-93314200D01*
X159273137Y-93314200D01*
X159188087Y-93186913D01*
X158964151Y-93037284D01*
X158700001Y-92984741D01*
X157799999Y-92984741D01*
X157535849Y-93037284D01*
X157311913Y-93186913D01*
X157226863Y-93314200D01*
X156789842Y-93314200D01*
X156688087Y-93161913D01*
X156464151Y-93012284D01*
X156200001Y-92959741D01*
X155704608Y-92959741D01*
X155557697Y-92812831D01*
X155519434Y-92755566D01*
X155292586Y-92603991D01*
X155092543Y-92564200D01*
X155092542Y-92564200D01*
X155025000Y-92550765D01*
X154957458Y-92564200D01*
X154533138Y-92564200D01*
X154506746Y-92431520D01*
X154411310Y-92288690D01*
X154268480Y-92193254D01*
X154100000Y-92159741D01*
X152400000Y-92159741D01*
X152231520Y-92193254D01*
X152088690Y-92288690D01*
X151993254Y-92431520D01*
X151959741Y-92600000D01*
X151959741Y-93900000D01*
X151993254Y-94068480D01*
X152088690Y-94211310D01*
X152231520Y-94306746D01*
X152400000Y-94340259D01*
X154100000Y-94340259D01*
X154268480Y-94306746D01*
X154411310Y-94211310D01*
X154506746Y-94068480D01*
X154533138Y-93935800D01*
X154609741Y-93935800D01*
X154609741Y-94300001D01*
X154662284Y-94564151D01*
X154811913Y-94788087D01*
X155035849Y-94937716D01*
X155299999Y-94990259D01*
X156200001Y-94990259D01*
X156464151Y-94937716D01*
X156688087Y-94788087D01*
X156756433Y-94685800D01*
X157226863Y-94685800D01*
X157311913Y-94813087D01*
X157394326Y-94868154D01*
X157080564Y-94998118D01*
X156759657Y-95319025D01*
X156688087Y-95211913D01*
X156464151Y-95062284D01*
X156200001Y-95009741D01*
X155299999Y-95009741D01*
X155035849Y-95062284D01*
X154811913Y-95211913D01*
X154662284Y-95435849D01*
X154609741Y-95699999D01*
X154609741Y-96064200D01*
X154533138Y-96064200D01*
X154506746Y-95931520D01*
X154411310Y-95788690D01*
X154268480Y-95693254D01*
X154100000Y-95659741D01*
X152400000Y-95659741D01*
X152231520Y-95693254D01*
X152088690Y-95788690D01*
X151993254Y-95931520D01*
X151959741Y-96100000D01*
X151959741Y-97400000D01*
X151993254Y-97568480D01*
X152088690Y-97711310D01*
X152231520Y-97806746D01*
X152400000Y-97840259D01*
X154100000Y-97840259D01*
X154268480Y-97806746D01*
X154411310Y-97711310D01*
X154506746Y-97568480D01*
X154533138Y-97435800D01*
X154957458Y-97435800D01*
X155025000Y-97449235D01*
X155092542Y-97435800D01*
X155092543Y-97435800D01*
X155292586Y-97396009D01*
X155519434Y-97244434D01*
X155557697Y-97187169D01*
X155704608Y-97040259D01*
X156200001Y-97040259D01*
X156464151Y-96987716D01*
X156688087Y-96838087D01*
X156773137Y-96710800D01*
X156789482Y-96710800D01*
X157080564Y-97001882D01*
X157514925Y-97181800D01*
X157985075Y-97181800D01*
X158419436Y-97001882D01*
X158751882Y-96669436D01*
X158931800Y-96235075D01*
X158931800Y-95764925D01*
X158751882Y-95330564D01*
X158436577Y-95015259D01*
X158700001Y-95015259D01*
X158964151Y-94962716D01*
X159188087Y-94813087D01*
X159273137Y-94685800D01*
X159466862Y-94685800D01*
X159493254Y-94818480D01*
X159588690Y-94961310D01*
X159731520Y-95056746D01*
X159900000Y-95090259D01*
X160077709Y-95090259D01*
X160103991Y-95222385D01*
X160103992Y-95222386D01*
X160255567Y-95449234D01*
X160312829Y-95487495D01*
X161012505Y-96187173D01*
X161050766Y-96244434D01*
X161108026Y-96282694D01*
X161153123Y-96312827D01*
X161277614Y-96396009D01*
X161346649Y-96409741D01*
X159900000Y-96409741D01*
X159731520Y-96443254D01*
X159588690Y-96538690D01*
X159493254Y-96681520D01*
X159459741Y-96850000D01*
X159459741Y-98150000D01*
X159493254Y-98318480D01*
X159588690Y-98461310D01*
X159731520Y-98556746D01*
X159900000Y-98590259D01*
X161600000Y-98590259D01*
X161768480Y-98556746D01*
X161911310Y-98461310D01*
X162000000Y-98328576D01*
X162088690Y-98461310D01*
X162231520Y-98556746D01*
X162400000Y-98590259D01*
X164100000Y-98590259D01*
X164268480Y-98556746D01*
X164411310Y-98461310D01*
X164506746Y-98318480D01*
X164540259Y-98150000D01*
X164540259Y-96850000D01*
X164517943Y-96737810D01*
X164562829Y-96782696D01*
X164568200Y-96788066D01*
X164568200Y-97235075D01*
X164748118Y-97669436D01*
X165080564Y-98001882D01*
X165514925Y-98181800D01*
X165985075Y-98181800D01*
X166419436Y-98001882D01*
X166735518Y-97685800D01*
X167059741Y-97685800D01*
X167059741Y-97850000D01*
X167093254Y-98018480D01*
X167188690Y-98161310D01*
X167331520Y-98256746D01*
X167500000Y-98290259D01*
X170000000Y-98290259D01*
X170168480Y-98256746D01*
X170311310Y-98161310D01*
X170406746Y-98018480D01*
X170440259Y-97850000D01*
X170440259Y-96150000D01*
X170406746Y-95981520D01*
X170311310Y-95838690D01*
X170168480Y-95743254D01*
X170000000Y-95709741D01*
X169437412Y-95709741D01*
X169650133Y-95667428D01*
X170074126Y-95384126D01*
X170357428Y-94960133D01*
X170456911Y-94460000D01*
X170357428Y-93959867D01*
X170074126Y-93535874D01*
X169650133Y-93252572D01*
X169335563Y-93190000D01*
X169650133Y-93127428D01*
X170074126Y-92844126D01*
X170357428Y-92420133D01*
X170456911Y-91920000D01*
X170357428Y-91419867D01*
X170074126Y-90995874D01*
X169696564Y-90743596D01*
X169835618Y-90703360D01*
X170289856Y-90340251D01*
X170570562Y-89830952D01*
X170591476Y-89736890D01*
X170470155Y-89507000D01*
X168877000Y-89507000D01*
X168877000Y-89527000D01*
X168623000Y-89527000D01*
X168623000Y-89507000D01*
X167029845Y-89507000D01*
X166908524Y-89736890D01*
X166929438Y-89830952D01*
X167210144Y-90340251D01*
X167664382Y-90703360D01*
X167803436Y-90743596D01*
X167425874Y-90995874D01*
X167266630Y-91234200D01*
X166735518Y-91234200D01*
X166419436Y-90918118D01*
X165985075Y-90738200D01*
X165514925Y-90738200D01*
X165121167Y-90901300D01*
X161435800Y-87215934D01*
X161435800Y-86090259D01*
X161600000Y-86090259D01*
X161768480Y-86056746D01*
X161856735Y-85997776D01*
X161861673Y-86009698D01*
X162040301Y-86188327D01*
X162273690Y-86285000D01*
X162964250Y-86285000D01*
X163123000Y-86126250D01*
X163123000Y-85127000D01*
X163377000Y-85127000D01*
X163377000Y-86126250D01*
X163535750Y-86285000D01*
X164226310Y-86285000D01*
X164459699Y-86188327D01*
X164638327Y-86009698D01*
X164735000Y-85776309D01*
X164735000Y-85285750D01*
X164576250Y-85127000D01*
X163377000Y-85127000D01*
X163123000Y-85127000D01*
X163103000Y-85127000D01*
X163103000Y-84873000D01*
X163123000Y-84873000D01*
X163123000Y-83873750D01*
X163377000Y-83873750D01*
X163377000Y-84873000D01*
X164576250Y-84873000D01*
X164684178Y-84765072D01*
X164748118Y-84919436D01*
X165080564Y-85251882D01*
X165514925Y-85431800D01*
X165985075Y-85431800D01*
X166419436Y-85251882D01*
X166685518Y-84985800D01*
X167266630Y-84985800D01*
X167425874Y-85224126D01*
X167849867Y-85507428D01*
X168164437Y-85570000D01*
X167849867Y-85632572D01*
X167425874Y-85915874D01*
X167266630Y-86154200D01*
X166782383Y-86154200D01*
X166751882Y-86080564D01*
X166419436Y-85748118D01*
X165985075Y-85568200D01*
X165514925Y-85568200D01*
X165080564Y-85748118D01*
X164748118Y-86080564D01*
X164568200Y-86514925D01*
X164568200Y-86985075D01*
X164748118Y-87419436D01*
X165080564Y-87751882D01*
X165514925Y-87931800D01*
X165985075Y-87931800D01*
X166419436Y-87751882D01*
X166645518Y-87525800D01*
X167266630Y-87525800D01*
X167425874Y-87764126D01*
X167803436Y-88016404D01*
X167664382Y-88056640D01*
X167210144Y-88419749D01*
X166929438Y-88929048D01*
X166908524Y-89023110D01*
X167029845Y-89253000D01*
X168623000Y-89253000D01*
X168623000Y-89233000D01*
X168877000Y-89233000D01*
X168877000Y-89253000D01*
X170470155Y-89253000D01*
X170591476Y-89023110D01*
X170570562Y-88929048D01*
X170289856Y-88419749D01*
X169835618Y-88056640D01*
X169696564Y-88016404D01*
X170074126Y-87764126D01*
X170357428Y-87340133D01*
X170456911Y-86840000D01*
X170357428Y-86339867D01*
X170074126Y-85915874D01*
X169650133Y-85632572D01*
X169335563Y-85570000D01*
X169650133Y-85507428D01*
X170074126Y-85224126D01*
X170357428Y-84800133D01*
X170456911Y-84300000D01*
X170357428Y-83799867D01*
X170074126Y-83375874D01*
X169696564Y-83123596D01*
X169835618Y-83083360D01*
X170289856Y-82720251D01*
X170570562Y-82210952D01*
X170591476Y-82116890D01*
X170470155Y-81887000D01*
X168877000Y-81887000D01*
X168877000Y-81907000D01*
X168623000Y-81907000D01*
X168623000Y-81887000D01*
X167029845Y-81887000D01*
X166908524Y-82116890D01*
X166929438Y-82210952D01*
X167210144Y-82720251D01*
X167664382Y-83083360D01*
X167803436Y-83123596D01*
X167425874Y-83375874D01*
X167266630Y-83614200D01*
X166765814Y-83614200D01*
X166751882Y-83580564D01*
X166419436Y-83248118D01*
X165985075Y-83068200D01*
X165514925Y-83068200D01*
X165080564Y-83248118D01*
X164748118Y-83580564D01*
X164595952Y-83947926D01*
X164459699Y-83811673D01*
X164226310Y-83715000D01*
X163535750Y-83715000D01*
X163377000Y-83873750D01*
X163123000Y-83873750D01*
X162964250Y-83715000D01*
X162273690Y-83715000D01*
X162040301Y-83811673D01*
X161861673Y-83990302D01*
X161856735Y-84002224D01*
X161768480Y-83943254D01*
X161600000Y-83909741D01*
X159900000Y-83909741D01*
X159731520Y-83943254D01*
X159588690Y-84038690D01*
X159493254Y-84181520D01*
X159479772Y-84249299D01*
X159438087Y-84186913D01*
X159370447Y-84141718D01*
X159559699Y-84063327D01*
X159738327Y-83884698D01*
X159835000Y-83651309D01*
X159835000Y-83235750D01*
X159676250Y-83077000D01*
X158627000Y-83077000D01*
X158627000Y-83097000D01*
X158373000Y-83097000D01*
X158373000Y-83077000D01*
X157323750Y-83077000D01*
X157165000Y-83235750D01*
X157165000Y-83651309D01*
X157261673Y-83884698D01*
X157440301Y-84063327D01*
X157629553Y-84141718D01*
X157561913Y-84186913D01*
X157460158Y-84339200D01*
X156773137Y-84339200D01*
X156688087Y-84211913D01*
X156464151Y-84062284D01*
X156200001Y-84009741D01*
X155299999Y-84009741D01*
X155035849Y-84062284D01*
X154811913Y-84211913D01*
X154662284Y-84435849D01*
X154609741Y-84699999D01*
X154609741Y-85064200D01*
X154533138Y-85064200D01*
X154506746Y-84931520D01*
X154411310Y-84788690D01*
X154268480Y-84693254D01*
X154100000Y-84659741D01*
X152400000Y-84659741D01*
X152231520Y-84693254D01*
X152088690Y-84788690D01*
X151993254Y-84931520D01*
X151959741Y-85100000D01*
X151757800Y-85100000D01*
X151757800Y-84110066D01*
X152527608Y-83340259D01*
X154100000Y-83340259D01*
X154268480Y-83306746D01*
X154411310Y-83211310D01*
X154506746Y-83068480D01*
X154533138Y-82935800D01*
X154609741Y-82935800D01*
X154609741Y-83300001D01*
X154662284Y-83564151D01*
X154811913Y-83788087D01*
X155035849Y-83937716D01*
X155299999Y-83990259D01*
X156200001Y-83990259D01*
X156464151Y-83937716D01*
X156688087Y-83788087D01*
X156837716Y-83564151D01*
X156890259Y-83300001D01*
X156890259Y-82649999D01*
X156837716Y-82385849D01*
X156746071Y-82248691D01*
X157165000Y-82248691D01*
X157165000Y-82664250D01*
X157323750Y-82823000D01*
X158373000Y-82823000D01*
X158373000Y-81898750D01*
X158627000Y-81898750D01*
X158627000Y-82823000D01*
X159676250Y-82823000D01*
X159835000Y-82664250D01*
X159835000Y-82577330D01*
X159900000Y-82590259D01*
X161600000Y-82590259D01*
X161768480Y-82556746D01*
X161911310Y-82461310D01*
X162000000Y-82328576D01*
X162088690Y-82461310D01*
X162231520Y-82556746D01*
X162400000Y-82590259D01*
X164100000Y-82590259D01*
X164268480Y-82556746D01*
X164411310Y-82461310D01*
X164506746Y-82318480D01*
X164540259Y-82150000D01*
X164540259Y-81403110D01*
X166908524Y-81403110D01*
X167029845Y-81633000D01*
X168623000Y-81633000D01*
X168623000Y-80275000D01*
X168877000Y-80275000D01*
X168877000Y-81633000D01*
X170470155Y-81633000D01*
X170591476Y-81403110D01*
X170570562Y-81309048D01*
X170289856Y-80799749D01*
X169835618Y-80436640D01*
X169277000Y-80275000D01*
X168877000Y-80275000D01*
X168623000Y-80275000D01*
X168223000Y-80275000D01*
X167664382Y-80436640D01*
X167210144Y-80799749D01*
X166929438Y-81309048D01*
X166908524Y-81403110D01*
X164540259Y-81403110D01*
X164540259Y-80850000D01*
X164506746Y-80681520D01*
X164411310Y-80538690D01*
X164268480Y-80443254D01*
X164100000Y-80409741D01*
X162400000Y-80409741D01*
X162231520Y-80443254D01*
X162088690Y-80538690D01*
X162000000Y-80671424D01*
X161911310Y-80538690D01*
X161768480Y-80443254D01*
X161600000Y-80409741D01*
X159900000Y-80409741D01*
X159731520Y-80443254D01*
X159588690Y-80538690D01*
X159493254Y-80681520D01*
X159459741Y-80850000D01*
X159459741Y-81795269D01*
X159326310Y-81740000D01*
X158785750Y-81740000D01*
X158627000Y-81898750D01*
X158373000Y-81898750D01*
X158214250Y-81740000D01*
X157673690Y-81740000D01*
X157440301Y-81836673D01*
X157261673Y-82015302D01*
X157165000Y-82248691D01*
X156746071Y-82248691D01*
X156688087Y-82161913D01*
X156464151Y-82012284D01*
X156200001Y-81959741D01*
X155704608Y-81959741D01*
X155557697Y-81812831D01*
X155519434Y-81755566D01*
X155292586Y-81603991D01*
X155092543Y-81564200D01*
X155092542Y-81564200D01*
X155025000Y-81550765D01*
X154957458Y-81564200D01*
X154533138Y-81564200D01*
X154506746Y-81431520D01*
X154411310Y-81288690D01*
X154268480Y-81193254D01*
X154100000Y-81159741D01*
X152400000Y-81159741D01*
X152231520Y-81193254D01*
X152088690Y-81288690D01*
X151993254Y-81431520D01*
X151959741Y-81600000D01*
X151959741Y-81968391D01*
X150634829Y-83293305D01*
X150577566Y-83331567D01*
X150485447Y-83469433D01*
X150425991Y-83558415D01*
X150372765Y-83826000D01*
X146498800Y-83826000D01*
X146498800Y-79506800D01*
X170885200Y-79506800D01*
X170885201Y-99321200D01*
X170885201Y-99321200D01*
G37*
X170885201Y-99321200D02*
X146498800Y-99321200D01*
X146498800Y-83826000D01*
X150372765Y-83826000D01*
X150386200Y-83893542D01*
X150386201Y-86806453D01*
X150372765Y-86874000D01*
X150425991Y-87141585D01*
X150425992Y-87141586D01*
X150577567Y-87368434D01*
X150634830Y-87406696D01*
X151160200Y-87932066D01*
X151160200Y-88379075D01*
X151340118Y-88813436D01*
X151672564Y-89145882D01*
X152106925Y-89325800D01*
X152577075Y-89325800D01*
X153011436Y-89145882D01*
X153343882Y-88813436D01*
X153523800Y-88379075D01*
X153523800Y-87908925D01*
X153343882Y-87474564D01*
X153011436Y-87142118D01*
X152577075Y-86962200D01*
X152130066Y-86962200D01*
X151757800Y-86589934D01*
X151757800Y-85100000D01*
X151959741Y-85100000D01*
X151959741Y-86400000D01*
X151993254Y-86568480D01*
X152088690Y-86711310D01*
X152231520Y-86806746D01*
X152400000Y-86840259D01*
X154100000Y-86840259D01*
X154268480Y-86806746D01*
X154411310Y-86711310D01*
X154506746Y-86568480D01*
X154533138Y-86435800D01*
X154957458Y-86435800D01*
X155025000Y-86449235D01*
X155092542Y-86435800D01*
X155092543Y-86435800D01*
X155292586Y-86396009D01*
X155519434Y-86244434D01*
X155557697Y-86187169D01*
X155704608Y-86040259D01*
X156200001Y-86040259D01*
X156464151Y-85987716D01*
X156688087Y-85838087D01*
X156773137Y-85710800D01*
X157493567Y-85710800D01*
X157561913Y-85813087D01*
X157785849Y-85962716D01*
X158049999Y-86015259D01*
X158950001Y-86015259D01*
X159214151Y-85962716D01*
X159438087Y-85813087D01*
X159479772Y-85750701D01*
X159493254Y-85818480D01*
X159588690Y-85961310D01*
X159731520Y-86056746D01*
X159900000Y-86090259D01*
X160064200Y-86090259D01*
X160064201Y-87432453D01*
X160050765Y-87500000D01*
X160103991Y-87767585D01*
X160103992Y-87767586D01*
X160255567Y-87994434D01*
X160312830Y-88032696D01*
X164637304Y-92357171D01*
X164675566Y-92414434D01*
X164675654Y-92414493D01*
X164748118Y-92589436D01*
X165080564Y-92921882D01*
X165514925Y-93101800D01*
X165985075Y-93101800D01*
X166419436Y-92921882D01*
X166735518Y-92605800D01*
X167266630Y-92605800D01*
X167425874Y-92844126D01*
X167849867Y-93127428D01*
X168164437Y-93190000D01*
X167849867Y-93252572D01*
X167425874Y-93535874D01*
X167266630Y-93774200D01*
X166695518Y-93774200D01*
X166419436Y-93498118D01*
X165985075Y-93318200D01*
X165587652Y-93318200D01*
X165500000Y-93300765D01*
X165375000Y-93325629D01*
X165317543Y-93314200D01*
X165317542Y-93314200D01*
X165250000Y-93300765D01*
X165182458Y-93314200D01*
X164533138Y-93314200D01*
X164506746Y-93181520D01*
X164411310Y-93038690D01*
X164268480Y-92943254D01*
X164100000Y-92909741D01*
X163931282Y-92909741D01*
X163896009Y-92732414D01*
X163804865Y-92596009D01*
X163744433Y-92505566D01*
X163687173Y-92467306D01*
X162732698Y-91512832D01*
X162694434Y-91455566D01*
X162467586Y-91303991D01*
X162267543Y-91264200D01*
X162267542Y-91264200D01*
X162200000Y-91250765D01*
X162132458Y-91264200D01*
X159273137Y-91264200D01*
X159188087Y-91136913D01*
X158964151Y-90987284D01*
X158700001Y-90934741D01*
X157799999Y-90934741D01*
X157535849Y-90987284D01*
X157311913Y-91136913D01*
X157162284Y-91360849D01*
X157109741Y-91624999D01*
X157109741Y-92275001D01*
X157162284Y-92539151D01*
X157311913Y-92763087D01*
X157535849Y-92912716D01*
X157799999Y-92965259D01*
X158700001Y-92965259D01*
X158964151Y-92912716D01*
X159188087Y-92763087D01*
X159273137Y-92635800D01*
X161915934Y-92635800D01*
X162226645Y-92946511D01*
X162088690Y-93038690D01*
X162000000Y-93171424D01*
X161911310Y-93038690D01*
X161768480Y-92943254D01*
X161600000Y-92909741D01*
X159900000Y-92909741D01*
X159731520Y-92943254D01*
X159588690Y-93038690D01*
X159493254Y-93181520D01*
X159466862Y-93314200D01*
X159273137Y-93314200D01*
X159188087Y-93186913D01*
X158964151Y-93037284D01*
X158700001Y-92984741D01*
X157799999Y-92984741D01*
X157535849Y-93037284D01*
X157311913Y-93186913D01*
X157226863Y-93314200D01*
X156789842Y-93314200D01*
X156688087Y-93161913D01*
X156464151Y-93012284D01*
X156200001Y-92959741D01*
X155704608Y-92959741D01*
X155557697Y-92812831D01*
X155519434Y-92755566D01*
X155292586Y-92603991D01*
X155092543Y-92564200D01*
X155092542Y-92564200D01*
X155025000Y-92550765D01*
X154957458Y-92564200D01*
X154533138Y-92564200D01*
X154506746Y-92431520D01*
X154411310Y-92288690D01*
X154268480Y-92193254D01*
X154100000Y-92159741D01*
X152400000Y-92159741D01*
X152231520Y-92193254D01*
X152088690Y-92288690D01*
X151993254Y-92431520D01*
X151959741Y-92600000D01*
X151959741Y-93900000D01*
X151993254Y-94068480D01*
X152088690Y-94211310D01*
X152231520Y-94306746D01*
X152400000Y-94340259D01*
X154100000Y-94340259D01*
X154268480Y-94306746D01*
X154411310Y-94211310D01*
X154506746Y-94068480D01*
X154533138Y-93935800D01*
X154609741Y-93935800D01*
X154609741Y-94300001D01*
X154662284Y-94564151D01*
X154811913Y-94788087D01*
X155035849Y-94937716D01*
X155299999Y-94990259D01*
X156200001Y-94990259D01*
X156464151Y-94937716D01*
X156688087Y-94788087D01*
X156756433Y-94685800D01*
X157226863Y-94685800D01*
X157311913Y-94813087D01*
X157394326Y-94868154D01*
X157080564Y-94998118D01*
X156759657Y-95319025D01*
X156688087Y-95211913D01*
X156464151Y-95062284D01*
X156200001Y-95009741D01*
X155299999Y-95009741D01*
X155035849Y-95062284D01*
X154811913Y-95211913D01*
X154662284Y-95435849D01*
X154609741Y-95699999D01*
X154609741Y-96064200D01*
X154533138Y-96064200D01*
X154506746Y-95931520D01*
X154411310Y-95788690D01*
X154268480Y-95693254D01*
X154100000Y-95659741D01*
X152400000Y-95659741D01*
X152231520Y-95693254D01*
X152088690Y-95788690D01*
X151993254Y-95931520D01*
X151959741Y-96100000D01*
X151959741Y-97400000D01*
X151993254Y-97568480D01*
X152088690Y-97711310D01*
X152231520Y-97806746D01*
X152400000Y-97840259D01*
X154100000Y-97840259D01*
X154268480Y-97806746D01*
X154411310Y-97711310D01*
X154506746Y-97568480D01*
X154533138Y-97435800D01*
X154957458Y-97435800D01*
X155025000Y-97449235D01*
X155092542Y-97435800D01*
X155092543Y-97435800D01*
X155292586Y-97396009D01*
X155519434Y-97244434D01*
X155557697Y-97187169D01*
X155704608Y-97040259D01*
X156200001Y-97040259D01*
X156464151Y-96987716D01*
X156688087Y-96838087D01*
X156773137Y-96710800D01*
X156789482Y-96710800D01*
X157080564Y-97001882D01*
X157514925Y-97181800D01*
X157985075Y-97181800D01*
X158419436Y-97001882D01*
X158751882Y-96669436D01*
X158931800Y-96235075D01*
X158931800Y-95764925D01*
X158751882Y-95330564D01*
X158436577Y-95015259D01*
X158700001Y-95015259D01*
X158964151Y-94962716D01*
X159188087Y-94813087D01*
X159273137Y-94685800D01*
X159466862Y-94685800D01*
X159493254Y-94818480D01*
X159588690Y-94961310D01*
X159731520Y-95056746D01*
X159900000Y-95090259D01*
X160077709Y-95090259D01*
X160103991Y-95222385D01*
X160103992Y-95222386D01*
X160255567Y-95449234D01*
X160312829Y-95487495D01*
X161012505Y-96187173D01*
X161050766Y-96244434D01*
X161108026Y-96282694D01*
X161153123Y-96312827D01*
X161277614Y-96396009D01*
X161346649Y-96409741D01*
X159900000Y-96409741D01*
X159731520Y-96443254D01*
X159588690Y-96538690D01*
X159493254Y-96681520D01*
X159459741Y-96850000D01*
X159459741Y-98150000D01*
X159493254Y-98318480D01*
X159588690Y-98461310D01*
X159731520Y-98556746D01*
X159900000Y-98590259D01*
X161600000Y-98590259D01*
X161768480Y-98556746D01*
X161911310Y-98461310D01*
X162000000Y-98328576D01*
X162088690Y-98461310D01*
X162231520Y-98556746D01*
X162400000Y-98590259D01*
X164100000Y-98590259D01*
X164268480Y-98556746D01*
X164411310Y-98461310D01*
X164506746Y-98318480D01*
X164540259Y-98150000D01*
X164540259Y-96850000D01*
X164517943Y-96737810D01*
X164562829Y-96782696D01*
X164568200Y-96788066D01*
X164568200Y-97235075D01*
X164748118Y-97669436D01*
X165080564Y-98001882D01*
X165514925Y-98181800D01*
X165985075Y-98181800D01*
X166419436Y-98001882D01*
X166735518Y-97685800D01*
X167059741Y-97685800D01*
X167059741Y-97850000D01*
X167093254Y-98018480D01*
X167188690Y-98161310D01*
X167331520Y-98256746D01*
X167500000Y-98290259D01*
X170000000Y-98290259D01*
X170168480Y-98256746D01*
X170311310Y-98161310D01*
X170406746Y-98018480D01*
X170440259Y-97850000D01*
X170440259Y-96150000D01*
X170406746Y-95981520D01*
X170311310Y-95838690D01*
X170168480Y-95743254D01*
X170000000Y-95709741D01*
X169437412Y-95709741D01*
X169650133Y-95667428D01*
X170074126Y-95384126D01*
X170357428Y-94960133D01*
X170456911Y-94460000D01*
X170357428Y-93959867D01*
X170074126Y-93535874D01*
X169650133Y-93252572D01*
X169335563Y-93190000D01*
X169650133Y-93127428D01*
X170074126Y-92844126D01*
X170357428Y-92420133D01*
X170456911Y-91920000D01*
X170357428Y-91419867D01*
X170074126Y-90995874D01*
X169696564Y-90743596D01*
X169835618Y-90703360D01*
X170289856Y-90340251D01*
X170570562Y-89830952D01*
X170591476Y-89736890D01*
X170470155Y-89507000D01*
X168877000Y-89507000D01*
X168877000Y-89527000D01*
X168623000Y-89527000D01*
X168623000Y-89507000D01*
X167029845Y-89507000D01*
X166908524Y-89736890D01*
X166929438Y-89830952D01*
X167210144Y-90340251D01*
X167664382Y-90703360D01*
X167803436Y-90743596D01*
X167425874Y-90995874D01*
X167266630Y-91234200D01*
X166735518Y-91234200D01*
X166419436Y-90918118D01*
X165985075Y-90738200D01*
X165514925Y-90738200D01*
X165121167Y-90901300D01*
X161435800Y-87215934D01*
X161435800Y-86090259D01*
X161600000Y-86090259D01*
X161768480Y-86056746D01*
X161856735Y-85997776D01*
X161861673Y-86009698D01*
X162040301Y-86188327D01*
X162273690Y-86285000D01*
X162964250Y-86285000D01*
X163123000Y-86126250D01*
X163123000Y-85127000D01*
X163377000Y-85127000D01*
X163377000Y-86126250D01*
X163535750Y-86285000D01*
X164226310Y-86285000D01*
X164459699Y-86188327D01*
X164638327Y-86009698D01*
X164735000Y-85776309D01*
X164735000Y-85285750D01*
X164576250Y-85127000D01*
X163377000Y-85127000D01*
X163123000Y-85127000D01*
X163103000Y-85127000D01*
X163103000Y-84873000D01*
X163123000Y-84873000D01*
X163123000Y-83873750D01*
X163377000Y-83873750D01*
X163377000Y-84873000D01*
X164576250Y-84873000D01*
X164684178Y-84765072D01*
X164748118Y-84919436D01*
X165080564Y-85251882D01*
X165514925Y-85431800D01*
X165985075Y-85431800D01*
X166419436Y-85251882D01*
X166685518Y-84985800D01*
X167266630Y-84985800D01*
X167425874Y-85224126D01*
X167849867Y-85507428D01*
X168164437Y-85570000D01*
X167849867Y-85632572D01*
X167425874Y-85915874D01*
X167266630Y-86154200D01*
X166782383Y-86154200D01*
X166751882Y-86080564D01*
X166419436Y-85748118D01*
X165985075Y-85568200D01*
X165514925Y-85568200D01*
X165080564Y-85748118D01*
X164748118Y-86080564D01*
X164568200Y-86514925D01*
X164568200Y-86985075D01*
X164748118Y-87419436D01*
X165080564Y-87751882D01*
X165514925Y-87931800D01*
X165985075Y-87931800D01*
X166419436Y-87751882D01*
X166645518Y-87525800D01*
X167266630Y-87525800D01*
X167425874Y-87764126D01*
X167803436Y-88016404D01*
X167664382Y-88056640D01*
X167210144Y-88419749D01*
X166929438Y-88929048D01*
X166908524Y-89023110D01*
X167029845Y-89253000D01*
X168623000Y-89253000D01*
X168623000Y-89233000D01*
X168877000Y-89233000D01*
X168877000Y-89253000D01*
X170470155Y-89253000D01*
X170591476Y-89023110D01*
X170570562Y-88929048D01*
X170289856Y-88419749D01*
X169835618Y-88056640D01*
X169696564Y-88016404D01*
X170074126Y-87764126D01*
X170357428Y-87340133D01*
X170456911Y-86840000D01*
X170357428Y-86339867D01*
X170074126Y-85915874D01*
X169650133Y-85632572D01*
X169335563Y-85570000D01*
X169650133Y-85507428D01*
X170074126Y-85224126D01*
X170357428Y-84800133D01*
X170456911Y-84300000D01*
X170357428Y-83799867D01*
X170074126Y-83375874D01*
X169696564Y-83123596D01*
X169835618Y-83083360D01*
X170289856Y-82720251D01*
X170570562Y-82210952D01*
X170591476Y-82116890D01*
X170470155Y-81887000D01*
X168877000Y-81887000D01*
X168877000Y-81907000D01*
X168623000Y-81907000D01*
X168623000Y-81887000D01*
X167029845Y-81887000D01*
X166908524Y-82116890D01*
X166929438Y-82210952D01*
X167210144Y-82720251D01*
X167664382Y-83083360D01*
X167803436Y-83123596D01*
X167425874Y-83375874D01*
X167266630Y-83614200D01*
X166765814Y-83614200D01*
X166751882Y-83580564D01*
X166419436Y-83248118D01*
X165985075Y-83068200D01*
X165514925Y-83068200D01*
X165080564Y-83248118D01*
X164748118Y-83580564D01*
X164595952Y-83947926D01*
X164459699Y-83811673D01*
X164226310Y-83715000D01*
X163535750Y-83715000D01*
X163377000Y-83873750D01*
X163123000Y-83873750D01*
X162964250Y-83715000D01*
X162273690Y-83715000D01*
X162040301Y-83811673D01*
X161861673Y-83990302D01*
X161856735Y-84002224D01*
X161768480Y-83943254D01*
X161600000Y-83909741D01*
X159900000Y-83909741D01*
X159731520Y-83943254D01*
X159588690Y-84038690D01*
X159493254Y-84181520D01*
X159479772Y-84249299D01*
X159438087Y-84186913D01*
X159370447Y-84141718D01*
X159559699Y-84063327D01*
X159738327Y-83884698D01*
X159835000Y-83651309D01*
X159835000Y-83235750D01*
X159676250Y-83077000D01*
X158627000Y-83077000D01*
X158627000Y-83097000D01*
X158373000Y-83097000D01*
X158373000Y-83077000D01*
X157323750Y-83077000D01*
X157165000Y-83235750D01*
X157165000Y-83651309D01*
X157261673Y-83884698D01*
X157440301Y-84063327D01*
X157629553Y-84141718D01*
X157561913Y-84186913D01*
X157460158Y-84339200D01*
X156773137Y-84339200D01*
X156688087Y-84211913D01*
X156464151Y-84062284D01*
X156200001Y-84009741D01*
X155299999Y-84009741D01*
X155035849Y-84062284D01*
X154811913Y-84211913D01*
X154662284Y-84435849D01*
X154609741Y-84699999D01*
X154609741Y-85064200D01*
X154533138Y-85064200D01*
X154506746Y-84931520D01*
X154411310Y-84788690D01*
X154268480Y-84693254D01*
X154100000Y-84659741D01*
X152400000Y-84659741D01*
X152231520Y-84693254D01*
X152088690Y-84788690D01*
X151993254Y-84931520D01*
X151959741Y-85100000D01*
X151757800Y-85100000D01*
X151757800Y-84110066D01*
X152527608Y-83340259D01*
X154100000Y-83340259D01*
X154268480Y-83306746D01*
X154411310Y-83211310D01*
X154506746Y-83068480D01*
X154533138Y-82935800D01*
X154609741Y-82935800D01*
X154609741Y-83300001D01*
X154662284Y-83564151D01*
X154811913Y-83788087D01*
X155035849Y-83937716D01*
X155299999Y-83990259D01*
X156200001Y-83990259D01*
X156464151Y-83937716D01*
X156688087Y-83788087D01*
X156837716Y-83564151D01*
X156890259Y-83300001D01*
X156890259Y-82649999D01*
X156837716Y-82385849D01*
X156746071Y-82248691D01*
X157165000Y-82248691D01*
X157165000Y-82664250D01*
X157323750Y-82823000D01*
X158373000Y-82823000D01*
X158373000Y-81898750D01*
X158627000Y-81898750D01*
X158627000Y-82823000D01*
X159676250Y-82823000D01*
X159835000Y-82664250D01*
X159835000Y-82577330D01*
X159900000Y-82590259D01*
X161600000Y-82590259D01*
X161768480Y-82556746D01*
X161911310Y-82461310D01*
X162000000Y-82328576D01*
X162088690Y-82461310D01*
X162231520Y-82556746D01*
X162400000Y-82590259D01*
X164100000Y-82590259D01*
X164268480Y-82556746D01*
X164411310Y-82461310D01*
X164506746Y-82318480D01*
X164540259Y-82150000D01*
X164540259Y-81403110D01*
X166908524Y-81403110D01*
X167029845Y-81633000D01*
X168623000Y-81633000D01*
X168623000Y-80275000D01*
X168877000Y-80275000D01*
X168877000Y-81633000D01*
X170470155Y-81633000D01*
X170591476Y-81403110D01*
X170570562Y-81309048D01*
X170289856Y-80799749D01*
X169835618Y-80436640D01*
X169277000Y-80275000D01*
X168877000Y-80275000D01*
X168623000Y-80275000D01*
X168223000Y-80275000D01*
X167664382Y-80436640D01*
X167210144Y-80799749D01*
X166929438Y-81309048D01*
X166908524Y-81403110D01*
X164540259Y-81403110D01*
X164540259Y-80850000D01*
X164506746Y-80681520D01*
X164411310Y-80538690D01*
X164268480Y-80443254D01*
X164100000Y-80409741D01*
X162400000Y-80409741D01*
X162231520Y-80443254D01*
X162088690Y-80538690D01*
X162000000Y-80671424D01*
X161911310Y-80538690D01*
X161768480Y-80443254D01*
X161600000Y-80409741D01*
X159900000Y-80409741D01*
X159731520Y-80443254D01*
X159588690Y-80538690D01*
X159493254Y-80681520D01*
X159459741Y-80850000D01*
X159459741Y-81795269D01*
X159326310Y-81740000D01*
X158785750Y-81740000D01*
X158627000Y-81898750D01*
X158373000Y-81898750D01*
X158214250Y-81740000D01*
X157673690Y-81740000D01*
X157440301Y-81836673D01*
X157261673Y-82015302D01*
X157165000Y-82248691D01*
X156746071Y-82248691D01*
X156688087Y-82161913D01*
X156464151Y-82012284D01*
X156200001Y-81959741D01*
X155704608Y-81959741D01*
X155557697Y-81812831D01*
X155519434Y-81755566D01*
X155292586Y-81603991D01*
X155092543Y-81564200D01*
X155092542Y-81564200D01*
X155025000Y-81550765D01*
X154957458Y-81564200D01*
X154533138Y-81564200D01*
X154506746Y-81431520D01*
X154411310Y-81288690D01*
X154268480Y-81193254D01*
X154100000Y-81159741D01*
X152400000Y-81159741D01*
X152231520Y-81193254D01*
X152088690Y-81288690D01*
X151993254Y-81431520D01*
X151959741Y-81600000D01*
X151959741Y-81968391D01*
X150634829Y-83293305D01*
X150577566Y-83331567D01*
X150485447Y-83469433D01*
X150425991Y-83558415D01*
X150372765Y-83826000D01*
X146498800Y-83826000D01*
X146498800Y-79506800D01*
X170885200Y-79506800D01*
X170885201Y-99321200D01*
G04 #@! TD*
M02*
