G04 #@! TF.GenerationSoftware,KiCad,Pcbnew,5.0.0*
G04 #@! TF.CreationDate,2018-08-13T16:41:50-03:00*
G04 #@! TF.ProjectId,drv18,64727631382E6B696361645F70636200,rev?*
G04 #@! TF.SameCoordinates,Original*
G04 #@! TF.FileFunction,Paste,Top*
G04 #@! TF.FilePolarity,Positive*
%FSLAX46Y46*%
G04 Gerber Fmt 4.6, Leading zero omitted, Abs format (unit mm)*
G04 Created by KiCad (PCBNEW 5.0.0) date Mon Aug 13 16:41:50 2018*
%MOMM*%
%LPD*%
G01*
G04 APERTURE LIST*
%ADD10R,1.700000X1.300000*%
%ADD11C,0.100000*%
%ADD12C,1.150000*%
G04 APERTURE END LIST*
D10*
G04 #@! TO.C,D106*
X160750000Y-81500000D03*
X160750000Y-85000000D03*
G04 #@! TD*
G04 #@! TO.C,D107*
X163250000Y-85000000D03*
X163250000Y-81500000D03*
G04 #@! TD*
G04 #@! TO.C,D105*
X153250000Y-82250000D03*
X153250000Y-85750000D03*
G04 #@! TD*
G04 #@! TO.C,D103*
X160750000Y-94000000D03*
X160750000Y-97500000D03*
G04 #@! TD*
G04 #@! TO.C,D101*
X153250000Y-93250000D03*
X153250000Y-96750000D03*
G04 #@! TD*
G04 #@! TO.C,D104*
X163250000Y-97500000D03*
X163250000Y-94000000D03*
G04 #@! TD*
D11*
G04 #@! TO.C,R105*
G36*
X158974505Y-82376204D02*
X158998773Y-82379804D01*
X159022572Y-82385765D01*
X159045671Y-82394030D01*
X159067850Y-82404520D01*
X159088893Y-82417132D01*
X159108599Y-82431747D01*
X159126777Y-82448223D01*
X159143253Y-82466401D01*
X159157868Y-82486107D01*
X159170480Y-82507150D01*
X159180970Y-82529329D01*
X159189235Y-82552428D01*
X159195196Y-82576227D01*
X159198796Y-82600495D01*
X159200000Y-82624999D01*
X159200000Y-83275001D01*
X159198796Y-83299505D01*
X159195196Y-83323773D01*
X159189235Y-83347572D01*
X159180970Y-83370671D01*
X159170480Y-83392850D01*
X159157868Y-83413893D01*
X159143253Y-83433599D01*
X159126777Y-83451777D01*
X159108599Y-83468253D01*
X159088893Y-83482868D01*
X159067850Y-83495480D01*
X159045671Y-83505970D01*
X159022572Y-83514235D01*
X158998773Y-83520196D01*
X158974505Y-83523796D01*
X158950001Y-83525000D01*
X158049999Y-83525000D01*
X158025495Y-83523796D01*
X158001227Y-83520196D01*
X157977428Y-83514235D01*
X157954329Y-83505970D01*
X157932150Y-83495480D01*
X157911107Y-83482868D01*
X157891401Y-83468253D01*
X157873223Y-83451777D01*
X157856747Y-83433599D01*
X157842132Y-83413893D01*
X157829520Y-83392850D01*
X157819030Y-83370671D01*
X157810765Y-83347572D01*
X157804804Y-83323773D01*
X157801204Y-83299505D01*
X157800000Y-83275001D01*
X157800000Y-82624999D01*
X157801204Y-82600495D01*
X157804804Y-82576227D01*
X157810765Y-82552428D01*
X157819030Y-82529329D01*
X157829520Y-82507150D01*
X157842132Y-82486107D01*
X157856747Y-82466401D01*
X157873223Y-82448223D01*
X157891401Y-82431747D01*
X157911107Y-82417132D01*
X157932150Y-82404520D01*
X157954329Y-82394030D01*
X157977428Y-82385765D01*
X158001227Y-82379804D01*
X158025495Y-82376204D01*
X158049999Y-82375000D01*
X158950001Y-82375000D01*
X158974505Y-82376204D01*
X158974505Y-82376204D01*
G37*
D12*
X158500000Y-82950000D03*
D11*
G36*
X158974505Y-84426204D02*
X158998773Y-84429804D01*
X159022572Y-84435765D01*
X159045671Y-84444030D01*
X159067850Y-84454520D01*
X159088893Y-84467132D01*
X159108599Y-84481747D01*
X159126777Y-84498223D01*
X159143253Y-84516401D01*
X159157868Y-84536107D01*
X159170480Y-84557150D01*
X159180970Y-84579329D01*
X159189235Y-84602428D01*
X159195196Y-84626227D01*
X159198796Y-84650495D01*
X159200000Y-84674999D01*
X159200000Y-85325001D01*
X159198796Y-85349505D01*
X159195196Y-85373773D01*
X159189235Y-85397572D01*
X159180970Y-85420671D01*
X159170480Y-85442850D01*
X159157868Y-85463893D01*
X159143253Y-85483599D01*
X159126777Y-85501777D01*
X159108599Y-85518253D01*
X159088893Y-85532868D01*
X159067850Y-85545480D01*
X159045671Y-85555970D01*
X159022572Y-85564235D01*
X158998773Y-85570196D01*
X158974505Y-85573796D01*
X158950001Y-85575000D01*
X158049999Y-85575000D01*
X158025495Y-85573796D01*
X158001227Y-85570196D01*
X157977428Y-85564235D01*
X157954329Y-85555970D01*
X157932150Y-85545480D01*
X157911107Y-85532868D01*
X157891401Y-85518253D01*
X157873223Y-85501777D01*
X157856747Y-85483599D01*
X157842132Y-85463893D01*
X157829520Y-85442850D01*
X157819030Y-85420671D01*
X157810765Y-85397572D01*
X157804804Y-85373773D01*
X157801204Y-85349505D01*
X157800000Y-85325001D01*
X157800000Y-84674999D01*
X157801204Y-84650495D01*
X157804804Y-84626227D01*
X157810765Y-84602428D01*
X157819030Y-84579329D01*
X157829520Y-84557150D01*
X157842132Y-84536107D01*
X157856747Y-84516401D01*
X157873223Y-84498223D01*
X157891401Y-84481747D01*
X157911107Y-84467132D01*
X157932150Y-84454520D01*
X157954329Y-84444030D01*
X157977428Y-84435765D01*
X158001227Y-84429804D01*
X158025495Y-84426204D01*
X158049999Y-84425000D01*
X158950001Y-84425000D01*
X158974505Y-84426204D01*
X158974505Y-84426204D01*
G37*
D12*
X158500000Y-85000000D03*
G04 #@! TD*
D11*
G04 #@! TO.C,R101*
G36*
X158724505Y-93426204D02*
X158748773Y-93429804D01*
X158772572Y-93435765D01*
X158795671Y-93444030D01*
X158817850Y-93454520D01*
X158838893Y-93467132D01*
X158858599Y-93481747D01*
X158876777Y-93498223D01*
X158893253Y-93516401D01*
X158907868Y-93536107D01*
X158920480Y-93557150D01*
X158930970Y-93579329D01*
X158939235Y-93602428D01*
X158945196Y-93626227D01*
X158948796Y-93650495D01*
X158950000Y-93674999D01*
X158950000Y-94325001D01*
X158948796Y-94349505D01*
X158945196Y-94373773D01*
X158939235Y-94397572D01*
X158930970Y-94420671D01*
X158920480Y-94442850D01*
X158907868Y-94463893D01*
X158893253Y-94483599D01*
X158876777Y-94501777D01*
X158858599Y-94518253D01*
X158838893Y-94532868D01*
X158817850Y-94545480D01*
X158795671Y-94555970D01*
X158772572Y-94564235D01*
X158748773Y-94570196D01*
X158724505Y-94573796D01*
X158700001Y-94575000D01*
X157799999Y-94575000D01*
X157775495Y-94573796D01*
X157751227Y-94570196D01*
X157727428Y-94564235D01*
X157704329Y-94555970D01*
X157682150Y-94545480D01*
X157661107Y-94532868D01*
X157641401Y-94518253D01*
X157623223Y-94501777D01*
X157606747Y-94483599D01*
X157592132Y-94463893D01*
X157579520Y-94442850D01*
X157569030Y-94420671D01*
X157560765Y-94397572D01*
X157554804Y-94373773D01*
X157551204Y-94349505D01*
X157550000Y-94325001D01*
X157550000Y-93674999D01*
X157551204Y-93650495D01*
X157554804Y-93626227D01*
X157560765Y-93602428D01*
X157569030Y-93579329D01*
X157579520Y-93557150D01*
X157592132Y-93536107D01*
X157606747Y-93516401D01*
X157623223Y-93498223D01*
X157641401Y-93481747D01*
X157661107Y-93467132D01*
X157682150Y-93454520D01*
X157704329Y-93444030D01*
X157727428Y-93435765D01*
X157751227Y-93429804D01*
X157775495Y-93426204D01*
X157799999Y-93425000D01*
X158700001Y-93425000D01*
X158724505Y-93426204D01*
X158724505Y-93426204D01*
G37*
D12*
X158250000Y-94000000D03*
D11*
G36*
X158724505Y-91376204D02*
X158748773Y-91379804D01*
X158772572Y-91385765D01*
X158795671Y-91394030D01*
X158817850Y-91404520D01*
X158838893Y-91417132D01*
X158858599Y-91431747D01*
X158876777Y-91448223D01*
X158893253Y-91466401D01*
X158907868Y-91486107D01*
X158920480Y-91507150D01*
X158930970Y-91529329D01*
X158939235Y-91552428D01*
X158945196Y-91576227D01*
X158948796Y-91600495D01*
X158950000Y-91624999D01*
X158950000Y-92275001D01*
X158948796Y-92299505D01*
X158945196Y-92323773D01*
X158939235Y-92347572D01*
X158930970Y-92370671D01*
X158920480Y-92392850D01*
X158907868Y-92413893D01*
X158893253Y-92433599D01*
X158876777Y-92451777D01*
X158858599Y-92468253D01*
X158838893Y-92482868D01*
X158817850Y-92495480D01*
X158795671Y-92505970D01*
X158772572Y-92514235D01*
X158748773Y-92520196D01*
X158724505Y-92523796D01*
X158700001Y-92525000D01*
X157799999Y-92525000D01*
X157775495Y-92523796D01*
X157751227Y-92520196D01*
X157727428Y-92514235D01*
X157704329Y-92505970D01*
X157682150Y-92495480D01*
X157661107Y-92482868D01*
X157641401Y-92468253D01*
X157623223Y-92451777D01*
X157606747Y-92433599D01*
X157592132Y-92413893D01*
X157579520Y-92392850D01*
X157569030Y-92370671D01*
X157560765Y-92347572D01*
X157554804Y-92323773D01*
X157551204Y-92299505D01*
X157550000Y-92275001D01*
X157550000Y-91624999D01*
X157551204Y-91600495D01*
X157554804Y-91576227D01*
X157560765Y-91552428D01*
X157569030Y-91529329D01*
X157579520Y-91507150D01*
X157592132Y-91486107D01*
X157606747Y-91466401D01*
X157623223Y-91448223D01*
X157641401Y-91431747D01*
X157661107Y-91417132D01*
X157682150Y-91404520D01*
X157704329Y-91394030D01*
X157727428Y-91385765D01*
X157751227Y-91379804D01*
X157775495Y-91376204D01*
X157799999Y-91375000D01*
X158700001Y-91375000D01*
X158724505Y-91376204D01*
X158724505Y-91376204D01*
G37*
D12*
X158250000Y-91950000D03*
G04 #@! TD*
D11*
G04 #@! TO.C,R102*
G36*
X156224505Y-93401204D02*
X156248773Y-93404804D01*
X156272572Y-93410765D01*
X156295671Y-93419030D01*
X156317850Y-93429520D01*
X156338893Y-93442132D01*
X156358599Y-93456747D01*
X156376777Y-93473223D01*
X156393253Y-93491401D01*
X156407868Y-93511107D01*
X156420480Y-93532150D01*
X156430970Y-93554329D01*
X156439235Y-93577428D01*
X156445196Y-93601227D01*
X156448796Y-93625495D01*
X156450000Y-93649999D01*
X156450000Y-94300001D01*
X156448796Y-94324505D01*
X156445196Y-94348773D01*
X156439235Y-94372572D01*
X156430970Y-94395671D01*
X156420480Y-94417850D01*
X156407868Y-94438893D01*
X156393253Y-94458599D01*
X156376777Y-94476777D01*
X156358599Y-94493253D01*
X156338893Y-94507868D01*
X156317850Y-94520480D01*
X156295671Y-94530970D01*
X156272572Y-94539235D01*
X156248773Y-94545196D01*
X156224505Y-94548796D01*
X156200001Y-94550000D01*
X155299999Y-94550000D01*
X155275495Y-94548796D01*
X155251227Y-94545196D01*
X155227428Y-94539235D01*
X155204329Y-94530970D01*
X155182150Y-94520480D01*
X155161107Y-94507868D01*
X155141401Y-94493253D01*
X155123223Y-94476777D01*
X155106747Y-94458599D01*
X155092132Y-94438893D01*
X155079520Y-94417850D01*
X155069030Y-94395671D01*
X155060765Y-94372572D01*
X155054804Y-94348773D01*
X155051204Y-94324505D01*
X155050000Y-94300001D01*
X155050000Y-93649999D01*
X155051204Y-93625495D01*
X155054804Y-93601227D01*
X155060765Y-93577428D01*
X155069030Y-93554329D01*
X155079520Y-93532150D01*
X155092132Y-93511107D01*
X155106747Y-93491401D01*
X155123223Y-93473223D01*
X155141401Y-93456747D01*
X155161107Y-93442132D01*
X155182150Y-93429520D01*
X155204329Y-93419030D01*
X155227428Y-93410765D01*
X155251227Y-93404804D01*
X155275495Y-93401204D01*
X155299999Y-93400000D01*
X156200001Y-93400000D01*
X156224505Y-93401204D01*
X156224505Y-93401204D01*
G37*
D12*
X155750000Y-93975000D03*
D11*
G36*
X156224505Y-95451204D02*
X156248773Y-95454804D01*
X156272572Y-95460765D01*
X156295671Y-95469030D01*
X156317850Y-95479520D01*
X156338893Y-95492132D01*
X156358599Y-95506747D01*
X156376777Y-95523223D01*
X156393253Y-95541401D01*
X156407868Y-95561107D01*
X156420480Y-95582150D01*
X156430970Y-95604329D01*
X156439235Y-95627428D01*
X156445196Y-95651227D01*
X156448796Y-95675495D01*
X156450000Y-95699999D01*
X156450000Y-96350001D01*
X156448796Y-96374505D01*
X156445196Y-96398773D01*
X156439235Y-96422572D01*
X156430970Y-96445671D01*
X156420480Y-96467850D01*
X156407868Y-96488893D01*
X156393253Y-96508599D01*
X156376777Y-96526777D01*
X156358599Y-96543253D01*
X156338893Y-96557868D01*
X156317850Y-96570480D01*
X156295671Y-96580970D01*
X156272572Y-96589235D01*
X156248773Y-96595196D01*
X156224505Y-96598796D01*
X156200001Y-96600000D01*
X155299999Y-96600000D01*
X155275495Y-96598796D01*
X155251227Y-96595196D01*
X155227428Y-96589235D01*
X155204329Y-96580970D01*
X155182150Y-96570480D01*
X155161107Y-96557868D01*
X155141401Y-96543253D01*
X155123223Y-96526777D01*
X155106747Y-96508599D01*
X155092132Y-96488893D01*
X155079520Y-96467850D01*
X155069030Y-96445671D01*
X155060765Y-96422572D01*
X155054804Y-96398773D01*
X155051204Y-96374505D01*
X155050000Y-96350001D01*
X155050000Y-95699999D01*
X155051204Y-95675495D01*
X155054804Y-95651227D01*
X155060765Y-95627428D01*
X155069030Y-95604329D01*
X155079520Y-95582150D01*
X155092132Y-95561107D01*
X155106747Y-95541401D01*
X155123223Y-95523223D01*
X155141401Y-95506747D01*
X155161107Y-95492132D01*
X155182150Y-95479520D01*
X155204329Y-95469030D01*
X155227428Y-95460765D01*
X155251227Y-95454804D01*
X155275495Y-95451204D01*
X155299999Y-95450000D01*
X156200001Y-95450000D01*
X156224505Y-95451204D01*
X156224505Y-95451204D01*
G37*
D12*
X155750000Y-96025000D03*
G04 #@! TD*
D11*
G04 #@! TO.C,R104*
G36*
X156224505Y-84451204D02*
X156248773Y-84454804D01*
X156272572Y-84460765D01*
X156295671Y-84469030D01*
X156317850Y-84479520D01*
X156338893Y-84492132D01*
X156358599Y-84506747D01*
X156376777Y-84523223D01*
X156393253Y-84541401D01*
X156407868Y-84561107D01*
X156420480Y-84582150D01*
X156430970Y-84604329D01*
X156439235Y-84627428D01*
X156445196Y-84651227D01*
X156448796Y-84675495D01*
X156450000Y-84699999D01*
X156450000Y-85350001D01*
X156448796Y-85374505D01*
X156445196Y-85398773D01*
X156439235Y-85422572D01*
X156430970Y-85445671D01*
X156420480Y-85467850D01*
X156407868Y-85488893D01*
X156393253Y-85508599D01*
X156376777Y-85526777D01*
X156358599Y-85543253D01*
X156338893Y-85557868D01*
X156317850Y-85570480D01*
X156295671Y-85580970D01*
X156272572Y-85589235D01*
X156248773Y-85595196D01*
X156224505Y-85598796D01*
X156200001Y-85600000D01*
X155299999Y-85600000D01*
X155275495Y-85598796D01*
X155251227Y-85595196D01*
X155227428Y-85589235D01*
X155204329Y-85580970D01*
X155182150Y-85570480D01*
X155161107Y-85557868D01*
X155141401Y-85543253D01*
X155123223Y-85526777D01*
X155106747Y-85508599D01*
X155092132Y-85488893D01*
X155079520Y-85467850D01*
X155069030Y-85445671D01*
X155060765Y-85422572D01*
X155054804Y-85398773D01*
X155051204Y-85374505D01*
X155050000Y-85350001D01*
X155050000Y-84699999D01*
X155051204Y-84675495D01*
X155054804Y-84651227D01*
X155060765Y-84627428D01*
X155069030Y-84604329D01*
X155079520Y-84582150D01*
X155092132Y-84561107D01*
X155106747Y-84541401D01*
X155123223Y-84523223D01*
X155141401Y-84506747D01*
X155161107Y-84492132D01*
X155182150Y-84479520D01*
X155204329Y-84469030D01*
X155227428Y-84460765D01*
X155251227Y-84454804D01*
X155275495Y-84451204D01*
X155299999Y-84450000D01*
X156200001Y-84450000D01*
X156224505Y-84451204D01*
X156224505Y-84451204D01*
G37*
D12*
X155750000Y-85025000D03*
D11*
G36*
X156224505Y-82401204D02*
X156248773Y-82404804D01*
X156272572Y-82410765D01*
X156295671Y-82419030D01*
X156317850Y-82429520D01*
X156338893Y-82442132D01*
X156358599Y-82456747D01*
X156376777Y-82473223D01*
X156393253Y-82491401D01*
X156407868Y-82511107D01*
X156420480Y-82532150D01*
X156430970Y-82554329D01*
X156439235Y-82577428D01*
X156445196Y-82601227D01*
X156448796Y-82625495D01*
X156450000Y-82649999D01*
X156450000Y-83300001D01*
X156448796Y-83324505D01*
X156445196Y-83348773D01*
X156439235Y-83372572D01*
X156430970Y-83395671D01*
X156420480Y-83417850D01*
X156407868Y-83438893D01*
X156393253Y-83458599D01*
X156376777Y-83476777D01*
X156358599Y-83493253D01*
X156338893Y-83507868D01*
X156317850Y-83520480D01*
X156295671Y-83530970D01*
X156272572Y-83539235D01*
X156248773Y-83545196D01*
X156224505Y-83548796D01*
X156200001Y-83550000D01*
X155299999Y-83550000D01*
X155275495Y-83548796D01*
X155251227Y-83545196D01*
X155227428Y-83539235D01*
X155204329Y-83530970D01*
X155182150Y-83520480D01*
X155161107Y-83507868D01*
X155141401Y-83493253D01*
X155123223Y-83476777D01*
X155106747Y-83458599D01*
X155092132Y-83438893D01*
X155079520Y-83417850D01*
X155069030Y-83395671D01*
X155060765Y-83372572D01*
X155054804Y-83348773D01*
X155051204Y-83324505D01*
X155050000Y-83300001D01*
X155050000Y-82649999D01*
X155051204Y-82625495D01*
X155054804Y-82601227D01*
X155060765Y-82577428D01*
X155069030Y-82554329D01*
X155079520Y-82532150D01*
X155092132Y-82511107D01*
X155106747Y-82491401D01*
X155123223Y-82473223D01*
X155141401Y-82456747D01*
X155161107Y-82442132D01*
X155182150Y-82429520D01*
X155204329Y-82419030D01*
X155227428Y-82410765D01*
X155251227Y-82404804D01*
X155275495Y-82401204D01*
X155299999Y-82400000D01*
X156200001Y-82400000D01*
X156224505Y-82401204D01*
X156224505Y-82401204D01*
G37*
D12*
X155750000Y-82975000D03*
G04 #@! TD*
M02*
