G04 #@! TF.GenerationSoftware,KiCad,Pcbnew,5.0.0*
G04 #@! TF.CreationDate,2018-08-13T16:41:50-03:00*
G04 #@! TF.ProjectId,drv18,64727631382E6B696361645F70636200,rev?*
G04 #@! TF.SameCoordinates,Original*
G04 #@! TF.FileFunction,Copper,L2,Bot,Signal*
G04 #@! TF.FilePolarity,Positive*
%FSLAX46Y46*%
G04 Gerber Fmt 4.6, Leading zero omitted, Abs format (unit mm)*
G04 Created by KiCad (PCBNEW 5.0.0) date Mon Aug 13 16:41:50 2018*
%MOMM*%
%LPD*%
G01*
G04 APERTURE LIST*
G04 #@! TA.AperFunction,SMDPad,CuDef*
%ADD10R,1.700000X1.300000*%
G04 #@! TD*
G04 #@! TA.AperFunction,Conductor*
%ADD11C,0.100000*%
G04 #@! TD*
G04 #@! TA.AperFunction,SMDPad,CuDef*
%ADD12C,1.150000*%
G04 #@! TD*
G04 #@! TA.AperFunction,SMDPad,CuDef*
%ADD13C,1.425000*%
G04 #@! TD*
G04 #@! TA.AperFunction,ComponentPad*
%ADD14R,2.500000X1.700000*%
G04 #@! TD*
G04 #@! TA.AperFunction,ComponentPad*
%ADD15O,2.500000X1.700000*%
G04 #@! TD*
G04 #@! TA.AperFunction,SMDPad,CuDef*
%ADD16R,1.550000X0.600000*%
G04 #@! TD*
G04 #@! TA.AperFunction,ViaPad*
%ADD17C,1.500000*%
G04 #@! TD*
G04 #@! TA.AperFunction,Conductor*
%ADD18C,0.508000*%
G04 #@! TD*
G04 #@! TA.AperFunction,Conductor*
%ADD19C,0.254000*%
G04 #@! TD*
G04 APERTURE END LIST*
D10*
G04 #@! TO.P,D102,1*
G04 #@! TO.N,Net-(C103-Pad1)*
X163000000Y-89000000D03*
G04 #@! TO.P,D102,2*
G04 #@! TO.N,+12V*
X163000000Y-85500000D03*
G04 #@! TD*
D11*
G04 #@! TO.N,Net-(C103-Pad1)*
G04 #@! TO.C,C103*
G36*
X163474505Y-90376204D02*
X163498773Y-90379804D01*
X163522572Y-90385765D01*
X163545671Y-90394030D01*
X163567850Y-90404520D01*
X163588893Y-90417132D01*
X163608599Y-90431747D01*
X163626777Y-90448223D01*
X163643253Y-90466401D01*
X163657868Y-90486107D01*
X163670480Y-90507150D01*
X163680970Y-90529329D01*
X163689235Y-90552428D01*
X163695196Y-90576227D01*
X163698796Y-90600495D01*
X163700000Y-90624999D01*
X163700000Y-91275001D01*
X163698796Y-91299505D01*
X163695196Y-91323773D01*
X163689235Y-91347572D01*
X163680970Y-91370671D01*
X163670480Y-91392850D01*
X163657868Y-91413893D01*
X163643253Y-91433599D01*
X163626777Y-91451777D01*
X163608599Y-91468253D01*
X163588893Y-91482868D01*
X163567850Y-91495480D01*
X163545671Y-91505970D01*
X163522572Y-91514235D01*
X163498773Y-91520196D01*
X163474505Y-91523796D01*
X163450001Y-91525000D01*
X162549999Y-91525000D01*
X162525495Y-91523796D01*
X162501227Y-91520196D01*
X162477428Y-91514235D01*
X162454329Y-91505970D01*
X162432150Y-91495480D01*
X162411107Y-91482868D01*
X162391401Y-91468253D01*
X162373223Y-91451777D01*
X162356747Y-91433599D01*
X162342132Y-91413893D01*
X162329520Y-91392850D01*
X162319030Y-91370671D01*
X162310765Y-91347572D01*
X162304804Y-91323773D01*
X162301204Y-91299505D01*
X162300000Y-91275001D01*
X162300000Y-90624999D01*
X162301204Y-90600495D01*
X162304804Y-90576227D01*
X162310765Y-90552428D01*
X162319030Y-90529329D01*
X162329520Y-90507150D01*
X162342132Y-90486107D01*
X162356747Y-90466401D01*
X162373223Y-90448223D01*
X162391401Y-90431747D01*
X162411107Y-90417132D01*
X162432150Y-90404520D01*
X162454329Y-90394030D01*
X162477428Y-90385765D01*
X162501227Y-90379804D01*
X162525495Y-90376204D01*
X162549999Y-90375000D01*
X163450001Y-90375000D01*
X163474505Y-90376204D01*
X163474505Y-90376204D01*
G37*
D12*
G04 #@! TD*
G04 #@! TO.P,C103,1*
G04 #@! TO.N,Net-(C103-Pad1)*
X163000000Y-90950000D03*
D11*
G04 #@! TO.N,/HS*
G04 #@! TO.C,C103*
G36*
X163474505Y-92426204D02*
X163498773Y-92429804D01*
X163522572Y-92435765D01*
X163545671Y-92444030D01*
X163567850Y-92454520D01*
X163588893Y-92467132D01*
X163608599Y-92481747D01*
X163626777Y-92498223D01*
X163643253Y-92516401D01*
X163657868Y-92536107D01*
X163670480Y-92557150D01*
X163680970Y-92579329D01*
X163689235Y-92602428D01*
X163695196Y-92626227D01*
X163698796Y-92650495D01*
X163700000Y-92674999D01*
X163700000Y-93325001D01*
X163698796Y-93349505D01*
X163695196Y-93373773D01*
X163689235Y-93397572D01*
X163680970Y-93420671D01*
X163670480Y-93442850D01*
X163657868Y-93463893D01*
X163643253Y-93483599D01*
X163626777Y-93501777D01*
X163608599Y-93518253D01*
X163588893Y-93532868D01*
X163567850Y-93545480D01*
X163545671Y-93555970D01*
X163522572Y-93564235D01*
X163498773Y-93570196D01*
X163474505Y-93573796D01*
X163450001Y-93575000D01*
X162549999Y-93575000D01*
X162525495Y-93573796D01*
X162501227Y-93570196D01*
X162477428Y-93564235D01*
X162454329Y-93555970D01*
X162432150Y-93545480D01*
X162411107Y-93532868D01*
X162391401Y-93518253D01*
X162373223Y-93501777D01*
X162356747Y-93483599D01*
X162342132Y-93463893D01*
X162329520Y-93442850D01*
X162319030Y-93420671D01*
X162310765Y-93397572D01*
X162304804Y-93373773D01*
X162301204Y-93349505D01*
X162300000Y-93325001D01*
X162300000Y-92674999D01*
X162301204Y-92650495D01*
X162304804Y-92626227D01*
X162310765Y-92602428D01*
X162319030Y-92579329D01*
X162329520Y-92557150D01*
X162342132Y-92536107D01*
X162356747Y-92516401D01*
X162373223Y-92498223D01*
X162391401Y-92481747D01*
X162411107Y-92467132D01*
X162432150Y-92454520D01*
X162454329Y-92444030D01*
X162477428Y-92435765D01*
X162501227Y-92429804D01*
X162525495Y-92426204D01*
X162549999Y-92425000D01*
X163450001Y-92425000D01*
X163474505Y-92426204D01*
X163474505Y-92426204D01*
G37*
D12*
G04 #@! TD*
G04 #@! TO.P,C103,2*
G04 #@! TO.N,/HS*
X163000000Y-93000000D03*
D11*
G04 #@! TO.N,GND*
G04 #@! TO.C,C104*
G36*
X157824505Y-86551204D02*
X157848773Y-86554804D01*
X157872572Y-86560765D01*
X157895671Y-86569030D01*
X157917850Y-86579520D01*
X157938893Y-86592132D01*
X157958599Y-86606747D01*
X157976777Y-86623223D01*
X157993253Y-86641401D01*
X158007868Y-86661107D01*
X158020480Y-86682150D01*
X158030970Y-86704329D01*
X158039235Y-86727428D01*
X158045196Y-86751227D01*
X158048796Y-86775495D01*
X158050000Y-86799999D01*
X158050000Y-87700001D01*
X158048796Y-87724505D01*
X158045196Y-87748773D01*
X158039235Y-87772572D01*
X158030970Y-87795671D01*
X158020480Y-87817850D01*
X158007868Y-87838893D01*
X157993253Y-87858599D01*
X157976777Y-87876777D01*
X157958599Y-87893253D01*
X157938893Y-87907868D01*
X157917850Y-87920480D01*
X157895671Y-87930970D01*
X157872572Y-87939235D01*
X157848773Y-87945196D01*
X157824505Y-87948796D01*
X157800001Y-87950000D01*
X157149999Y-87950000D01*
X157125495Y-87948796D01*
X157101227Y-87945196D01*
X157077428Y-87939235D01*
X157054329Y-87930970D01*
X157032150Y-87920480D01*
X157011107Y-87907868D01*
X156991401Y-87893253D01*
X156973223Y-87876777D01*
X156956747Y-87858599D01*
X156942132Y-87838893D01*
X156929520Y-87817850D01*
X156919030Y-87795671D01*
X156910765Y-87772572D01*
X156904804Y-87748773D01*
X156901204Y-87724505D01*
X156900000Y-87700001D01*
X156900000Y-86799999D01*
X156901204Y-86775495D01*
X156904804Y-86751227D01*
X156910765Y-86727428D01*
X156919030Y-86704329D01*
X156929520Y-86682150D01*
X156942132Y-86661107D01*
X156956747Y-86641401D01*
X156973223Y-86623223D01*
X156991401Y-86606747D01*
X157011107Y-86592132D01*
X157032150Y-86579520D01*
X157054329Y-86569030D01*
X157077428Y-86560765D01*
X157101227Y-86554804D01*
X157125495Y-86551204D01*
X157149999Y-86550000D01*
X157800001Y-86550000D01*
X157824505Y-86551204D01*
X157824505Y-86551204D01*
G37*
D12*
G04 #@! TD*
G04 #@! TO.P,C104,2*
G04 #@! TO.N,GND*
X157475000Y-87250000D03*
D11*
G04 #@! TO.N,+12V*
G04 #@! TO.C,C104*
G36*
X159874505Y-86551204D02*
X159898773Y-86554804D01*
X159922572Y-86560765D01*
X159945671Y-86569030D01*
X159967850Y-86579520D01*
X159988893Y-86592132D01*
X160008599Y-86606747D01*
X160026777Y-86623223D01*
X160043253Y-86641401D01*
X160057868Y-86661107D01*
X160070480Y-86682150D01*
X160080970Y-86704329D01*
X160089235Y-86727428D01*
X160095196Y-86751227D01*
X160098796Y-86775495D01*
X160100000Y-86799999D01*
X160100000Y-87700001D01*
X160098796Y-87724505D01*
X160095196Y-87748773D01*
X160089235Y-87772572D01*
X160080970Y-87795671D01*
X160070480Y-87817850D01*
X160057868Y-87838893D01*
X160043253Y-87858599D01*
X160026777Y-87876777D01*
X160008599Y-87893253D01*
X159988893Y-87907868D01*
X159967850Y-87920480D01*
X159945671Y-87930970D01*
X159922572Y-87939235D01*
X159898773Y-87945196D01*
X159874505Y-87948796D01*
X159850001Y-87950000D01*
X159199999Y-87950000D01*
X159175495Y-87948796D01*
X159151227Y-87945196D01*
X159127428Y-87939235D01*
X159104329Y-87930970D01*
X159082150Y-87920480D01*
X159061107Y-87907868D01*
X159041401Y-87893253D01*
X159023223Y-87876777D01*
X159006747Y-87858599D01*
X158992132Y-87838893D01*
X158979520Y-87817850D01*
X158969030Y-87795671D01*
X158960765Y-87772572D01*
X158954804Y-87748773D01*
X158951204Y-87724505D01*
X158950000Y-87700001D01*
X158950000Y-86799999D01*
X158951204Y-86775495D01*
X158954804Y-86751227D01*
X158960765Y-86727428D01*
X158969030Y-86704329D01*
X158979520Y-86682150D01*
X158992132Y-86661107D01*
X159006747Y-86641401D01*
X159023223Y-86623223D01*
X159041401Y-86606747D01*
X159061107Y-86592132D01*
X159082150Y-86579520D01*
X159104329Y-86569030D01*
X159127428Y-86560765D01*
X159151227Y-86554804D01*
X159175495Y-86551204D01*
X159199999Y-86550000D01*
X159850001Y-86550000D01*
X159874505Y-86551204D01*
X159874505Y-86551204D01*
G37*
D12*
G04 #@! TD*
G04 #@! TO.P,C104,1*
G04 #@! TO.N,+12V*
X159525000Y-87250000D03*
D11*
G04 #@! TO.N,+12V*
G04 #@! TO.C,C102*
G36*
X160474504Y-83176204D02*
X160498773Y-83179804D01*
X160522571Y-83185765D01*
X160545671Y-83194030D01*
X160567849Y-83204520D01*
X160588893Y-83217133D01*
X160608598Y-83231747D01*
X160626777Y-83248223D01*
X160643253Y-83266402D01*
X160657867Y-83286107D01*
X160670480Y-83307151D01*
X160680970Y-83329329D01*
X160689235Y-83352429D01*
X160695196Y-83376227D01*
X160698796Y-83400496D01*
X160700000Y-83425000D01*
X160700000Y-85575000D01*
X160698796Y-85599504D01*
X160695196Y-85623773D01*
X160689235Y-85647571D01*
X160680970Y-85670671D01*
X160670480Y-85692849D01*
X160657867Y-85713893D01*
X160643253Y-85733598D01*
X160626777Y-85751777D01*
X160608598Y-85768253D01*
X160588893Y-85782867D01*
X160567849Y-85795480D01*
X160545671Y-85805970D01*
X160522571Y-85814235D01*
X160498773Y-85820196D01*
X160474504Y-85823796D01*
X160450000Y-85825000D01*
X159525000Y-85825000D01*
X159500496Y-85823796D01*
X159476227Y-85820196D01*
X159452429Y-85814235D01*
X159429329Y-85805970D01*
X159407151Y-85795480D01*
X159386107Y-85782867D01*
X159366402Y-85768253D01*
X159348223Y-85751777D01*
X159331747Y-85733598D01*
X159317133Y-85713893D01*
X159304520Y-85692849D01*
X159294030Y-85670671D01*
X159285765Y-85647571D01*
X159279804Y-85623773D01*
X159276204Y-85599504D01*
X159275000Y-85575000D01*
X159275000Y-83425000D01*
X159276204Y-83400496D01*
X159279804Y-83376227D01*
X159285765Y-83352429D01*
X159294030Y-83329329D01*
X159304520Y-83307151D01*
X159317133Y-83286107D01*
X159331747Y-83266402D01*
X159348223Y-83248223D01*
X159366402Y-83231747D01*
X159386107Y-83217133D01*
X159407151Y-83204520D01*
X159429329Y-83194030D01*
X159452429Y-83185765D01*
X159476227Y-83179804D01*
X159500496Y-83176204D01*
X159525000Y-83175000D01*
X160450000Y-83175000D01*
X160474504Y-83176204D01*
X160474504Y-83176204D01*
G37*
D13*
G04 #@! TD*
G04 #@! TO.P,C102,1*
G04 #@! TO.N,+12V*
X159987500Y-84500000D03*
D11*
G04 #@! TO.N,GND*
G04 #@! TO.C,C102*
G36*
X157499504Y-83176204D02*
X157523773Y-83179804D01*
X157547571Y-83185765D01*
X157570671Y-83194030D01*
X157592849Y-83204520D01*
X157613893Y-83217133D01*
X157633598Y-83231747D01*
X157651777Y-83248223D01*
X157668253Y-83266402D01*
X157682867Y-83286107D01*
X157695480Y-83307151D01*
X157705970Y-83329329D01*
X157714235Y-83352429D01*
X157720196Y-83376227D01*
X157723796Y-83400496D01*
X157725000Y-83425000D01*
X157725000Y-85575000D01*
X157723796Y-85599504D01*
X157720196Y-85623773D01*
X157714235Y-85647571D01*
X157705970Y-85670671D01*
X157695480Y-85692849D01*
X157682867Y-85713893D01*
X157668253Y-85733598D01*
X157651777Y-85751777D01*
X157633598Y-85768253D01*
X157613893Y-85782867D01*
X157592849Y-85795480D01*
X157570671Y-85805970D01*
X157547571Y-85814235D01*
X157523773Y-85820196D01*
X157499504Y-85823796D01*
X157475000Y-85825000D01*
X156550000Y-85825000D01*
X156525496Y-85823796D01*
X156501227Y-85820196D01*
X156477429Y-85814235D01*
X156454329Y-85805970D01*
X156432151Y-85795480D01*
X156411107Y-85782867D01*
X156391402Y-85768253D01*
X156373223Y-85751777D01*
X156356747Y-85733598D01*
X156342133Y-85713893D01*
X156329520Y-85692849D01*
X156319030Y-85670671D01*
X156310765Y-85647571D01*
X156304804Y-85623773D01*
X156301204Y-85599504D01*
X156300000Y-85575000D01*
X156300000Y-83425000D01*
X156301204Y-83400496D01*
X156304804Y-83376227D01*
X156310765Y-83352429D01*
X156319030Y-83329329D01*
X156329520Y-83307151D01*
X156342133Y-83286107D01*
X156356747Y-83266402D01*
X156373223Y-83248223D01*
X156391402Y-83231747D01*
X156411107Y-83217133D01*
X156432151Y-83204520D01*
X156454329Y-83194030D01*
X156477429Y-83185765D01*
X156501227Y-83179804D01*
X156525496Y-83176204D01*
X156550000Y-83175000D01*
X157475000Y-83175000D01*
X157499504Y-83176204D01*
X157499504Y-83176204D01*
G37*
D13*
G04 #@! TD*
G04 #@! TO.P,C102,2*
G04 #@! TO.N,GND*
X157012500Y-84500000D03*
D14*
G04 #@! TO.P,J101,1*
G04 #@! TO.N,/HG*
X168750000Y-97000000D03*
D15*
G04 #@! TO.P,J101,2*
G04 #@! TO.N,/HS*
X168750000Y-94460000D03*
G04 #@! TO.P,J101,3*
G04 #@! TO.N,/LG*
X168750000Y-91920000D03*
G04 #@! TO.P,J101,4*
G04 #@! TO.N,GND*
X168750000Y-89380000D03*
G04 #@! TO.P,J101,5*
G04 #@! TO.N,+12V*
X168750000Y-86840000D03*
G04 #@! TO.P,J101,6*
G04 #@! TO.N,/PWM_IN*
X168750000Y-84300000D03*
G04 #@! TO.P,J101,7*
G04 #@! TO.N,GND*
X168750000Y-81760000D03*
G04 #@! TD*
D16*
G04 #@! TO.P,U101,1*
G04 #@! TO.N,+12V*
X159450000Y-89595000D03*
G04 #@! TO.P,U101,2*
G04 #@! TO.N,Net-(C103-Pad1)*
X159450000Y-90865000D03*
G04 #@! TO.P,U101,3*
G04 #@! TO.N,Net-(D101-Pad1)*
X159450000Y-92135000D03*
G04 #@! TO.P,U101,4*
G04 #@! TO.N,/HS*
X159450000Y-93405000D03*
G04 #@! TO.P,U101,5*
G04 #@! TO.N,Net-(R103-Pad2)*
X154050000Y-93405000D03*
G04 #@! TO.P,U101,6*
G04 #@! TO.N,/PWM_IN*
X154050000Y-92135000D03*
G04 #@! TO.P,U101,7*
G04 #@! TO.N,GND*
X154050000Y-90865000D03*
G04 #@! TO.P,U101,8*
G04 #@! TO.N,Net-(D105-Pad1)*
X154050000Y-89595000D03*
G04 #@! TD*
D11*
G04 #@! TO.N,Net-(R103-Pad2)*
G04 #@! TO.C,R103*
G36*
X151800505Y-92396204D02*
X151824773Y-92399804D01*
X151848572Y-92405765D01*
X151871671Y-92414030D01*
X151893850Y-92424520D01*
X151914893Y-92437132D01*
X151934599Y-92451747D01*
X151952777Y-92468223D01*
X151969253Y-92486401D01*
X151983868Y-92506107D01*
X151996480Y-92527150D01*
X152006970Y-92549329D01*
X152015235Y-92572428D01*
X152021196Y-92596227D01*
X152024796Y-92620495D01*
X152026000Y-92644999D01*
X152026000Y-93295001D01*
X152024796Y-93319505D01*
X152021196Y-93343773D01*
X152015235Y-93367572D01*
X152006970Y-93390671D01*
X151996480Y-93412850D01*
X151983868Y-93433893D01*
X151969253Y-93453599D01*
X151952777Y-93471777D01*
X151934599Y-93488253D01*
X151914893Y-93502868D01*
X151893850Y-93515480D01*
X151871671Y-93525970D01*
X151848572Y-93534235D01*
X151824773Y-93540196D01*
X151800505Y-93543796D01*
X151776001Y-93545000D01*
X150875999Y-93545000D01*
X150851495Y-93543796D01*
X150827227Y-93540196D01*
X150803428Y-93534235D01*
X150780329Y-93525970D01*
X150758150Y-93515480D01*
X150737107Y-93502868D01*
X150717401Y-93488253D01*
X150699223Y-93471777D01*
X150682747Y-93453599D01*
X150668132Y-93433893D01*
X150655520Y-93412850D01*
X150645030Y-93390671D01*
X150636765Y-93367572D01*
X150630804Y-93343773D01*
X150627204Y-93319505D01*
X150626000Y-93295001D01*
X150626000Y-92644999D01*
X150627204Y-92620495D01*
X150630804Y-92596227D01*
X150636765Y-92572428D01*
X150645030Y-92549329D01*
X150655520Y-92527150D01*
X150668132Y-92506107D01*
X150682747Y-92486401D01*
X150699223Y-92468223D01*
X150717401Y-92451747D01*
X150737107Y-92437132D01*
X150758150Y-92424520D01*
X150780329Y-92414030D01*
X150803428Y-92405765D01*
X150827227Y-92399804D01*
X150851495Y-92396204D01*
X150875999Y-92395000D01*
X151776001Y-92395000D01*
X151800505Y-92396204D01*
X151800505Y-92396204D01*
G37*
D12*
G04 #@! TD*
G04 #@! TO.P,R103,2*
G04 #@! TO.N,Net-(R103-Pad2)*
X151326000Y-92970000D03*
D11*
G04 #@! TO.N,GND*
G04 #@! TO.C,R103*
G36*
X151800505Y-90346204D02*
X151824773Y-90349804D01*
X151848572Y-90355765D01*
X151871671Y-90364030D01*
X151893850Y-90374520D01*
X151914893Y-90387132D01*
X151934599Y-90401747D01*
X151952777Y-90418223D01*
X151969253Y-90436401D01*
X151983868Y-90456107D01*
X151996480Y-90477150D01*
X152006970Y-90499329D01*
X152015235Y-90522428D01*
X152021196Y-90546227D01*
X152024796Y-90570495D01*
X152026000Y-90594999D01*
X152026000Y-91245001D01*
X152024796Y-91269505D01*
X152021196Y-91293773D01*
X152015235Y-91317572D01*
X152006970Y-91340671D01*
X151996480Y-91362850D01*
X151983868Y-91383893D01*
X151969253Y-91403599D01*
X151952777Y-91421777D01*
X151934599Y-91438253D01*
X151914893Y-91452868D01*
X151893850Y-91465480D01*
X151871671Y-91475970D01*
X151848572Y-91484235D01*
X151824773Y-91490196D01*
X151800505Y-91493796D01*
X151776001Y-91495000D01*
X150875999Y-91495000D01*
X150851495Y-91493796D01*
X150827227Y-91490196D01*
X150803428Y-91484235D01*
X150780329Y-91475970D01*
X150758150Y-91465480D01*
X150737107Y-91452868D01*
X150717401Y-91438253D01*
X150699223Y-91421777D01*
X150682747Y-91403599D01*
X150668132Y-91383893D01*
X150655520Y-91362850D01*
X150645030Y-91340671D01*
X150636765Y-91317572D01*
X150630804Y-91293773D01*
X150627204Y-91269505D01*
X150626000Y-91245001D01*
X150626000Y-90594999D01*
X150627204Y-90570495D01*
X150630804Y-90546227D01*
X150636765Y-90522428D01*
X150645030Y-90499329D01*
X150655520Y-90477150D01*
X150668132Y-90456107D01*
X150682747Y-90436401D01*
X150699223Y-90418223D01*
X150717401Y-90401747D01*
X150737107Y-90387132D01*
X150758150Y-90374520D01*
X150780329Y-90364030D01*
X150803428Y-90355765D01*
X150827227Y-90349804D01*
X150851495Y-90346204D01*
X150875999Y-90345000D01*
X151776001Y-90345000D01*
X151800505Y-90346204D01*
X151800505Y-90346204D01*
G37*
D12*
G04 #@! TD*
G04 #@! TO.P,R103,1*
G04 #@! TO.N,GND*
X151326000Y-90920000D03*
D17*
G04 #@! TO.N,/LG*
X165750000Y-91920000D03*
G04 #@! TO.N,Net-(D105-Pad1)*
X152342000Y-88144000D03*
G04 #@! TO.N,GND*
X165750000Y-81750000D03*
X165750000Y-89500000D03*
G04 #@! TO.N,/HG*
X165750000Y-97000000D03*
G04 #@! TO.N,Net-(D101-Pad1)*
X157750000Y-96000000D03*
G04 #@! TO.N,/HS*
X165750000Y-94500000D03*
G04 #@! TO.N,+12V*
X165750000Y-86750000D03*
G04 #@! TO.N,/PWM_IN*
X165750000Y-84250000D03*
G04 #@! TD*
D18*
G04 #@! TO.N,/LG*
X165750000Y-91920000D02*
X168750000Y-91920000D01*
G04 #@! TO.N,Net-(D105-Pad1)*
X154050000Y-89595000D02*
X153575000Y-89595000D01*
X153575000Y-89595000D02*
X152342000Y-88362000D01*
X152342000Y-88362000D02*
X152342000Y-88144000D01*
G04 #@! TO.N,Net-(R103-Pad2)*
X151761000Y-93405000D02*
X151326000Y-92970000D01*
X154050000Y-93405000D02*
X151761000Y-93405000D01*
G04 #@! TO.N,GND*
X165870000Y-89380000D02*
X165750000Y-89500000D01*
X168750000Y-89380000D02*
X165870000Y-89380000D01*
G04 #@! TO.N,/HG*
X168750000Y-97000000D02*
X165750000Y-97000000D01*
G04 #@! TO.N,Net-(D101-Pad1)*
X158370200Y-92135000D02*
X159450000Y-92135000D01*
X157750000Y-92755200D02*
X158370200Y-92135000D01*
X157750000Y-96000000D02*
X157750000Y-92755200D01*
G04 #@! TO.N,/HS*
X162620000Y-93405000D02*
X163000000Y-93025000D01*
X159200000Y-93405000D02*
X162620000Y-93405000D01*
X162595000Y-93405000D02*
X163000000Y-93000000D01*
X165790000Y-94460000D02*
X165750000Y-94500000D01*
X168750000Y-94460000D02*
X165790000Y-94460000D01*
X164500000Y-94500000D02*
X165750000Y-94500000D01*
X163000000Y-93000000D02*
X164500000Y-94500000D01*
G04 #@! TO.N,+12V*
X168660000Y-86750000D02*
X168750000Y-86840000D01*
X165000001Y-86000001D02*
X165750000Y-86750000D01*
X164500000Y-85500000D02*
X165000001Y-86000001D01*
X163000000Y-85500000D02*
X164500000Y-85500000D01*
X165840000Y-86840000D02*
X165750000Y-86750000D01*
X168750000Y-86840000D02*
X165840000Y-86840000D01*
X160987500Y-85500000D02*
X159987500Y-84500000D01*
X163000000Y-85500000D02*
X160987500Y-85500000D01*
X159525000Y-84962500D02*
X159987500Y-84500000D01*
X159525000Y-87250000D02*
X159525000Y-84962500D01*
X159450000Y-87325000D02*
X159525000Y-87250000D01*
X159450000Y-89595000D02*
X159450000Y-87325000D01*
G04 #@! TO.N,Net-(C103-Pad1)*
X162890000Y-90865000D02*
X163000000Y-90975000D01*
X162915000Y-90865000D02*
X163000000Y-90950000D01*
X159450000Y-90865000D02*
X162915000Y-90865000D01*
X163000000Y-89000000D02*
X163000000Y-90950000D01*
G04 #@! TO.N,/PWM_IN*
X154050000Y-92135000D02*
X154525000Y-92135000D01*
X165800000Y-84300000D02*
X165750000Y-84250000D01*
X168750000Y-84300000D02*
X165800000Y-84300000D01*
X148786000Y-87890000D02*
X154426000Y-82250000D01*
X162676000Y-84000000D02*
X165500000Y-84000000D01*
X148786000Y-93224000D02*
X148786000Y-87890000D01*
X165500000Y-84000000D02*
X165750000Y-84250000D01*
X154426000Y-82250000D02*
X160926000Y-82250000D01*
X155129800Y-92135000D02*
X155750000Y-92755200D01*
X154050000Y-92135000D02*
X155129800Y-92135000D01*
X155750000Y-93968722D02*
X155218722Y-94500000D01*
X160926000Y-82250000D02*
X162676000Y-84000000D01*
X155750000Y-92755200D02*
X155750000Y-93968722D01*
X155218722Y-94500000D02*
X150062000Y-94500000D01*
X150062000Y-94500000D02*
X148786000Y-93224000D01*
G04 #@! TD*
D19*
G04 #@! TO.N,GND*
G36*
X170885201Y-99321200D02*
X146498800Y-99321200D01*
X146498800Y-87890000D01*
X148086765Y-87890000D01*
X148100201Y-87957547D01*
X148100200Y-93156458D01*
X148086765Y-93224000D01*
X148100200Y-93291542D01*
X148139991Y-93491585D01*
X148291566Y-93718433D01*
X148348829Y-93756695D01*
X149529306Y-94937174D01*
X149567566Y-94994434D01*
X149624825Y-95032693D01*
X149624826Y-95032694D01*
X149794414Y-95146009D01*
X150062000Y-95199235D01*
X150129542Y-95185800D01*
X155151180Y-95185800D01*
X155218722Y-95199235D01*
X155286264Y-95185800D01*
X155286265Y-95185800D01*
X155486308Y-95146009D01*
X155713156Y-94994434D01*
X155751419Y-94937169D01*
X156187173Y-94501416D01*
X156244434Y-94463156D01*
X156396009Y-94236308D01*
X156435800Y-94036265D01*
X156449235Y-93968722D01*
X156435800Y-93901180D01*
X156435800Y-92822742D01*
X156449235Y-92755199D01*
X156396009Y-92487614D01*
X156282693Y-92318026D01*
X156244433Y-92260766D01*
X156187173Y-92222506D01*
X155662497Y-91697831D01*
X155624234Y-91640566D01*
X155397386Y-91488991D01*
X155379584Y-91485450D01*
X155460000Y-91291310D01*
X155460000Y-91150750D01*
X155301250Y-90992000D01*
X154177000Y-90992000D01*
X154177000Y-91012000D01*
X153923000Y-91012000D01*
X153923000Y-90992000D01*
X152798750Y-90992000D01*
X152640000Y-91150750D01*
X152640000Y-91184750D01*
X152502250Y-91047000D01*
X151453000Y-91047000D01*
X151453000Y-91067000D01*
X151199000Y-91067000D01*
X151199000Y-91047000D01*
X150149750Y-91047000D01*
X149991000Y-91205750D01*
X149991000Y-91621309D01*
X150087673Y-91854698D01*
X150266301Y-92033327D01*
X150455553Y-92111718D01*
X150387913Y-92156913D01*
X150238284Y-92380849D01*
X150185741Y-92644999D01*
X150185741Y-93295001D01*
X150238284Y-93559151D01*
X150387913Y-93783087D01*
X150434477Y-93814200D01*
X150346068Y-93814200D01*
X149471800Y-92939934D01*
X149471800Y-90218691D01*
X149991000Y-90218691D01*
X149991000Y-90634250D01*
X150149750Y-90793000D01*
X151199000Y-90793000D01*
X151199000Y-89868750D01*
X151040250Y-89710000D01*
X150499690Y-89710000D01*
X150266301Y-89806673D01*
X150087673Y-89985302D01*
X149991000Y-90218691D01*
X149471800Y-90218691D01*
X149471800Y-88174066D01*
X149736941Y-87908925D01*
X151160200Y-87908925D01*
X151160200Y-88379075D01*
X151340118Y-88813436D01*
X151672564Y-89145882D01*
X152106925Y-89325800D01*
X152335934Y-89325800D01*
X152834741Y-89824608D01*
X152834741Y-89895000D01*
X152868254Y-90063480D01*
X152872356Y-90069619D01*
X152736673Y-90205301D01*
X152661000Y-90387992D01*
X152661000Y-90218691D01*
X152564327Y-89985302D01*
X152385699Y-89806673D01*
X152152310Y-89710000D01*
X151611750Y-89710000D01*
X151453000Y-89868750D01*
X151453000Y-90793000D01*
X152502250Y-90793000D01*
X152661000Y-90634250D01*
X152661000Y-90600250D01*
X152798750Y-90738000D01*
X153923000Y-90738000D01*
X153923000Y-90718000D01*
X154177000Y-90718000D01*
X154177000Y-90738000D01*
X155301250Y-90738000D01*
X155460000Y-90579250D01*
X155460000Y-90438690D01*
X155363327Y-90205301D01*
X155227644Y-90069619D01*
X155231746Y-90063480D01*
X155265259Y-89895000D01*
X155265259Y-89295000D01*
X155231746Y-89126520D01*
X155136310Y-88983690D01*
X154993480Y-88888254D01*
X154825000Y-88854741D01*
X153804608Y-88854741D01*
X153466727Y-88516861D01*
X153523800Y-88379075D01*
X153523800Y-87908925D01*
X153369227Y-87535750D01*
X156265000Y-87535750D01*
X156265000Y-88076310D01*
X156361673Y-88309699D01*
X156540302Y-88488327D01*
X156773691Y-88585000D01*
X157189250Y-88585000D01*
X157348000Y-88426250D01*
X157348000Y-87377000D01*
X156423750Y-87377000D01*
X156265000Y-87535750D01*
X153369227Y-87535750D01*
X153343882Y-87474564D01*
X153011436Y-87142118D01*
X152577075Y-86962200D01*
X152106925Y-86962200D01*
X151672564Y-87142118D01*
X151340118Y-87474564D01*
X151160200Y-87908925D01*
X149736941Y-87908925D01*
X154710068Y-82935800D01*
X155711761Y-82935800D01*
X155665000Y-83048690D01*
X155665000Y-84214250D01*
X155823750Y-84373000D01*
X156885500Y-84373000D01*
X156885500Y-84353000D01*
X157139500Y-84353000D01*
X157139500Y-84373000D01*
X158201250Y-84373000D01*
X158360000Y-84214250D01*
X158360000Y-83048690D01*
X158313239Y-82935800D01*
X159038579Y-82935800D01*
X159036913Y-82936913D01*
X158887284Y-83160849D01*
X158834741Y-83425000D01*
X158834741Y-84917375D01*
X158825765Y-84962500D01*
X158834741Y-85007625D01*
X158834741Y-85575000D01*
X158839201Y-85597420D01*
X158839200Y-86226862D01*
X158711913Y-86311913D01*
X158666718Y-86379553D01*
X158588327Y-86190301D01*
X158409698Y-86011673D01*
X158345937Y-85985262D01*
X158360000Y-85951310D01*
X158360000Y-84785750D01*
X158201250Y-84627000D01*
X157139500Y-84627000D01*
X157139500Y-84647000D01*
X156885500Y-84647000D01*
X156885500Y-84627000D01*
X155823750Y-84627000D01*
X155665000Y-84785750D01*
X155665000Y-85951310D01*
X155761673Y-86184699D01*
X155940302Y-86363327D01*
X156173691Y-86460000D01*
X156265000Y-86460000D01*
X156265000Y-86964250D01*
X156423750Y-87123000D01*
X157348000Y-87123000D01*
X157348000Y-87103000D01*
X157602000Y-87103000D01*
X157602000Y-87123000D01*
X157622000Y-87123000D01*
X157622000Y-87377000D01*
X157602000Y-87377000D01*
X157602000Y-88426250D01*
X157760750Y-88585000D01*
X158176309Y-88585000D01*
X158409698Y-88488327D01*
X158588327Y-88309699D01*
X158666718Y-88120447D01*
X158711913Y-88188087D01*
X158764201Y-88223024D01*
X158764200Y-88854741D01*
X158675000Y-88854741D01*
X158506520Y-88888254D01*
X158363690Y-88983690D01*
X158268254Y-89126520D01*
X158234741Y-89295000D01*
X158234741Y-89895000D01*
X158268254Y-90063480D01*
X158363690Y-90206310D01*
X158399145Y-90230000D01*
X158363690Y-90253690D01*
X158268254Y-90396520D01*
X158234741Y-90565000D01*
X158234741Y-91165000D01*
X158268254Y-91333480D01*
X158340541Y-91441664D01*
X158302657Y-91449200D01*
X158102614Y-91488991D01*
X157875766Y-91640566D01*
X157837504Y-91697829D01*
X157312829Y-92222505D01*
X157255567Y-92260766D01*
X157176572Y-92378991D01*
X157103991Y-92487615D01*
X157050765Y-92755200D01*
X157064201Y-92822747D01*
X157064200Y-95014482D01*
X156748118Y-95330564D01*
X156568200Y-95764925D01*
X156568200Y-96235075D01*
X156748118Y-96669436D01*
X157080564Y-97001882D01*
X157514925Y-97181800D01*
X157985075Y-97181800D01*
X158419436Y-97001882D01*
X158751882Y-96669436D01*
X158931800Y-96235075D01*
X158931800Y-95764925D01*
X158751882Y-95330564D01*
X158435800Y-95014482D01*
X158435800Y-94064492D01*
X158506520Y-94111746D01*
X158675000Y-94145259D01*
X160225000Y-94145259D01*
X160393480Y-94111746D01*
X160424828Y-94090800D01*
X162527458Y-94090800D01*
X162595000Y-94104235D01*
X162607500Y-94101749D01*
X162620000Y-94104235D01*
X162687542Y-94090800D01*
X162687543Y-94090800D01*
X162887586Y-94051009D01*
X162941090Y-94015259D01*
X163045393Y-94015259D01*
X163967304Y-94937171D01*
X164005566Y-94994434D01*
X164232414Y-95146009D01*
X164432457Y-95185800D01*
X164432458Y-95185800D01*
X164499999Y-95199235D01*
X164567540Y-95185800D01*
X164764482Y-95185800D01*
X165080564Y-95501882D01*
X165514925Y-95681800D01*
X165985075Y-95681800D01*
X166419436Y-95501882D01*
X166751882Y-95169436D01*
X166761672Y-95145800D01*
X167266630Y-95145800D01*
X167425874Y-95384126D01*
X167849867Y-95667428D01*
X168062588Y-95709741D01*
X167500000Y-95709741D01*
X167331520Y-95743254D01*
X167188690Y-95838690D01*
X167093254Y-95981520D01*
X167059741Y-96150000D01*
X167059741Y-96314200D01*
X166735518Y-96314200D01*
X166419436Y-95998118D01*
X165985075Y-95818200D01*
X165514925Y-95818200D01*
X165080564Y-95998118D01*
X164748118Y-96330564D01*
X164568200Y-96764925D01*
X164568200Y-97235075D01*
X164748118Y-97669436D01*
X165080564Y-98001882D01*
X165514925Y-98181800D01*
X165985075Y-98181800D01*
X166419436Y-98001882D01*
X166735518Y-97685800D01*
X167059741Y-97685800D01*
X167059741Y-97850000D01*
X167093254Y-98018480D01*
X167188690Y-98161310D01*
X167331520Y-98256746D01*
X167500000Y-98290259D01*
X170000000Y-98290259D01*
X170168480Y-98256746D01*
X170311310Y-98161310D01*
X170406746Y-98018480D01*
X170440259Y-97850000D01*
X170440259Y-96150000D01*
X170406746Y-95981520D01*
X170311310Y-95838690D01*
X170168480Y-95743254D01*
X170000000Y-95709741D01*
X169437412Y-95709741D01*
X169650133Y-95667428D01*
X170074126Y-95384126D01*
X170357428Y-94960133D01*
X170456911Y-94460000D01*
X170357428Y-93959867D01*
X170074126Y-93535874D01*
X169650133Y-93252572D01*
X169335563Y-93190000D01*
X169650133Y-93127428D01*
X170074126Y-92844126D01*
X170357428Y-92420133D01*
X170456911Y-91920000D01*
X170357428Y-91419867D01*
X170074126Y-90995874D01*
X169696564Y-90743596D01*
X169835618Y-90703360D01*
X170289856Y-90340251D01*
X170570562Y-89830952D01*
X170591476Y-89736890D01*
X170470155Y-89507000D01*
X168877000Y-89507000D01*
X168877000Y-89527000D01*
X168623000Y-89527000D01*
X168623000Y-89507000D01*
X167029845Y-89507000D01*
X166908524Y-89736890D01*
X166929438Y-89830952D01*
X167210144Y-90340251D01*
X167664382Y-90703360D01*
X167803436Y-90743596D01*
X167425874Y-90995874D01*
X167266630Y-91234200D01*
X166735518Y-91234200D01*
X166419436Y-90918118D01*
X165985075Y-90738200D01*
X165514925Y-90738200D01*
X165080564Y-90918118D01*
X164748118Y-91250564D01*
X164568200Y-91684925D01*
X164568200Y-92155075D01*
X164748118Y-92589436D01*
X165080564Y-92921882D01*
X165514925Y-93101800D01*
X165985075Y-93101800D01*
X166419436Y-92921882D01*
X166735518Y-92605800D01*
X167266630Y-92605800D01*
X167425874Y-92844126D01*
X167849867Y-93127428D01*
X168164437Y-93190000D01*
X167849867Y-93252572D01*
X167425874Y-93535874D01*
X167266630Y-93774200D01*
X166695518Y-93774200D01*
X166419436Y-93498118D01*
X165985075Y-93318200D01*
X165514925Y-93318200D01*
X165080564Y-93498118D01*
X164774274Y-93804408D01*
X164140259Y-93170393D01*
X164140259Y-92674999D01*
X164087716Y-92410849D01*
X163938087Y-92186913D01*
X163714151Y-92037284D01*
X163450001Y-91984741D01*
X162549999Y-91984741D01*
X162285849Y-92037284D01*
X162061913Y-92186913D01*
X161912284Y-92410849D01*
X161859741Y-92674999D01*
X161859741Y-92719200D01*
X160554424Y-92719200D01*
X160631746Y-92603480D01*
X160665259Y-92435000D01*
X160665259Y-91835000D01*
X160631746Y-91666520D01*
X160554424Y-91550800D01*
X161920068Y-91550800D01*
X162061913Y-91763087D01*
X162285849Y-91912716D01*
X162549999Y-91965259D01*
X163450001Y-91965259D01*
X163714151Y-91912716D01*
X163938087Y-91763087D01*
X164087716Y-91539151D01*
X164140259Y-91275001D01*
X164140259Y-90624999D01*
X164087716Y-90360849D01*
X163938087Y-90136913D01*
X163864074Y-90087459D01*
X164018480Y-90056746D01*
X164161310Y-89961310D01*
X164256746Y-89818480D01*
X164290259Y-89650000D01*
X164290259Y-88350000D01*
X164256746Y-88181520D01*
X164161310Y-88038690D01*
X164018480Y-87943254D01*
X163850000Y-87909741D01*
X162150000Y-87909741D01*
X161981520Y-87943254D01*
X161838690Y-88038690D01*
X161743254Y-88181520D01*
X161709741Y-88350000D01*
X161709741Y-89650000D01*
X161743254Y-89818480D01*
X161838690Y-89961310D01*
X161981520Y-90056746D01*
X162135926Y-90087459D01*
X162061913Y-90136913D01*
X162033658Y-90179200D01*
X160554424Y-90179200D01*
X160631746Y-90063480D01*
X160665259Y-89895000D01*
X160665259Y-89295000D01*
X160631746Y-89126520D01*
X160536310Y-88983690D01*
X160393480Y-88888254D01*
X160225000Y-88854741D01*
X160135800Y-88854741D01*
X160135800Y-88323251D01*
X160338087Y-88188087D01*
X160487716Y-87964151D01*
X160540259Y-87700001D01*
X160540259Y-86799999D01*
X160487716Y-86535849D01*
X160338087Y-86311913D01*
X160268264Y-86265259D01*
X160450000Y-86265259D01*
X160714151Y-86212716D01*
X160792405Y-86160428D01*
X160987500Y-86199235D01*
X161055042Y-86185800D01*
X161716862Y-86185800D01*
X161743254Y-86318480D01*
X161838690Y-86461310D01*
X161981520Y-86556746D01*
X162150000Y-86590259D01*
X163850000Y-86590259D01*
X164018480Y-86556746D01*
X164161310Y-86461310D01*
X164256746Y-86318480D01*
X164271988Y-86241854D01*
X164562827Y-86532694D01*
X164562829Y-86532696D01*
X164568200Y-86538066D01*
X164568200Y-86985075D01*
X164748118Y-87419436D01*
X165080564Y-87751882D01*
X165514925Y-87931800D01*
X165985075Y-87931800D01*
X166419436Y-87751882D01*
X166645518Y-87525800D01*
X167266630Y-87525800D01*
X167425874Y-87764126D01*
X167803436Y-88016404D01*
X167664382Y-88056640D01*
X167210144Y-88419749D01*
X166929438Y-88929048D01*
X166908524Y-89023110D01*
X167029845Y-89253000D01*
X168623000Y-89253000D01*
X168623000Y-89233000D01*
X168877000Y-89233000D01*
X168877000Y-89253000D01*
X170470155Y-89253000D01*
X170591476Y-89023110D01*
X170570562Y-88929048D01*
X170289856Y-88419749D01*
X169835618Y-88056640D01*
X169696564Y-88016404D01*
X170074126Y-87764126D01*
X170357428Y-87340133D01*
X170456911Y-86840000D01*
X170357428Y-86339867D01*
X170074126Y-85915874D01*
X169650133Y-85632572D01*
X169335563Y-85570000D01*
X169650133Y-85507428D01*
X170074126Y-85224126D01*
X170357428Y-84800133D01*
X170456911Y-84300000D01*
X170357428Y-83799867D01*
X170074126Y-83375874D01*
X169696564Y-83123596D01*
X169835618Y-83083360D01*
X170289856Y-82720251D01*
X170570562Y-82210952D01*
X170591476Y-82116890D01*
X170470155Y-81887000D01*
X168877000Y-81887000D01*
X168877000Y-81907000D01*
X168623000Y-81907000D01*
X168623000Y-81887000D01*
X167029845Y-81887000D01*
X166908524Y-82116890D01*
X166929438Y-82210952D01*
X167210144Y-82720251D01*
X167664382Y-83083360D01*
X167803436Y-83123596D01*
X167425874Y-83375874D01*
X167266630Y-83614200D01*
X166765814Y-83614200D01*
X166751882Y-83580564D01*
X166419436Y-83248118D01*
X165985075Y-83068200D01*
X165514925Y-83068200D01*
X165080564Y-83248118D01*
X165014482Y-83314200D01*
X162960068Y-83314200D01*
X161458698Y-81812831D01*
X161420434Y-81755566D01*
X161193586Y-81603991D01*
X160993543Y-81564200D01*
X160993542Y-81564200D01*
X160926000Y-81550765D01*
X160858458Y-81564200D01*
X154493536Y-81564200D01*
X154425999Y-81550766D01*
X154358462Y-81564200D01*
X154358457Y-81564200D01*
X154158414Y-81603991D01*
X153931566Y-81755566D01*
X153893306Y-81812826D01*
X148348830Y-87357304D01*
X148291567Y-87395566D01*
X148181223Y-87560707D01*
X148139991Y-87622415D01*
X148086765Y-87890000D01*
X146498800Y-87890000D01*
X146498800Y-81403110D01*
X166908524Y-81403110D01*
X167029845Y-81633000D01*
X168623000Y-81633000D01*
X168623000Y-80275000D01*
X168877000Y-80275000D01*
X168877000Y-81633000D01*
X170470155Y-81633000D01*
X170591476Y-81403110D01*
X170570562Y-81309048D01*
X170289856Y-80799749D01*
X169835618Y-80436640D01*
X169277000Y-80275000D01*
X168877000Y-80275000D01*
X168623000Y-80275000D01*
X168223000Y-80275000D01*
X167664382Y-80436640D01*
X167210144Y-80799749D01*
X166929438Y-81309048D01*
X166908524Y-81403110D01*
X146498800Y-81403110D01*
X146498800Y-79506800D01*
X170885200Y-79506800D01*
X170885201Y-99321200D01*
X170885201Y-99321200D01*
G37*
X170885201Y-99321200D02*
X146498800Y-99321200D01*
X146498800Y-87890000D01*
X148086765Y-87890000D01*
X148100201Y-87957547D01*
X148100200Y-93156458D01*
X148086765Y-93224000D01*
X148100200Y-93291542D01*
X148139991Y-93491585D01*
X148291566Y-93718433D01*
X148348829Y-93756695D01*
X149529306Y-94937174D01*
X149567566Y-94994434D01*
X149624825Y-95032693D01*
X149624826Y-95032694D01*
X149794414Y-95146009D01*
X150062000Y-95199235D01*
X150129542Y-95185800D01*
X155151180Y-95185800D01*
X155218722Y-95199235D01*
X155286264Y-95185800D01*
X155286265Y-95185800D01*
X155486308Y-95146009D01*
X155713156Y-94994434D01*
X155751419Y-94937169D01*
X156187173Y-94501416D01*
X156244434Y-94463156D01*
X156396009Y-94236308D01*
X156435800Y-94036265D01*
X156449235Y-93968722D01*
X156435800Y-93901180D01*
X156435800Y-92822742D01*
X156449235Y-92755199D01*
X156396009Y-92487614D01*
X156282693Y-92318026D01*
X156244433Y-92260766D01*
X156187173Y-92222506D01*
X155662497Y-91697831D01*
X155624234Y-91640566D01*
X155397386Y-91488991D01*
X155379584Y-91485450D01*
X155460000Y-91291310D01*
X155460000Y-91150750D01*
X155301250Y-90992000D01*
X154177000Y-90992000D01*
X154177000Y-91012000D01*
X153923000Y-91012000D01*
X153923000Y-90992000D01*
X152798750Y-90992000D01*
X152640000Y-91150750D01*
X152640000Y-91184750D01*
X152502250Y-91047000D01*
X151453000Y-91047000D01*
X151453000Y-91067000D01*
X151199000Y-91067000D01*
X151199000Y-91047000D01*
X150149750Y-91047000D01*
X149991000Y-91205750D01*
X149991000Y-91621309D01*
X150087673Y-91854698D01*
X150266301Y-92033327D01*
X150455553Y-92111718D01*
X150387913Y-92156913D01*
X150238284Y-92380849D01*
X150185741Y-92644999D01*
X150185741Y-93295001D01*
X150238284Y-93559151D01*
X150387913Y-93783087D01*
X150434477Y-93814200D01*
X150346068Y-93814200D01*
X149471800Y-92939934D01*
X149471800Y-90218691D01*
X149991000Y-90218691D01*
X149991000Y-90634250D01*
X150149750Y-90793000D01*
X151199000Y-90793000D01*
X151199000Y-89868750D01*
X151040250Y-89710000D01*
X150499690Y-89710000D01*
X150266301Y-89806673D01*
X150087673Y-89985302D01*
X149991000Y-90218691D01*
X149471800Y-90218691D01*
X149471800Y-88174066D01*
X149736941Y-87908925D01*
X151160200Y-87908925D01*
X151160200Y-88379075D01*
X151340118Y-88813436D01*
X151672564Y-89145882D01*
X152106925Y-89325800D01*
X152335934Y-89325800D01*
X152834741Y-89824608D01*
X152834741Y-89895000D01*
X152868254Y-90063480D01*
X152872356Y-90069619D01*
X152736673Y-90205301D01*
X152661000Y-90387992D01*
X152661000Y-90218691D01*
X152564327Y-89985302D01*
X152385699Y-89806673D01*
X152152310Y-89710000D01*
X151611750Y-89710000D01*
X151453000Y-89868750D01*
X151453000Y-90793000D01*
X152502250Y-90793000D01*
X152661000Y-90634250D01*
X152661000Y-90600250D01*
X152798750Y-90738000D01*
X153923000Y-90738000D01*
X153923000Y-90718000D01*
X154177000Y-90718000D01*
X154177000Y-90738000D01*
X155301250Y-90738000D01*
X155460000Y-90579250D01*
X155460000Y-90438690D01*
X155363327Y-90205301D01*
X155227644Y-90069619D01*
X155231746Y-90063480D01*
X155265259Y-89895000D01*
X155265259Y-89295000D01*
X155231746Y-89126520D01*
X155136310Y-88983690D01*
X154993480Y-88888254D01*
X154825000Y-88854741D01*
X153804608Y-88854741D01*
X153466727Y-88516861D01*
X153523800Y-88379075D01*
X153523800Y-87908925D01*
X153369227Y-87535750D01*
X156265000Y-87535750D01*
X156265000Y-88076310D01*
X156361673Y-88309699D01*
X156540302Y-88488327D01*
X156773691Y-88585000D01*
X157189250Y-88585000D01*
X157348000Y-88426250D01*
X157348000Y-87377000D01*
X156423750Y-87377000D01*
X156265000Y-87535750D01*
X153369227Y-87535750D01*
X153343882Y-87474564D01*
X153011436Y-87142118D01*
X152577075Y-86962200D01*
X152106925Y-86962200D01*
X151672564Y-87142118D01*
X151340118Y-87474564D01*
X151160200Y-87908925D01*
X149736941Y-87908925D01*
X154710068Y-82935800D01*
X155711761Y-82935800D01*
X155665000Y-83048690D01*
X155665000Y-84214250D01*
X155823750Y-84373000D01*
X156885500Y-84373000D01*
X156885500Y-84353000D01*
X157139500Y-84353000D01*
X157139500Y-84373000D01*
X158201250Y-84373000D01*
X158360000Y-84214250D01*
X158360000Y-83048690D01*
X158313239Y-82935800D01*
X159038579Y-82935800D01*
X159036913Y-82936913D01*
X158887284Y-83160849D01*
X158834741Y-83425000D01*
X158834741Y-84917375D01*
X158825765Y-84962500D01*
X158834741Y-85007625D01*
X158834741Y-85575000D01*
X158839201Y-85597420D01*
X158839200Y-86226862D01*
X158711913Y-86311913D01*
X158666718Y-86379553D01*
X158588327Y-86190301D01*
X158409698Y-86011673D01*
X158345937Y-85985262D01*
X158360000Y-85951310D01*
X158360000Y-84785750D01*
X158201250Y-84627000D01*
X157139500Y-84627000D01*
X157139500Y-84647000D01*
X156885500Y-84647000D01*
X156885500Y-84627000D01*
X155823750Y-84627000D01*
X155665000Y-84785750D01*
X155665000Y-85951310D01*
X155761673Y-86184699D01*
X155940302Y-86363327D01*
X156173691Y-86460000D01*
X156265000Y-86460000D01*
X156265000Y-86964250D01*
X156423750Y-87123000D01*
X157348000Y-87123000D01*
X157348000Y-87103000D01*
X157602000Y-87103000D01*
X157602000Y-87123000D01*
X157622000Y-87123000D01*
X157622000Y-87377000D01*
X157602000Y-87377000D01*
X157602000Y-88426250D01*
X157760750Y-88585000D01*
X158176309Y-88585000D01*
X158409698Y-88488327D01*
X158588327Y-88309699D01*
X158666718Y-88120447D01*
X158711913Y-88188087D01*
X158764201Y-88223024D01*
X158764200Y-88854741D01*
X158675000Y-88854741D01*
X158506520Y-88888254D01*
X158363690Y-88983690D01*
X158268254Y-89126520D01*
X158234741Y-89295000D01*
X158234741Y-89895000D01*
X158268254Y-90063480D01*
X158363690Y-90206310D01*
X158399145Y-90230000D01*
X158363690Y-90253690D01*
X158268254Y-90396520D01*
X158234741Y-90565000D01*
X158234741Y-91165000D01*
X158268254Y-91333480D01*
X158340541Y-91441664D01*
X158302657Y-91449200D01*
X158102614Y-91488991D01*
X157875766Y-91640566D01*
X157837504Y-91697829D01*
X157312829Y-92222505D01*
X157255567Y-92260766D01*
X157176572Y-92378991D01*
X157103991Y-92487615D01*
X157050765Y-92755200D01*
X157064201Y-92822747D01*
X157064200Y-95014482D01*
X156748118Y-95330564D01*
X156568200Y-95764925D01*
X156568200Y-96235075D01*
X156748118Y-96669436D01*
X157080564Y-97001882D01*
X157514925Y-97181800D01*
X157985075Y-97181800D01*
X158419436Y-97001882D01*
X158751882Y-96669436D01*
X158931800Y-96235075D01*
X158931800Y-95764925D01*
X158751882Y-95330564D01*
X158435800Y-95014482D01*
X158435800Y-94064492D01*
X158506520Y-94111746D01*
X158675000Y-94145259D01*
X160225000Y-94145259D01*
X160393480Y-94111746D01*
X160424828Y-94090800D01*
X162527458Y-94090800D01*
X162595000Y-94104235D01*
X162607500Y-94101749D01*
X162620000Y-94104235D01*
X162687542Y-94090800D01*
X162687543Y-94090800D01*
X162887586Y-94051009D01*
X162941090Y-94015259D01*
X163045393Y-94015259D01*
X163967304Y-94937171D01*
X164005566Y-94994434D01*
X164232414Y-95146009D01*
X164432457Y-95185800D01*
X164432458Y-95185800D01*
X164499999Y-95199235D01*
X164567540Y-95185800D01*
X164764482Y-95185800D01*
X165080564Y-95501882D01*
X165514925Y-95681800D01*
X165985075Y-95681800D01*
X166419436Y-95501882D01*
X166751882Y-95169436D01*
X166761672Y-95145800D01*
X167266630Y-95145800D01*
X167425874Y-95384126D01*
X167849867Y-95667428D01*
X168062588Y-95709741D01*
X167500000Y-95709741D01*
X167331520Y-95743254D01*
X167188690Y-95838690D01*
X167093254Y-95981520D01*
X167059741Y-96150000D01*
X167059741Y-96314200D01*
X166735518Y-96314200D01*
X166419436Y-95998118D01*
X165985075Y-95818200D01*
X165514925Y-95818200D01*
X165080564Y-95998118D01*
X164748118Y-96330564D01*
X164568200Y-96764925D01*
X164568200Y-97235075D01*
X164748118Y-97669436D01*
X165080564Y-98001882D01*
X165514925Y-98181800D01*
X165985075Y-98181800D01*
X166419436Y-98001882D01*
X166735518Y-97685800D01*
X167059741Y-97685800D01*
X167059741Y-97850000D01*
X167093254Y-98018480D01*
X167188690Y-98161310D01*
X167331520Y-98256746D01*
X167500000Y-98290259D01*
X170000000Y-98290259D01*
X170168480Y-98256746D01*
X170311310Y-98161310D01*
X170406746Y-98018480D01*
X170440259Y-97850000D01*
X170440259Y-96150000D01*
X170406746Y-95981520D01*
X170311310Y-95838690D01*
X170168480Y-95743254D01*
X170000000Y-95709741D01*
X169437412Y-95709741D01*
X169650133Y-95667428D01*
X170074126Y-95384126D01*
X170357428Y-94960133D01*
X170456911Y-94460000D01*
X170357428Y-93959867D01*
X170074126Y-93535874D01*
X169650133Y-93252572D01*
X169335563Y-93190000D01*
X169650133Y-93127428D01*
X170074126Y-92844126D01*
X170357428Y-92420133D01*
X170456911Y-91920000D01*
X170357428Y-91419867D01*
X170074126Y-90995874D01*
X169696564Y-90743596D01*
X169835618Y-90703360D01*
X170289856Y-90340251D01*
X170570562Y-89830952D01*
X170591476Y-89736890D01*
X170470155Y-89507000D01*
X168877000Y-89507000D01*
X168877000Y-89527000D01*
X168623000Y-89527000D01*
X168623000Y-89507000D01*
X167029845Y-89507000D01*
X166908524Y-89736890D01*
X166929438Y-89830952D01*
X167210144Y-90340251D01*
X167664382Y-90703360D01*
X167803436Y-90743596D01*
X167425874Y-90995874D01*
X167266630Y-91234200D01*
X166735518Y-91234200D01*
X166419436Y-90918118D01*
X165985075Y-90738200D01*
X165514925Y-90738200D01*
X165080564Y-90918118D01*
X164748118Y-91250564D01*
X164568200Y-91684925D01*
X164568200Y-92155075D01*
X164748118Y-92589436D01*
X165080564Y-92921882D01*
X165514925Y-93101800D01*
X165985075Y-93101800D01*
X166419436Y-92921882D01*
X166735518Y-92605800D01*
X167266630Y-92605800D01*
X167425874Y-92844126D01*
X167849867Y-93127428D01*
X168164437Y-93190000D01*
X167849867Y-93252572D01*
X167425874Y-93535874D01*
X167266630Y-93774200D01*
X166695518Y-93774200D01*
X166419436Y-93498118D01*
X165985075Y-93318200D01*
X165514925Y-93318200D01*
X165080564Y-93498118D01*
X164774274Y-93804408D01*
X164140259Y-93170393D01*
X164140259Y-92674999D01*
X164087716Y-92410849D01*
X163938087Y-92186913D01*
X163714151Y-92037284D01*
X163450001Y-91984741D01*
X162549999Y-91984741D01*
X162285849Y-92037284D01*
X162061913Y-92186913D01*
X161912284Y-92410849D01*
X161859741Y-92674999D01*
X161859741Y-92719200D01*
X160554424Y-92719200D01*
X160631746Y-92603480D01*
X160665259Y-92435000D01*
X160665259Y-91835000D01*
X160631746Y-91666520D01*
X160554424Y-91550800D01*
X161920068Y-91550800D01*
X162061913Y-91763087D01*
X162285849Y-91912716D01*
X162549999Y-91965259D01*
X163450001Y-91965259D01*
X163714151Y-91912716D01*
X163938087Y-91763087D01*
X164087716Y-91539151D01*
X164140259Y-91275001D01*
X164140259Y-90624999D01*
X164087716Y-90360849D01*
X163938087Y-90136913D01*
X163864074Y-90087459D01*
X164018480Y-90056746D01*
X164161310Y-89961310D01*
X164256746Y-89818480D01*
X164290259Y-89650000D01*
X164290259Y-88350000D01*
X164256746Y-88181520D01*
X164161310Y-88038690D01*
X164018480Y-87943254D01*
X163850000Y-87909741D01*
X162150000Y-87909741D01*
X161981520Y-87943254D01*
X161838690Y-88038690D01*
X161743254Y-88181520D01*
X161709741Y-88350000D01*
X161709741Y-89650000D01*
X161743254Y-89818480D01*
X161838690Y-89961310D01*
X161981520Y-90056746D01*
X162135926Y-90087459D01*
X162061913Y-90136913D01*
X162033658Y-90179200D01*
X160554424Y-90179200D01*
X160631746Y-90063480D01*
X160665259Y-89895000D01*
X160665259Y-89295000D01*
X160631746Y-89126520D01*
X160536310Y-88983690D01*
X160393480Y-88888254D01*
X160225000Y-88854741D01*
X160135800Y-88854741D01*
X160135800Y-88323251D01*
X160338087Y-88188087D01*
X160487716Y-87964151D01*
X160540259Y-87700001D01*
X160540259Y-86799999D01*
X160487716Y-86535849D01*
X160338087Y-86311913D01*
X160268264Y-86265259D01*
X160450000Y-86265259D01*
X160714151Y-86212716D01*
X160792405Y-86160428D01*
X160987500Y-86199235D01*
X161055042Y-86185800D01*
X161716862Y-86185800D01*
X161743254Y-86318480D01*
X161838690Y-86461310D01*
X161981520Y-86556746D01*
X162150000Y-86590259D01*
X163850000Y-86590259D01*
X164018480Y-86556746D01*
X164161310Y-86461310D01*
X164256746Y-86318480D01*
X164271988Y-86241854D01*
X164562827Y-86532694D01*
X164562829Y-86532696D01*
X164568200Y-86538066D01*
X164568200Y-86985075D01*
X164748118Y-87419436D01*
X165080564Y-87751882D01*
X165514925Y-87931800D01*
X165985075Y-87931800D01*
X166419436Y-87751882D01*
X166645518Y-87525800D01*
X167266630Y-87525800D01*
X167425874Y-87764126D01*
X167803436Y-88016404D01*
X167664382Y-88056640D01*
X167210144Y-88419749D01*
X166929438Y-88929048D01*
X166908524Y-89023110D01*
X167029845Y-89253000D01*
X168623000Y-89253000D01*
X168623000Y-89233000D01*
X168877000Y-89233000D01*
X168877000Y-89253000D01*
X170470155Y-89253000D01*
X170591476Y-89023110D01*
X170570562Y-88929048D01*
X170289856Y-88419749D01*
X169835618Y-88056640D01*
X169696564Y-88016404D01*
X170074126Y-87764126D01*
X170357428Y-87340133D01*
X170456911Y-86840000D01*
X170357428Y-86339867D01*
X170074126Y-85915874D01*
X169650133Y-85632572D01*
X169335563Y-85570000D01*
X169650133Y-85507428D01*
X170074126Y-85224126D01*
X170357428Y-84800133D01*
X170456911Y-84300000D01*
X170357428Y-83799867D01*
X170074126Y-83375874D01*
X169696564Y-83123596D01*
X169835618Y-83083360D01*
X170289856Y-82720251D01*
X170570562Y-82210952D01*
X170591476Y-82116890D01*
X170470155Y-81887000D01*
X168877000Y-81887000D01*
X168877000Y-81907000D01*
X168623000Y-81907000D01*
X168623000Y-81887000D01*
X167029845Y-81887000D01*
X166908524Y-82116890D01*
X166929438Y-82210952D01*
X167210144Y-82720251D01*
X167664382Y-83083360D01*
X167803436Y-83123596D01*
X167425874Y-83375874D01*
X167266630Y-83614200D01*
X166765814Y-83614200D01*
X166751882Y-83580564D01*
X166419436Y-83248118D01*
X165985075Y-83068200D01*
X165514925Y-83068200D01*
X165080564Y-83248118D01*
X165014482Y-83314200D01*
X162960068Y-83314200D01*
X161458698Y-81812831D01*
X161420434Y-81755566D01*
X161193586Y-81603991D01*
X160993543Y-81564200D01*
X160993542Y-81564200D01*
X160926000Y-81550765D01*
X160858458Y-81564200D01*
X154493536Y-81564200D01*
X154425999Y-81550766D01*
X154358462Y-81564200D01*
X154358457Y-81564200D01*
X154158414Y-81603991D01*
X153931566Y-81755566D01*
X153893306Y-81812826D01*
X148348830Y-87357304D01*
X148291567Y-87395566D01*
X148181223Y-87560707D01*
X148139991Y-87622415D01*
X148086765Y-87890000D01*
X146498800Y-87890000D01*
X146498800Y-81403110D01*
X166908524Y-81403110D01*
X167029845Y-81633000D01*
X168623000Y-81633000D01*
X168623000Y-80275000D01*
X168877000Y-80275000D01*
X168877000Y-81633000D01*
X170470155Y-81633000D01*
X170591476Y-81403110D01*
X170570562Y-81309048D01*
X170289856Y-80799749D01*
X169835618Y-80436640D01*
X169277000Y-80275000D01*
X168877000Y-80275000D01*
X168623000Y-80275000D01*
X168223000Y-80275000D01*
X167664382Y-80436640D01*
X167210144Y-80799749D01*
X166929438Y-81309048D01*
X166908524Y-81403110D01*
X146498800Y-81403110D01*
X146498800Y-79506800D01*
X170885200Y-79506800D01*
X170885201Y-99321200D01*
G04 #@! TD*
M02*
